<?xml version="1.0" encoding="UTF-8"?>
<svg width="414px" height="128px" viewBox="0 0 414 128" version="1.1" xmlns="http://www.w3.org/2000/svg" xmlns:xlink="http://www.w3.org/1999/xlink">
    <!-- Generator: Sketch 60.1 (88133) - https://sketch.com -->
    <title>Group 4</title>
    <desc>Created with Sketch.</desc>
    <g id="Page-1" stroke="none" stroke-width="1" fill="none" fill-rule="evenodd">
        <g id="01.-Main-Auth">
            <g id="Group-4" transform="translate(-35.170395, -322.000000)">
                <path d="M273.174432,370.025911 C316.726744,396.298851 346.939826,412.223307 363.813678,417.79928 C389.124455,426.163238 433.99897,416.463237 465.396704,406.911007 C486.328527,400.542854 512.5118,410.3313 543.946524,436.276347 L557.820415,214.893627 C449.700895,246.05529 375.239822,274.033499 334.437195,298.828256 C293.634567,323.623013 273.213647,347.355565 273.174432,370.025911 Z" id="Path-4" fill="#F9E800"></path>
                <path d="M247.979678,449.893627 C351.875382,449.893627 393.461458,365.237837 449.546263,343.43644 C486.936132,328.902175 505.094778,328.902175 504.022201,343.43644 L489.144658,51.2118993 L12.137474,43.371199 L-2.55795385e-13,390.008921 C96.0559827,429.932059 178.715875,449.893627 247.979678,449.893627 Z" id="Path-3" fill="#F0A402"></path>
                <path d="M34.2222627,397.455794 C41.2574976,352.570971 68.9099141,316.499901 117.179512,289.242583 C189.583909,248.356608 268.519044,255.316383 344.234129,224.142887 C394.710853,203.360557 430.112467,180.622792 450.438972,155.929593 L468.937492,0 L326.396625,0 L1.70530257e-13,0 L16.0003372,414.580659 L34.2222627,397.455794 Z" id="Path-2" fill="#FBD254"></path>
            </g>
        </g>
    </g>
</svg>