<?xml version="1.0" encoding="UTF-8"?>
<svg width="414px" height="378px" viewBox="0 0 414 378" version="1.1" xmlns="http://www.w3.org/2000/svg" xmlns:xlink="http://www.w3.org/1999/xlink">
    <!-- Generator: Sketch 60.1 (88133) - https://sketch.com -->
    <title>Group 4</title>
    <desc>Created with Sketch.</desc>
    <g id="Page-1" stroke="none" stroke-width="1" fill="none" fill-rule="evenodd">
        <g id="00.-Auth">
            <g id="Group-4" transform="translate(-88.705686, -102.000000)">
                <path d="M288.004037,370.025911 C331.556349,396.298851 361.769431,412.223307 378.643283,417.79928 C403.95406,426.163238 448.828575,416.463237 480.226309,406.911007 C501.158132,400.542854 527.341405,410.3313 558.776129,436.276347 L572.65002,214.893627 C464.5305,246.05529 390.069427,274.033499 349.2668,298.828256 C308.464172,323.623013 288.043252,347.355565 288.004037,370.025911 Z" id="Path-4" fill="#F9E800"></path>
                <path d="M87.757554,454.911929 C161.561988,480.223012 222.110921,486.382037 269.404353,473.389003 C340.344502,453.899453 408.291063,365.237837 464.375868,343.43644 C501.765737,328.902175 519.924383,328.902175 518.851806,343.43644 L503.974263,51.2118993 L26.967079,43.371199 L-3.41060513e-13,454.911929 L87.757554,454.911929 Z" id="Path-3" fill="#F0A402"></path>
                <path d="M87.757554,397.455794 C94.7927889,352.570971 122.445205,316.499901 170.714803,289.242583 C243.1192,248.356608 322.054336,255.316383 397.769421,224.142887 C448.246144,203.360557 483.647758,180.622792 503.974263,155.929593 L522.472783,-2.84217094e-14 L379.931917,-2.84217094e-14 L53.5352913,-2.84217094e-14 L69.5356284,414.580659 L87.757554,397.455794 Z" id="Path-2" fill="#FBD254"></path>
            </g>
        </g>
    </g>
</svg>