<svg xmlns="http://www.w3.org/2000/svg" viewBox="0 0 1703.33 1903"><defs><style>.cls-1{fill:#b3201f;}.cls-2{fill:#fff;}.cls-3{fill:#d20a11;}</style></defs><g id="Capa_1" data-name="Capa 1"><path class="cls-1" d="M1110.2,1768.13c33.22.14,33.64.79,45.9,0,20.57-1.33,35.62-4.22,60.65-9,14.88-2.85,30.68-5.88,51.63-11.47a653,653,0,0,0,63.11-20.49c21.14-7.88,40-14.9,63.93-27.05,26.95-13.67,45.68-26.39,64.75-39.34a683.28,683.28,0,0,0,59-44.26,554.9,554.9,0,0,0,114.75-128.68c24.58-37.82,38.65-69,49.17-92.61,10.09-22.62,22.52-50.79,33.61-90.16a600.26,600.26,0,0,0,18-91.8c4.35-37,4.24-65.3,4.1-85.23-.16-22.29-.32-44.59-4.1-73.77-4.71-36.32-12.3-62.28-22.13-95.89-9.43-32.22-16.06-54.91-29.51-84.42-7-15.46-17.53-33.81-38.52-70.49-12.46-21.78-23.86-41.71-40.16-68-17-27.38-30.38-49-48.36-73.77-18.64-25.63-21.63-26.28-64.75-77.86-44.16-52.83-44.37-56.16-75.4-91.8-30.39-34.91-27.05-28.11-64.75-70.48-39.9-44.86-43.76-52.6-90.15-104.91-33.59-37.88-33-35.41-44.26-50-28.94-37.42-31.69-52-59-82.78a372.13,372.13,0,0,1-25.41-31.14c-8.51-11.7-14.8-21.82-18.85-28.69l-18,8.2c-5.42,9-12.89,21.12-22.13,35.24C1069,174,1055,195.3,1030.7,228.09c-14.17,19.13-33.06,44.54-59,75.4-16.44,19.55-16.92,18.93-66.39,73.77-30.5,33.81-25.87,29.11-63.11,70.48-43.89,48.77-47.09,51.7-62.29,69.67-24.33,28.76-22.36,28.61-50,61.47-29.4,35-32.95,36.7-54.91,63.93-11.09,13.75-26.33,32.72-44.26,59-15.67,23-26,40.69-41,66.39-8.91,15.29-19.69,33.82-32.78,59-13.28,25.54-22.93,44.08-33.61,70.49a617.51,617.51,0,0,0-25.41,77,524.94,524.94,0,0,0-14.75,77.86c-1.25,11.51-2.71,28.61-2.46,79.5.27,54.47.4,81.7,2.46,99.18,7,59.18,24.29,103.84,34.42,129.49a603,603,0,0,0,35.25,73.77c26.61,48.07,52.45,81.09,68,100.81,20.09,25.44,35.75,45.27,61.48,68.85,24,22,44.62,36.12,69.66,53.27,20.23,13.85,41.54,28.34,72.13,44.26a580.2,580.2,0,0,0,75.4,32.78c25.8,9,45,13.63,73.76,20.49,32.57,7.78,48.85,11.67,66.39,13.12S1057,1767.9,1110.2,1768.13Z" transform="translate(-233.67 -124)"/></g><g id="mosquito"><path class="cls-2" d="M1921,1528l-20-19c-7.62-5.48-20.17-14.38-36-25-31-20.8-38.22-23.8-59-39a530.69,530.69,0,0,1-43-35c-14.86-13.47-26.87-25.92-36-36q-19-19.87-39-40c-25.08-25.22-30.69-29.43-52-51-16-16.15-28.63-29.8-37-39l-41-37-15-22a187.92,187.92,0,0,1-35-40q-3.49-14.51-7-29l-3-69q-2-33.49-4-67c-1.42-10-2.51-21.08-3-33-.39-9.58-.34-18.61,0-27l3-33q-4-15.5-8-31-5-10-10-20-1-13.5-2-27,1-7,2-14V782l-12,5-20,14-26,7-28,1-19,3-67,25-135,47-27,12-17,3h-11l-11,2-10,6q-2.51,9.5-5,19-1,11-2,22-2,7.5-4,15l-6,13c.33,3.33.67,6.67,1,10l15-6,60-31,61-25,60-29,51-24,37-11,30-10,23-3,20,3,13,6,7,10q.49,7.5,1,15-3.49,11.5-7,23-7,18.5-14,37l-6,14-24,45-25,47q-8,16-16,32l-6,17q-2.51,9.49-5,19l-5,14-12,18-16,27-10,22q-4,11-8,22-4,13.5-8,27-3.49,13.5-7,27l-9,26-8,15-10,18-8,14-3,13v39q3.49,25,7,50l3,48q3.49,33.49,7,67l3,47q5,63,10,126l9,93,6,26,14,35q9.49,20.51,19,41l15,19,11,18,9,15,8,13,25,15-7,6-19-1-21-18-25-36-23-46-12-40q-5.51-21.49-11-43l-9-58-12-92-9-100q-4-42-8-84-2-47-4-94-.49-46.5-1-93l3-19,12-36,24-36q14-28,28-56l34-65,40-82,29-65,9-20q2.51-6.5,5-13l-4-9-16,2-45,17-33,13-61,35-38,19-30,16-31,10-28,14-27,13-21,10-19,2-25,1-22-1-18-1-9,1-6,8q2.5,6.49,5,13l17,16,18,2h23l15,1a38.63,38.63,0,0,1,13,6,42.19,42.19,0,0,1,11,12,55.56,55.56,0,0,1,7,15v64q-2,9.49-4,19l-11,26-6,20q-2,10.5-4,21-4,9.49-8,19l-25,49-34,72-29,62-14,28q-8.5,24.49-17,49l-15,39q-8.5,24.49-17,49l-14,42-13,43-16,48q-8.5,26-17,52-8,27-16,54l-7,25q-5,24-10,48-4,15.49-8,31-.5,7-1,14-1,8-2,16l-11,3c-6.33-5.85-7-10.65-7-13,0-3.6,1.64-5.75,6-14,2.73-5.17,4.77-9.4,6-12l6-72,9-22,14-47,24-76,22-66,19-67,10-24,12-33,18-49,24-61,19-46,25-47,17-36,21-47q3.49-12,7-24l19-40q2-8,4-16,2-9,4-18,1-21,2-42a136,136,0,0,0-6-22c-3.21-8.76-5.22-11.38-8-13-4.84-2.83-10.41-1.72-13-1a246.13,246.13,0,0,1-27,2c-9,.17-15.82.3-25-1-5.69-.81-11.13-2.2-22-5-8.53-2.19-13.89-3.58-21-6-11.62-4-17.43-5.92-22-10a40.36,40.36,0,0,1-11-17c-1.86-5.5-2.51-11.53-3-16-1-9-.29-12.62-3-15s-7.46-1.92-11-1H859q1,7,2,14a82.1,82.1,0,0,1,9,19,87.12,87.12,0,0,1,4,25c.17,9.42.33,18.36-4,28-3.86,8.59-6.13,6.26-18,22-9,12-10.94,17.6-19,22a34.38,34.38,0,0,1-14,4l-19,1-5,10-12,49-30,132q-9.5,46-19,92-7,38-14,76l-12,53-6,25a142.25,142.25,0,0,1-7,50,236.44,236.44,0,0,1-16,56l-8-11c.58-8,1.69-19.78,4-34,2.58-15.89,5.28-26.4,8-38,6.51-27.78,6.07-31.93,12-60,6.66-31.56,8.49-32.39,18-72,2.57-10.71,10.34-43.59,18-85,5.91-32,6.08-38.33,13-78,5.19-29.74,9.91-53.75,13-69,3.58-18,6.69-37.33,9-58q2-18.12,3-35l-7-15a123.29,123.29,0,0,1-15-20,126.61,126.61,0,0,1-17-51,102.88,102.88,0,0,1,0-23,92.91,92.91,0,0,1,4-18c3-9,5.67-17.14,13-24a39.16,39.16,0,0,1,13-8l28,3v-9c-1.57-2.92-3.69-7-6-12-3.79-8.17-6.09-13.12-8-20-2.57-9.25-4.11-14.78-3-22,1.27-8.27,4.82-10.9,3-16s-7.49-7.84-10-9c-4.53-2.1-7.22-1.7-15-3a108.93,108.93,0,0,1-13-3l-38-30-53-42-30-28-8,5v28l3,86-3,39-3,194q-1,14-2,28l-6,16a347.71,347.71,0,0,1-18,37c-4.19,7.46-12.6,21.78-30,45-8.3,11.08-19.25,25-44,53-25.72,29.12-38.67,43.79-58,63-23.05,22.91-19.08,16.43-69,63-18.14,16.93-31,29.29-55,51-11.78,10.66-21.54,19.31-28,25a62.31,62.31,0,0,1-19,16c-4.37,2.32-9.09,4.07-14,9a36.28,36.28,0,0,0-7,10q-1,7-2,14a11.15,11.15,0,0,1-13,2c-4.84-2.72-6.89-9.39-4-15a115.67,115.67,0,0,1,7-14,92.2,92.2,0,0,1,14-19,72.81,72.81,0,0,1,27-17,354.78,354.78,0,0,1,64-62l39-38,47-44,57-58,34-40,25-36a131.55,131.55,0,0,0,15-24,124.72,124.72,0,0,0,8-21,114.85,114.85,0,0,0,4-30l6-55,3-72q2.5-52,5-104V816c-.18-1.84-.93-11.65,6-19,4.86-5.15,10.94-6.38,14-7a31.39,31.39,0,0,1,16,1l24,10a328.23,328.23,0,0,1,30,18c9.68,6.55,24,17,24,17,1,.17,5.49.83,9-2,4.09-3.3,5.22-10,2-16a285.12,285.12,0,0,1,15-108c3.78-21.44,8.37-35.22,12-44,1.16-2.81,4-9.48,7-19a148.51,148.51,0,0,0,5-19c2-10.83,1.13-14.22,4-21a40.14,40.14,0,0,1,7-11,35.71,35.71,0,0,1,16,6c6,4.2,8.23,8.82,15,21,11.63,20.91,10.35,16.91,16,28,6.59,12.93,9.88,19.4,13,29,4.26,13.11,7,24,7,24a91.51,91.51,0,0,0,7,18c2.66,5.19,4.4,7.34,7,8,4.66,1.17,9.19-3.2,10-4,2.89-2.58,7-6.08,12-10,7.52-5.85,13.9-10.81,22-15,9.94-5.14,18.19-6.9,28-9a159.08,159.08,0,0,1,31-4c8.48-.21,13.72.4,22-2,5-1.44,10-2.89,14-7,5.62-5.73,5.55-12.73,7-23,.15-1,2.61-18,8-32,5.55-14.44,13.78-24.6,23-36,6.45-8,6.19-6.29,16-18a61.8,61.8,0,0,1,11-11c4.9-3.69,9-6.67,14-6,5.44.72,8.86,5.32,10,7a98.51,98.51,0,0,1,3,18c1,14-1.8,17.84,0,32,.81,6.37,2,10.23,4,17,2.24,7.46,3.51,9.46,5,11,4.5,4.63,11,5,14,5l21-8,22-12a211.69,211.69,0,0,1,44-26c21.15-9.24,35.1-11.13,56-17a382.28,382.28,0,0,0,71-28l69-25,30-7,31-5,38-4,45,3,34,1a71,71,0,0,1,20,1c8.36,1.63,16.43,3.21,22,10a24.46,24.46,0,0,1,5,11q-1,8-2,16l10,5a92.1,92.1,0,0,1,40,5,44.26,44.26,0,0,1,10,8c5.75,6.17,8.23,12.42,10,17a49.87,49.87,0,0,1,4,17c.22,5.88-1.19,10.92-4,21-2.74,9.8-4.11,14.7-7,19s-6.53,7.1-14,13c-7.66,6-12.08,9.48-19,12-3.93,1.43-7,2-13,3-10.24,1.77-13.08,1-19,3a37.05,37.05,0,0,0-12,7,28.85,28.85,0,0,0-18,24,83.83,83.83,0,0,1-3,35,87.5,87.5,0,0,1-42,20,93.34,93.34,0,0,0-33,11l-6,12q5,19,10,38l9,33,6,66q3.49,39.5,7,79,2,30.5,4,61,2.51,21,5,42,2.51,10.5,5,21c3,5.84,6.36,11.86,10,18,6.28,10.61,12.69,20.27,19,29,8.74,12.28,18.38,25,29,38,8.42,10.31,16.79,20,25,29l51,52,37,38,64,61,29,28,38,31,20,12,18,14,33,25,19,13,9,11Z" transform="translate(-233.67 -124)"/></g><g id="sangre"><path class="cls-3" d="M424.45,1799H784.09a76.73,76.73,0,0,0-36.23-69.86c-35.79-21.94-73-3.61-75-2.58-4.09-11.28-15.11-36.7-41.39-54.34-31.2-20.94-64.1-17.65-85.39-15.52-24.2,2.42-79.75,8-108.66,54.33C415,1746.88,421.68,1786.15,424.45,1799Z" transform="translate(-233.67 -124)"/></g></svg>