<?xml version="1.0" encoding="UTF-8"?>
<svg width="19px" height="22px" viewBox="0 0 19 22" version="1.1" xmlns="http://www.w3.org/2000/svg" xmlns:xlink="http://www.w3.org/1999/xlink">
    <!-- Generator: Sketch 58 (84663) - https://sketch.com -->
    <title></title>
    <desc>Created with Sketch.</desc>
    <g id="Page-1" stroke="none" stroke-width="1" fill="none" fill-rule="evenodd">
        <g id="04.-Main" transform="translate(-24.000000, -439.000000)" fill="#FFFFFF" fill-rule="nonzero">
            <g id="Group-2" transform="translate(11.000000, 398.000000)">
                <g id="Group-4" transform="translate(0.000000, 28.000000)">
                    <g id="Button">
                        <g id="">
                            <path d="M31.265625,20.3417969 C29.6256428,21.5019589 28.8056641,22.8984293 28.8056641,24.53125 C28.8056641,26.4863379 29.8190003,27.9866484 31.8457031,29.0322266 C31.3014296,30.6077553 30.513677,31.9791608 29.4824219,33.1464844 C28.4511667,34.3138079 27.5094444,34.8974609 26.6572266,34.8974609 C26.2561829,34.8974609 25.7083368,34.7649753 25.0136719,34.5 L24.6806641,34.3710938 C24.0003221,34.1061185 23.3987656,33.9736328 22.8759766,33.9736328 C22.3818335,33.9736328 21.8411488,34.0774729 21.2539062,34.2851562 L20.8349609,34.4355469 L20.3085938,34.6503906 C19.8932271,34.815105 19.474286,34.8974609 19.0517578,34.8974609 C18.0563101,34.8974609 16.9570373,34.0774822 15.7539062,32.4375 C14.0208247,30.0885299 13.1542969,27.5283342 13.1542969,24.7568359 C13.1542969,22.787425 13.6949816,21.2011779 14.7763672,19.9980469 C15.8577528,18.7949159 17.2900301,18.1933594 19.0732422,18.1933594 C19.7392611,18.1933594 20.3623018,18.3151029 20.9423828,18.5585938 L21.7587891,18.8916016 C22.1311868,19.0491544 22.431965,19.1279297 22.6611328,19.1279297 C22.9547541,19.1279297 23.2805972,19.0598965 23.6386719,18.9238281 L24.1865234,18.7089844 L24.5947266,18.5585938 C25.2464225,18.3222644 25.9661419,18.2041016 26.7539062,18.2041016 C28.6230562,18.2041016 30.1269474,18.9166595 31.265625,20.3417969 Z M26.8398438,13.2304688 L26.8604688,13.5037503 C26.8682032,13.6266407 26.8720703,13.7289058 26.8720703,13.8105469 C26.8720703,15.0494854 26.4209029,16.1362258 25.5185547,17.0708008 C24.6162064,18.0053758 23.5670633,18.4726562 22.3710938,18.4726562 L22.3367187,18.1753121 C22.3238281,18.0455467 22.3173828,17.944141 22.3173828,17.8710938 C22.3173828,16.8183541 22.7363239,15.8300827 23.5742188,14.90625 C24.3476601,14.0534813 25.233978,13.527182 26.2331952,13.3273392 L26.4853516,13.2841797 C26.564128,13.2698567 26.6822909,13.2519532 26.8398438,13.2304688 Z"></path>
                        </g>
                    </g>
                </g>
            </g>
        </g>
    </g>
</svg>