<svg xmlns="http://www.w3.org/2000/svg" xmlns:xlink="http://www.w3.org/1999/xlink" viewBox="0 0 960.11 669.33"><defs><style>.cls-1{fill:#7a5d35;}.cls-2{fill:#503617;}.cls-3{fill:#fffce3;}.cls-4{stroke:#000;}.cls-12,.cls-4{stroke-miterlimit:10;}.cls-5{fill:#5e6e65;}.cls-6{fill:#1d1d1b;}.cls-7{fill:#fff;}.cls-8{fill:url(#Degradado_sin_nombre_4);}.cls-9{fill:url(#Degradado_sin_nombre_8);}.cls-10{fill:url(#Degradado_sin_nombre_6);}.cls-11{fill:url(#Degradado_sin_nombre_7);}.cls-12{fill:none;stroke:#fff;stroke-width:0.5px;}</style><radialGradient id="Degradado_sin_nombre_4" cx="440.75" cy="365.05" r="36.52" gradientUnits="userSpaceOnUse"><stop offset="0" stop-color="#fff"/><stop offset="1"/></radialGradient><radialGradient id="Degradado_sin_nombre_8" cx="483.59" cy="346.44" r="45.27" xlink:href="#Degradado_sin_nombre_4"/><radialGradient id="Degradado_sin_nombre_6" cx="531.57" cy="329.53" r="40.85" xlink:href="#Degradado_sin_nombre_4"/><radialGradient id="Degradado_sin_nombre_7" cx="565.98" cy="315.96" r="44.98" xlink:href="#Degradado_sin_nombre_4"/></defs><g id="Cuerpo"><path d="M391.75,353l-13.39,4.33-16.21,8.17c-1.84,1.71-3.71,3.44-5.61,5.16s-3.7,3.36-5.54,5a10.39,10.39,0,0,0-4.21,3c-2.08,2.5-1.35,4.31-3.47,8.77-1.66,3.49-2.71,3.65-2.84,5.53-.07,1.12.12,3.74,4.5,7.5,7.46,6.4,18,8.35,26.25,9a96.88,96.88,0,0,0,21.38-.75c5.65-.78,13.17-2.21,36-10.12,6.84-2.37,8.46-3,29.62-10.88,26.77-9.91,27.15-9.94,30.75-11.62,15.59-7.27,14.93-9.64,32.09-17.79,7-3.31,6.92-2.85,27.54-11.46,20.15-8.42,16.94-7.5,25.5-10.88,2.95-1.16,1.26-.44,20.52-7.42,13.63-4.94,19.27-7,26.73-10.58,4.54-2.16,8.2-4.12,10.64-5.48a184.5,184.5,0,0,1,9.8,16.2C651.93,347.56,653.33,358.07,663,363c2.74,1.4,7.18,2.87,13.92,2.12l4.8-.7a33.58,33.58,0,0,0,20.66-4,32.86,32.86,0,0,0,10.44-9.56l7.3.1a20.65,20.65,0,0,1,5.73-6.15,23.25,23.25,0,0,1,9.22-3.59c3.52-.76,6.11-1.31,9.21-.51,4.19,1.09,5.13,3.57,6.79,3,2.2-.77,1.25-5.32,3.06-13.28,1.07-4.74,2-9.06,5.19-13.46,1.73-2.42,3.3-3.74,5.85-7.79a53.32,53.32,0,0,0,3-5.49c-.33-2.08-.86-5.13-1.71-8.77-1.28-5.55-2.31-10-4.65-15a57.74,57.74,0,0,0-6.6-10.61A98,98,0,0,0,744.5,257c-23-22.9-24.07-24.88-29.39-26.39-3.76-1.07-10.37-2.12-15.31-2.91a89.28,89.28,0,0,0-9.9-1.3c-5.87-.23-10.47,1.08-19.44,3.71-11.15,3.26-16.72,4.9-21,7.91-3.61,2.55-5.56,4.84-10.86,7.59a48.55,48.55,0,0,1-9.75,3.75c-14.71,4.21-22.41,23.61-42,36.37a71.17,71.17,0,0,1-20.25,9c-9.67,4.22-18.07,7.58-24.75,10.13-2,.76-9.72,3.7-19.88,7.12a167.3,167.3,0,0,1-16.12,4.88c-5.34,1.23-6.09,1-10.5,2.25-5.83,1.61-8.34,3-14.25,5.25-6.48,2.46-9.63,3.11-15.38,4.87-20.12,6.17-20.33,10.06-37.5,14.63-12.24,3.26-18.37,4.89-22.5,4.12-1.39-.26-5.23-1.12-9,.68A12.61,12.61,0,0,0,391.75,353Z" transform="translate(-55.7)"/><path d="M595.22,339.35" transform="translate(-55.7)"/></g><g id="Manchas"><path class="cls-1" d="M341.9,390.4c-.19-.91.49-1.51,1.42-2.95,2.6-4,1.43-5.81,3.47-8.77,1.28-1.87,1.78-1.2,5.76-4.37,3.78-3,4.13-4.26,7.13-6.75,1.69-1.4,4-2.67,8.65-5.14,7.57-4.07,11.45-6.12,16.24-7.07a36.08,36.08,0,0,1,7-.68c-3.12,3.77-5.85,6.71-7.79,8.73-4.76,5-6.94,6.57-9.1,10.53a57.36,57.36,0,0,0-2.9,6c-1.14,3-1,3.7-2,4.85-1.93,2.25-5.08,2.55-7,2.74-4.93.48-5.73-1.5-8.44-.52-3.64,1.33-3.35,5.32-6.76,6C345.17,393.5,342.24,392,341.9,390.4Z" transform="translate(-55.7)"/><path class="cls-1" d="M396.7,348.66a8.67,8.67,0,0,0-2.69,3.47c-.34.82-.81,2.33.09,7.57.8,4.67,1.2,7,2.4,8.34,2,2.21,4.17,2,5.2,4.26a6,6,0,0,1,.1,4.1,12.08,12.08,0,0,0,5.37,3c2.7.63,4.69,0,8-.58a51.72,51.72,0,0,1,9.73-.62c-.9-1.09-2.17-2.63-3.66-4.5-3.21-4-3.61-4.71-3.91-5.63a10.92,10.92,0,0,1,.81-7.74c2.13-4.26,5.6-4,7.32-7.72.7-1.51,1.26-4,0-8a91.73,91.73,0,0,1-13.78,2.06c-1.9.13-4.72.26-8.72.84C400.28,347.9,398.13,348.34,396.7,348.66Z" transform="translate(-55.7)"/><path class="cls-1" d="M465.73,329.23c-4.59,3.13-8.36,5.5-10.86,7-7.28,4.46-10.73,6.07-13.76,10.35a22.86,22.86,0,0,0-3.12,6.33c-.3,3-.59,6-.89,9.06a7.74,7.74,0,0,0,3.62,1.71c1.52.24,2-.21,3.35.07,1.74.37,2.28,1.4,4.08,2.64a16.75,16.75,0,0,0,5.09,2.16c3.41.81,5.84-1,10.26-2.88,8.6-3.65,14.23-3.1,14.23-4.4,0-.72-1.69-1.77-10.12-3.1-2.2.21-3-.42-3.38-.84-1-1.25-.11-3.77,1.77-8.76.91-2.4,1.36-3.6,2.17-5.28,1.42-2.95,2.14-3.69,2.47-5.66a7.7,7.7,0,0,0-.46-4.78A7.51,7.51,0,0,0,465.73,329.23Z" transform="translate(-55.7)"/><path class="cls-1" d="M479.8,327.4a22.08,22.08,0,0,1,16.3-7.6,20.5,20.5,0,0,1,17.4-1.8,9.53,9.53,0,0,1,2.51,3.35,9.63,9.63,0,0,1,.71,5.39c-.44,3.17-2.31,5.33-5.39,8.78s-5.3,5-4.83,6.18c.24.63,1.23.88,3.2,1.37,3.72.92,5.25.49,5.6,1.23.59,1.24-2.89,4.14-4.89,5.55A25.32,25.32,0,0,1,500,354.1a15,15,0,0,1-5.1.3c-3.83-.57-6.27-2.85-9.1-5.5s-5-4.69-6.3-8.37a18.79,18.79,0,0,1-.82-8.19A20.8,20.8,0,0,1,479.8,327.4Z" transform="translate(-55.7)"/><path class="cls-1" d="M524,311.1a14.33,14.33,0,0,0-2.07,4.94c-.58,2.81.15,3.91.45,8.16.45,6.22-.82,7.8.73,9.56,1.14,1.28,2.35,1,5.64,2.13a30,30,0,0,1,7.42,3.7,128,128,0,0,0,26.93-6.89l2.5-2.2a11.69,11.69,0,0,1-7.43-2.11c-1-.72-3.23-2.39-3.27-4.69,0-1.38.77-2.14,2.68-4.61,2.87-3.73,4.31-5.6,4.72-7.19a9,9,0,0,0-2.72-8.82c-3-2.53-8-2.51-11.78.32q-5.46,1.82-11,3.61Q530.35,309.11,524,311.1Z" transform="translate(-55.7)"/><path class="cls-1" d="M563.89,296.41a20,20,0,0,1,3.28,8.64,19.72,19.72,0,0,1,0,5.32,46.32,46.32,0,0,0,1.18,6.83c.59,2.33.9,3.51,1.71,4.43,1.65,1.88,4.19,2.3,6.39,2.67a18.19,18.19,0,0,0,3.84.24,16.75,16.75,0,0,0,3-4.91,17.27,17.27,0,0,0,.65-9.86,14.87,14.87,0,0,0,2.69-3.76c1.54-3.08,1.52-5.82,1.56-8.84s.16-7.11.53-12.62c-4.83,2.65-10,5.28-15.54,7.84Q568.39,294.55,563.89,296.41Z" transform="translate(-55.7)"/><path class="cls-1" d="M467,383.6a23,23,0,0,0,7.39-8.1c1-1.94,1.56-3.76,3.41-6.2a21.49,21.49,0,0,1,4.5-4.4c-2.19,2.56-2.51,5.38-1.4,6.5s3.5.41,4.67-.15a7.69,7.69,0,0,0,3.84-5.14c.77.08,2.75.38,3.59,1.79,1.18,2-.08,5.77-4,8.21Z" transform="translate(-55.7)"/><path class="cls-1" d="M502.74,363.85c-.49-1.65,5.48-4.76,5.86-5,3.23-1.66,6.53-2.56,11.13-3.8,3.63-1,5.42-1.29,6.44-3s.22-2.61,1.33-4.23c1.49-2.17,4.39-2.55,5.5-2.7a11.19,11.19,0,0,1,7.3,1.7l-10.66,6.9c-8,3.09-12.81,5.93-15.84,8.17-1,.72-4.06,3.08-8,2.93C505.28,364.88,503,364.8,502.74,363.85Z" transform="translate(-55.7)"/><path class="cls-1" d="M544,344.22h0a119.84,119.84,0,0,0,12.12-5.36c5-2.54,7.91-4.5,13.38-6.57a66.16,66.16,0,0,1,7-2.19l-6,6.5L557.66,343l-16.36,5.32" transform="translate(-55.7)"/><path class="cls-1" d="M451.9,374.3c3.08-1.17,5.71-2.18,7.75-3,4-1.55,4.93-1.91,6.05-2.63a16.86,16.86,0,0,0,6.13-7.4,7.31,7.31,0,0,1,1.82,4.92c-.17,2.48-1.95,4-4.8,6.49-2.37,2.05-4.93,4.21-8.84,4.88-1.66.29-4,.66-6.07-.77A6.2,6.2,0,0,1,451.9,374.3Z" transform="translate(-55.7)"/><path class="cls-1" d="M445.65,386.9A17.75,17.75,0,0,1,457,383.68l3,1.22-8.1,5.18Z" transform="translate(-55.7)"/><path class="cls-1" d="M392.5,400.9a6.87,6.87,0,0,1,3.68-3.44,7.08,7.08,0,0,1,5.9.54,22,22,0,0,0,7.77-2.27c3.47-1.78,5-3.81,8.28-6.65A57.86,57.86,0,0,1,428,382.2l16-12.32,4.82.72c-5.16,4.77-9.62,8.66-13,11.54-7.11,6.06-9.86,8-11.89,9.32a83.64,83.64,0,0,1-10.76,6l-10.46,4Z" transform="translate(-55.7)"/><path class="cls-2" d="M641.42,246.55l9-5.07,10.93-6.33a18.35,18.35,0,0,0,6.25-.36c4.95-1.18,5.77-3.69,10-5.13,2.45-.84,2.66-.17,12.73.29,8.13.38,9.64,0,11,1.41,2.9,3,.4,9.76-.57,12.09l-3.93,15.47q-1.7,14.49-3.38,29l-13.78.28c-4.43-1.58-9-3.36-13.78-5.34-5.7-2.39-11-4.85-16-7.32L638.2,270.9q-3.8-8.2-7.6-16.4Z" transform="translate(-55.7)"/><path class="cls-2" d="M729.73,251.23a127.91,127.91,0,0,1,16.88,14.63c4.29,4.45,8.21,8.56,12,15a65.75,65.75,0,0,1,6,13.5L756.36,312l-15.75-12.37-15-40.88Z" transform="translate(-55.7)"/></g><g id="alas"><path class="cls-3" d="M593.14,281.12l-66.47,23.93L437.9,333.54l-79.81,18.83-35.74,9.51L295.3,365l-4.6-4.5q-.46-4.59-.92-9.19l7.6-7.1,15.6-6.42,17.21-8.88,34.19-12.08L399,307.54l72.12-16.76,19-3.86,50.17-16.07,33.92-8,24.07-5.47Q595.69,269.26,593.14,281.12Z" transform="translate(-55.7)"/><path class="cls-3" d="M630.6,254.5c5.37,0,11,.15,16.93.49,6.42.36,12.52.92,18.27,1.61l2.49,9.15-31.2,10.76q-2.61-7.38-5.23-14.78Z" transform="translate(-55.7)"/><path class="cls-4" d="M188.05,402.92" transform="translate(-55.7)"/></g><g id="patas"><path class="cls-5" d="M681.85,386.92l-2.13-13.78q1-2.77,2-5.53v-5.75l4.5-25.88a354.59,354.59,0,0,1,7.88-71.62c1.89-8.83,4-17.21,6.37-25.13l11.64-11,10.77,9.86q3.32,13,6.65,25.93L763.48,357l16.17,32,18.14,34.66,5.44,4.56,55.07,30.44L903,482.23l49.07,25.61L984.9,525.4l10.86,4.43,8.14,3.87.9,4.6-40.32-17.82L851.23,462l-51-28.87-9.37-6.75-2,3.54q-1.65-5.52-3.29-11L782.23,411,762,367.48,715.11,240l-4.5,1.88L708,278.23q1.32,28.5,2.63,57l2.19,15.57c.92,1.18,1.85,2.36,2.77,3.55l-3.07,8.25-.43,5.26q-1,2.94-2,5.89l-7.27,6.75-5.75,5.67-6.33,4.52a7.46,7.46,0,0,1-5.73-.43A7.22,7.22,0,0,1,681.85,386.92Z" transform="translate(-55.7)"/><path class="cls-5" d="M699.8,227.7q2-10.48,3.76-21.51c.52-3.26,1-6.49,1.47-9.69a7.32,7.32,0,0,1,3.29-2.77,7.4,7.4,0,0,1,5-.21,8.7,8.7,0,0,1,4.3,3.28c3.4,4.45,4.61,9.41,5.49,12.47A84.25,84.25,0,0,0,728.35,223a116,116,0,0,0,11.38,28.29q-6.69-4.87-13.37-9.76l-3.75-14.62c-2.1-7.07-3.16-10.18-3.75-11.63,0,0-1.16-2.84-2-5.68h0a17.87,17.87,0,0,0-1-2.56l-2.25,2.82c.06,1,.13,2.32.15,3.93s.06,3.58-.12,6a36.44,36.44,0,0,1-.94,6.68,32.06,32.06,0,0,1-1.72,5.16Z" transform="translate(-55.7)"/><path class="cls-5" d="M668.7,339.4l4.33,9,3.15,5.39c.16,1.83.26,3.8.24,5.89a61.89,61.89,0,0,1-1.07,11.13c-.91,2.65-1.82,5.29-2.72,7.94l-5.5,6-5.35,2.89-5.35.06a8.92,8.92,0,0,1-6.33-8.81A7.38,7.38,0,0,0,648,378a8,8,0,0,0-5.29.54l-3.83.88-4.79.07-3.34-2.87-3.57-8.9-5.7-42.1-10.15-58.33-2.63-9.08-1.61-4.71-2-2.48q-1.15,5.83-2.3,11.67-4,24.46-8,48.93-1.53,6.91-3,13.83-3.33,12.84-6.67,25.68-4.7,23.49-9.38,47-3.74,15.56-7.46,31.11c-.41,1.9-.83,3.79-1.24,5.69l-2.31,5q-14.9,28.63-29.81,57.26L510,542.69,495.7,569.21l-2.9,5-4.67,6.58-16.29,20.74-20.44,25-3,3.17-14.11,12-19.53,16.47-10.87,9-3.16,2.19-1.9-1.1c.19-1.21.37-2.41.56-3.62l3-3.66,11.81-9.37,17.44-14.82,9-7.87q3.47-3.29,6.94-6.56L467.23,600l16.69-22.5,9.69-14.66q7-13.59,14.06-27.18L517.77,517l23.34-42.6q4.83-9,9.64-18.06l4.09-8.92q1.11-3,2.23-5.89L560.82,429q7.36-31.69,14.74-63.39l9.12-36q2.43-8.69,4.88-17.38,1.07-8.07,2.14-16.15.94-9,1.9-17.9l4.14-18.39q1.77-8.33,3.56-16.64l5.43-1.87,3.57,5.43q8.15,21.29,16.31,42.57,7,17.52,14.06,35.06-1.06-7.73-2.15-15.43c-.61-2.44-1.23-4.87-1.84-7.3l-13.44-33.07q-4.74-11.73-9.46-23.45l-4.08-6.71-15.53-30.1-3,7.12-3.09,4.42L575.89,231.1l-35.91,32-27.75,24.37-24.1,21.65-56.52,48.48-66-22.9-89.43-36.54-37.35-22.28-12.61-9.7q-32.65-34.9-65.3-69.82-3.89-8.07-7.76-16.14l-8.37-22.64-3.28-10.22-2-6.31.3-3.8,1.5-2.3,2.12,4.21q2,5.53,3.94,11.06,3.93,11.07,7.87,22.13l5.82,12.75,4.68,7.5,8.82,12,38.62,42.18,17.63,15.94,9,6.75,7.68,5.06,24.94,12.57,51.19,22.12,24.56,10.5,46.5,15.38,24.38,9.75,8.81,3.37a8.39,8.39,0,0,0,3,.56,9.29,9.29,0,0,0,5.87-2.19l35.66-33.32,42.24-37.29,45.19-40.29L573,223.69l5.51-3.95,8.5-7.69,9-9.38,19.35,19,24.15,61.1,8.25,17.07q2.15,8.63,4.31,17.25a171,171,0,0,1,4.5,17.81c.7,3.57,1.25,7,1.69,10.31l.56,11.81,1.69,4.69c.68-1.87,1.37-3.75,2.06-5.62l-1.08-9.55c-.6-2.32-1.21-4.65-1.82-7a8.69,8.69,0,0,1,3.84-1.3A8.83,8.83,0,0,1,668.7,339.4Z" transform="translate(-55.7)"/><path class="cls-5" d="M615.55,229.3q-1.6-7.56-3.19-15.11l-6.75-15.64a24.44,24.44,0,0,0-3.81-4.44,41.58,41.58,0,0,1-3.43-3,36.36,36.36,0,0,1-2.93-4.13,27.16,27.16,0,0,0-3.49-4.45A11.38,11.38,0,0,0,580.49,180a13.79,13.79,0,0,0-5.67,3.21c-4.8,3.84-9.73,8.15-14.69,13-1.77,1.72-3.47,3.44-5.1,5.14-.94,1.18-2.39,2.93-4.3,4.95a99.7,99.7,0,0,1-9.64,8.62c-4.51,3.77-7.72,6.71-11.5,10.17s-3.68,3.51-10.23,9.65c-4.59,4.31-5,4.62-9.54,8.85-9.54,8.9-9.14,8.83-14.16,13.38-2.55,2.3-7.42,6.7-14,12-6.2,5-8.46,6.37-13.9,11-4,3.41-7.08,6.35-9.05,8.29l-8.09,4.35L399,307.54l-11.39-2L330,286.81l-39.35-13.19c-9.6-3.49-19.54-7.38-29.78-11.74Q248.42,256.6,237,251.15l-23.64-12.61-56.61-44.2-11.63-12.52-5.76-5.48-8-7q-4.39-5-8.77-9.92l-12.4-17.17L97.85,124.3q-5.2-7.65-10.4-15.32L80.61,98.8,75.73,88.67Q72.64,77.82,69.54,67q-3.71-16.45-7.4-32.91L60.58,18.55l0-12.95c-.83-1.87-1.67-3.73-2.5-5.6-.6,1.23-1.21,2.46-1.81,3.68l-.43,7.55.08,22.33,1.38,6.18Q60.16,50.3,63,60.88l2.58,10.5q1.39,6.09,2.8,12.19a71.67,71.67,0,0,0,13.44,26.54l11.86,17.16q8,12,16,23.93l9.94,13.19,9.24,10.08L145.24,190l17.94,15.79L184,224l34.39,24.09,7.93,5,9.71,4.36,18.52,7.85,16.59,6.8,22.72,8.75,52.26,16.92,24.71,7.44L404,314.6l59.67-23.05L477.36,282l33.56-29.43,38.25-35.25,26.63-25.69,5.43-5.81a2.62,2.62,0,0,1,2.44-1.69,2.71,2.71,0,0,1,2.25,3.19q2.6,6.76,5.34,13.61c8.8,21.91,18.16,42.68,27.85,62.32l5.25-8.81Q619.95,241.87,615.55,229.3Z" transform="translate(-55.7)"/><path class="cls-5" d="M591.9,332.9l3.3-4.53c.07,1.91.14,3.83.2,5.74l-2.7,75.29Q590,417.22,587.2,425l-24.42,66.36c-1.15,2.51-2.29,5-3.44,7.55l-4.9,7.92-8.62,10.43-6.45,7.06-4.87.55,6.8-8.35,10.31-14.07,4.5-7.87,9.75-25.13q3.28-10.39,6.56-20.81,3.2-9.93,6.38-19.87l3.93-9.38,3-12.19,1.13-13.31q1.08-17.18,2.18-34.35,1-10,1.94-20C591.29,337.33,591.59,335.12,591.9,332.9Z" transform="translate(-55.7)"/><path class="cls-5" d="M1015.8,448.2c.16-.55-1-1.48-2.6-2.3l-24.06-6.63-40.7-10.79-26.08-6.34-20.6-6-32.88-10.3-35.76-11.77c-3.33-1.09-3.23-1.35-31.52-13.35L792,376.67l-5.81-1.31q11.54,6.84,23.06,13.69l63.65,23.06,33.73,10.1,31.66,9.06,30.94,8.06,24.52,5.81,13.42,2.64c4,.79,4.39.9,4.4.85C1011.72,448.13,1000.8,500.82,1015.8,448.2Z" transform="translate(-55.7)"/><path class="cls-6" d="M764,313.37l-2.2,2.36q-2.81,3.54-5.6,7.07a31.52,31.52,0,0,0-1.92,6.81,32.39,32.39,0,0,0,.2,11.44q6.1,13.4,12.19,26.81l6.34,3.51,6.69,2.13a9.78,9.78,0,0,0,1.37,5.12c.59,1,1.48,2.42,2.64,2.41,1,0,1.24-1.1,3.15-1.88a4.68,4.68,0,0,1,2.14-.45c2.22.22,3.45,3.14,3.6,3.5l7.65,4,40.48,19.88,42.37,20,13.58,7.91,19.86,13.67,9,7.13,8.93,7.77c2,1.62,3.76,2.84,5,3.65.81.55,2.16,1.41,4.81,3.1L948,471.8l3,.43c-.36-1.21-.73-2.42-1.09-3.63L938.31,457l-13.08-11.45-9.68-6.84-13.5-8.43-9.75-5.82-14.63-7.68-6.37-3-12.75-7.5a304.2,304.2,0,0,1-35-13.5c-7.77-3.57-15-7.27-21.57-11-.68-1.32-1.37-2.63-2.06-3.94l2.44-.06,2.63.49,15.8,3.21,2,.25,2-.88-.7-1.13h0l-1.55-1.13-8.72-3.56c-3.49-1.43-3.66-1.49-4.22-1.78A11.57,11.57,0,0,0,806.7,372c-.89-.21-1.4-.17-2.53-.47a10.88,10.88,0,0,1-2.06-.75,5.89,5.89,0,0,1-1.41-1.68,8.88,8.88,0,0,1-.83-3.38c-.09-.67-.19-1.6-.23-2.73a9.24,9.24,0,0,1-.65-1.69,8.07,8.07,0,0,1-.31-2.88,6.09,6.09,0,0,1,.5-2.13,6,6,0,0,1,1.38-1.91,7.31,7.31,0,0,1,2.57-1.61c2-.52,5.27-1.32,9.25-2.24,13.88-3.23,17-3.36,25.66-5.58a152,152,0,0,0,19-6.07,186.69,186.69,0,0,0,18.47-8.71c5-2.61,10.4-5.64,14-7.65,0,0,5.8-3.26,10.84-6,3.08-1.67,4.62-2.51,5.1-2.71a18.45,18.45,0,0,0,3.47-1.78,16.11,16.11,0,0,0,1.94-1.52l-5.29.73L900,313.34,887.94,320l-12.66,6.89-21.09,9.71L833,342.87l-23.48,4.36-10.27-.7-2.35-5.11a49.16,49.16,0,0,0-2.28-6.46c-.5-1.14-1-2.21-1.54-3.2l0-3.93a7.51,7.51,0,0,1,3.39-7.23l-4.35-2.73-4.8.11-5.6-4.92-6.64-.28a21.89,21.89,0,0,0-7.27-.26A21,21,0,0,0,764,313.37Z" transform="translate(-55.7)"/><path class="cls-5" d="M800.55,340.36l.15-2.86,3.91-3.84,16.6-15.75c1.65-1.72,3.32-3.53,5-5.41q1.83-2.06,3.54-4.08l11.38-13.52,7.23-9.14,5.56-7.76,7.73-11.94,9.65-17.14,5.57-11.49,2.7-6.16,1.94-2.37a18.28,18.28,0,0,1,0,4.29,19,19,0,0,1-3.18,8.31l-5.53,11.44-9.49,17.39-7.12,11.36q-6.24,8.65-12.5,17.3-6,6.6-12,13.19-6.31,6.4-12.65,12.8l-8.12,8.34q-2.5,2.51-5.12,5l-2.06,2Z" transform="translate(-55.7)"/></g><g id="Contours"><path d="M485.8,348.9c-7-2.5-13.5-.2-19.8,2.5-1.3.6-1.5,3.8-2.2,5.8,2.1.6,4.4,1.9,6.3,1.5,4.5-.9,8.9-2.6,13.3-4,1-.3,2.2-1,3.1-.7,1.8.5,3.5,1.7,5.3,2.6-1.6.7-3.1,1.6-4.6,2.2-4.1,1.8-8.3,3.4-12.4,5.1-.4.1-1,.4-1,.7-.1,5.7-4.3,7.7-8.4,10.3-5,3.3-8,4.1-13,1.1a2.64,2.64,0,0,1-.5-1.7c4.6-1.8,9.3-3.4,13.8-5.6,1.6-.8,2.7-2.8,4.3-4.6a2.27,2.27,0,0,0,.3-1.2,3.13,3.13,0,0,0-.5,1c-2.1.5-4.4.8-6.3,1.8-5.5,3-11.1,4.8-16.3-.1-2.7-2.5-5.2-2.3-8.3-1.5a8.61,8.61,0,0,1-2.7-.3,7.57,7.57,0,0,0,.9-1.8c.3-3.5,1.9-7.9.4-10.4-3.6-5.7,1.8-6.7,3.7-9.6.6-.9,2.2-1.2,3.4-1.8-.3-.1-.6-.4-.8-.3-1.9.3-5.2.3-5.4,1.1-1.1,5-4.5,5.1-8.5,5-.7,0-1.8,1.5-2.1,2.5-.7,2.4-1,4.9-1.8,7.4a18.88,18.88,0,0,0-2-2c-.9-1-1.3-2.7-2.2-3-11.2-3.8-22.5-7.4-33.8-11.3s-22.1-8.5-33.4-12.3c-34.7-11.9-68.1-27-101-43.3-11.8-5.8-22.5-12.2-31.5-22-11.2-12.3-23.1-24-35.2-35.3-12.7-11.9-26.3-22.8-39.2-34.5-13.9-12.5-27.6-25.2-38-41s-20.8-31.1-31.6-46.4C71.9,96,68.7,86.4,66.6,76c-2.8-13.5-6.9-26.8-10.3-40.2a33.76,33.76,0,0,1-.5-7.8c-.1-7.5-.2-15,.1-22.5,0-1.8,1.4-3.7,2.2-5.5.9,1.9,2.4,3.7,2.5,5.6.3,6.5-.4,13,.3,19.3a162,162,0,0,0,3.9,21.9c3.1,13.3,6,26.7,10.2,39.8,2.1,6.8,6.2,13.2,10.3,19.2,12.7,18.8,25.4,37.6,39,55.8,5.2,7,12.8,12.3,19.2,18.5,2.9,2.9,5.5,6.1,8.3,9.1a72.66,72.66,0,0,0,5.5,5.6,31.26,31.26,0,0,0,4.2,2.9c-.7-1.5-1.2-3.1-1.9-4.5-3.1-6.4-6.6-12.6-9.1-19.3-4.1-10.8-7.5-21.9-11-32.9-.4-1.1,0-2.6.3-3.8a10,10,0,0,1,1.5-2.3,11.57,11.57,0,0,1,1.4,2.4c4.7,13.3,9,26.9,14.3,40,2.8,7,7.2,13.5,11.6,19.7,4.2,5.8,9.2,10.9,14,16.2a147.73,147.73,0,0,0,34.2,27.4c11.8,7,24.4,12.5,37,18.2,10.8,4.8,21.8,9.3,32.9,13.4,12.3,4.5,24.8,8.5,37.3,12.6,15.5,5.2,31,10.4,46.6,15.4,8.5,2.7,17.1,5.9,25.9,7.3,4.3.7,9.1-2.3,13.8-3.6,9.5-2.7,19-5.7,28.7-7.9,8.9-2.1,17-4.2,23.9-11.4,7.5-7.8,16.9-13.8,25.2-20.8,5.6-4.8,10.8-10,16.2-15,6-5.7,12-11.3,18-16.9,4-3.8,8.1-7.6,12.2-11.3,5.1-4.5,10.4-8.8,15.4-13.5,2.8-2.6,5-6,7.8-8.6,5.8-5.5,11.6-11,17.9-15.9,7.7-5.8,15.8-3.4,20.2,5.1a16.57,16.57,0,0,0,4.8,5.4c5,3.8,6.8,9.6,9.1,14.8,5.6,13,10.6,26.3,16.1,39.3,1.7,4,5,2.6,7.8,1.3a74.88,74.88,0,0,0,7.2-4.2,38.48,38.48,0,0,0,3-2.7,30.44,30.44,0,0,0-3.7-1.7c-2-.5-4-.7-6-1.3-.6-.2-.9-1.2-1.3-1.9a16,16,0,0,1,2.1-.5c1.9-.1,4.2-.6,5.7.2,5,2.9,9.5,2,14.6-.2,2.9-1.3,6.7-1,10.3-1.1a25.67,25.67,0,0,1-3.7,2.8c-.9.5-1.9,1.1-2.8,1.7,1.4.4,3,1.2,4.4,1,2.6-.3,5.1-1.2,7.7-1.7a36.76,36.76,0,0,1,5.7-.6c6.1-.3,11.8-3.9,18.1-1.5a14.81,14.81,0,0,0,5.1.9c.6,0,1.2-1.2,1.8-1.9-.7-.3-1.3-.7-1.9-.9-7.1-2.1-14-4.6-21.7-1.3-3.6,1.6-8.3.9-12.4,1.3.7-3.3-3.1-6.9-6.7-5.7s-7.9-.8-10.7,3.2c-.5.7-4.3,0-5.5-1.1-3.6-3.7-8-3.3-12.4-3.7a16.27,16.27,0,0,1-3.7-1.3,18.81,18.81,0,0,0,3.3-.5c5.1-1.5,9.8.3,14.4,2.3,2.3,1,13-.5,14.5-2,.2-.3.5-1,.4-1-1.1-.8-2.2-1.9-3.5-2.2-3.1-.5-6.4-.7-9.5-1.1-.6-.1-1.1-.7-1.6-1.1.4-.3,1-.9,1.4-.8,4.7,1.2,9.5,2,13.9,4,4.6,2,8.6,5.7,13.3,7.7,1.5.6,4.4-2.3,6.6-3.6.2-.1-.2-1.6-.3-1.6-1-.1-2.5-.4-3,.2-1.6,1.7-2.3,1-3-.7-.9-2.6-1.9-5.1-2.9-7.7a4.58,4.58,0,0,1,1.7-.1,2.27,2.27,0,0,0,1.2.3,4.05,4.05,0,0,0-.9-.5c2.6-3.6,5.3-7.1,8-10.6a5.44,5.44,0,0,1,1.8-1.1c0,.8.3,1.7-.1,2.3a58.48,58.48,0,0,1-3.8,4.9c-3.2,4-2.5,6.3,2.3,8.3,3.1,1.3,5.8,3.6,8.9,4.7a41.37,41.37,0,0,0,9.9,1.3c.3,0,.8-2.1.9-3.2,1.4-8.7,2.9-17.3,3.8-26,.5-4.5,4.1-5,6.6-5.3,2-.3,5.5,1.7,6.5,3.6,3.8,7.9,7,16.1,10.1,24.3,2.9,7.9,4.9,16.2,8.2,24,1.9,4.4,5.5,8.1,8.6,11.9,5.1,6.4,11.6,12,15.5,19.1,3.9,6.8,5,15.2,7.8,22.7,2.5,6.5-3.4,9.7-5.3,14.8a2.27,2.27,0,0,0-.3,1.2l.6-.9c6.3-3.2,12.9,0,19.4-.9,0,0,1,2.7.5,3.2-2.7,3.1-5.7,5.9-8.6,8.8-.4.5-.9.9-1.3,1.4.6.2,1.4.6,1.8.4,2.4-1.4,5.5-2.4,7-4.5,3.2-4.3,9.5-6.1,14-3,.4.2.9,1.2.8,1.3-.9.8-2.1,2.3-2.9,2.1-5-1-7,3.3-10.4,5.1a34.83,34.83,0,0,1-11.5,3.9c-5.5.6-9.6,5.4-9,10.6.4,3.4-.6,6.9-.8,10.3a5.85,5.85,0,0,0,.5,2.2c.5-.6,1.2-1.1,1.4-1.8,4.1-11,13.6-16.7,22.4-22.9,3.5-2.5,7.4.3,8.7,5.7,2,8.7,6.1,11.5,15.4,10,9.1-1.5,18.4-2.7,27.4-5.1,22.6-5.9,42.6-17.8,62.9-29,2.3-1.2,5.2-1.4,7.9-1.9a5.9,5.9,0,0,1,2.4.7c-.5.4-.9,1.1-1.5,1.3-21.4,10.7-41.3,24.6-64.5,31.3-12.7,3.7-25.9,5.9-38.9,8.8-5.6,1.2-8.4,4.3-6.8,9.8a5.78,5.78,0,0,1,.6,1.7c.3,8.5,2.9,7.2,8.7,9.5,5,1.9,10,4,15,6.1.6.3.9,1.3,1.4,1.9-.8.3-1.7,1-2.4.9-4.2-.7-8.4-1.5-12.5-2.3-2.3-.5-4.6-1.2-6.9-1.6a17.1,17.1,0,0,0-3.2,0,13.29,13.29,0,0,0,2.9,2.9,336.53,336.53,0,0,0,47.1,19.1c21.1,6.5,42.2,13.4,63.3,19.7,10.9,3.3,22.1,5.4,33.1,8.3q25.35,6.6,50.5,13.4c5.5,1.5,11.1,3,16.5,4.6,1,.3,1.7,1.5,2.6,2.3-1.2.2-2.4.8-3.4.6-10.1-2-20.4-3.8-30.4-6.3-18.8-4.6-37.7-9.5-56.4-14.7-17-4.8-33.7-10.2-50.7-15.2-2.6-.8-5.4-.9-8.1-1.3a73.44,73.44,0,0,0,7.1,4.2c15.7,6.9,30.2,16,44.6,25.3,11.9,7.7,21.5,17.8,31.4,27.8.9.9,1.2,2.4,1.9,3.7-1.3-.2-2.9.1-3.8-.5-5.2-3.4-10.6-6.4-15.1-10.5a262.78,262.78,0,0,0-64-42.4c-15.3-7.3-31-13.8-46.3-21.1-10.1-4.9-20-10.4-30-15.6a10.43,10.43,0,0,1-2.1-2.1c-1.3-1.4-2-2.5-4.3-.4-2.9,2.6-4.9,1.3-5.5-2.7-.2-1.3-.3-3.2-1-3.5a62.68,62.68,0,0,0-8.4-2.6c.5,1.8.6,3.7,1.5,5.3,6.6,12.5,13.4,24.8,20,37.2,1.5,2.8,2.5,5.7,4,8.4,1,1.8,1.9,4,3.5,5,8.4,5,16.9,9.9,25.5,14.5q31.8,17.1,63.9,34c18.7,9.8,37.6,19.5,56.3,29.3,13,6.9,25.8,14.1,38.9,20.8,5.2,2.6,10.9,4.3,16.3,6.5,1,.4,2.3.9,2.7,1.8a22.06,22.06,0,0,1,.9,4.6,28.11,28.11,0,0,1-3.1-1c-12.7-5.7-25.6-10.9-37.9-17.1-20.2-10.2-39.9-21.3-59.9-31.7-15.1-7.8-30.6-14.8-45.6-22.7-13.4-7.1-26.4-15-39.7-22.5-7.9-4.6-15.9-9-23.9-13.5a11.18,11.18,0,0,1-2.9-1.9,4.72,4.72,0,0,1-.7-1.9,6.1,6.1,0,0,0-1.3,1.5,17,17,0,0,0-.9,2.4c-.7-.8-1.7-1.5-1.9-2.4a70.74,70.74,0,0,1-1.2-8.4c0-.2.5-.2.7,0a2.27,2.27,0,0,0,1.2.3,4.05,4.05,0,0,0-.9-.5c-2.4-4.6-4.9-9-7.1-13.6q-5.1-10.8-9.9-21.9c-4.2-9.4-8.2-18.9-12.3-28.3-.7-1.6-1.2-3.2-1.8-4.8-2.6-7.6-10.1-11.1-18.5-9.6-7.1,1.4-13.3,3.5-17.1,10.2-.2.3-2.2.1-2.3-.1-.7-4.2-1.4-8.4-2-12.6a8.52,8.52,0,0,1,.4-2.3c.7.3,1.7.5,2.1,1,2.4,3.8,5.4,1.1,8.1.6.6-.1.8-1.5,1.2-2.3a21.3,21.3,0,0,0-2.5-.3,20,20,0,0,0-2.4.4c-3.8.6-5.8-1-6-4.9,0-.5-.4-.9-.6-1.4-.1.5-.3.9-.4,1.4-1,6.8-2,13.6-2.9,20.4,6.2,4,.3,7.9-.3,11.8-.1.7-.8,1.5-.7,2.1,1.6,8-3.8,11.7-9,15.8-3.3,2.5-5.6,6.1-8.9,8.5-5.7,4.3-11.9,1.7-13.1-5.3-1.1-6.1-2.8-12.3,2.2-17.7.1-.1-.9-1.7-1.3-1.6-1.7,0-4.4-.1-4.8.7-1.2,2.7-1.5,5.7-2.1,8.6-1.3,6.1-8.1,13-14,14.2a8.87,8.87,0,0,1-10.7-9c0-.3-.9-1-1.3-1-3.3.4-6.8.4-9.9,1.5-4.4,1.4-7-.6-8.8-3.9a33,33,0,0,1-2.9-7.8c0-.2,1-.9,1.6-1.6.5.4.9,1.3,1.5,1.8a27.73,27.73,0,0,0,2.6,1c.3-.9.9-1.7.8-2.5-.6-5.2-1-10.5-2-15.7-1.8-9.3-3.8-18.7-6-28-3.5-14.5-7.3-29-11-43.4-2.2-8.2-4.6-16.4-7-24.6-.4-1.4-1.7-2.5-2.6-3.7a31.91,31.91,0,0,0-1.3,4.4c-1.3,8.8,2.1,16.9,4.2,25.2,1.7,7.2,3.2,14.4,4.7,21.6.2.7.4,1.8,0,2.1-5.2,4.4-10.6,8.7-15.9,13.1-1.4,1.1-3.3,2.3-3.8,3.8-2.6,8.8-5.2,17.6-7.2,26.5-3.6,16.8-6.6,33.6-10.1,50.4-2.1,9.9-4.8,19.6-7.2,29.5-.5,2.4-.4,5.1-1.5,7.3-3.9,8.6-8,17.1-12.3,25.4-5.2,10.1-10.5,20-16,29.9-12.6,23.1-25.3,46.2-37.9,69.3-2.7,4.9-5,10-8,14.7-3.7,5.5-7.8,10.8-12,16-9.7,12.2-19.2,24.5-29.4,36.3-4.5,5.2-10.4,9.3-15.7,13.9-6.6,5.7-13.2,11.3-20,16.9q-7.35,6.15-15,12c-.3.2-1.8-.6-1.9-1.1-.7-4.7,3.5-6.5,6.1-8.8,10.3-9.1,21.1-17.7,31.4-26.7,21.2-18.4,37.9-40.7,53.5-63.8,8.2-12.2,13.9-26.2,21-39.2,9.8-18.1,20-36,29.7-54.2,5.7-10.6,11.9-21.1,16-32.4,4.5-12.5,7.1-25.7,10.2-38.7,3.2-13.2,6-26.5,9.1-39.8,2-8.8,3.9-17.7,6.2-26.4,1.9-7.2,4.9-14,6.6-21.2,1.6-6.9,2.2-13.9,3.1-20.9.8-6,.8-12.1,1.9-17.9,1.6-8.6,3.9-17,5.8-25.5,2.1-8.9,1.7-17-5.8-23.6-2.4-2.2-4.3-5.4-1.8-8.8,1.2-1.5,3.4-3.4,5-3.2,4.5.3,5.4,4.5,5.8,8,.4,3.1-.6,6.3-.8,9.5a6.35,6.35,0,0,0,.5,2.3c.7-.4,1.8-.6,2-1.2a57.78,57.78,0,0,0,2.4-7,23.2,23.2,0,0,0,.5-3.8c.2.2.6.4.7.6.3,1.2.6,2.4.8,3.7a11.84,11.84,0,0,1,.2,2.7c1.3-.9,3.1-1.5,3.7-2.7.4-.9-.2-2.9-1-3.9-5-5.9-10.2-11.7-15.4-17.4-1.8-2-2-1.9-3.1,1.1a20.29,20.29,0,0,1-1.1,2.6c-.1-.9-.5-2-.2-2.8,1.9-5.5-1.9-9.7-3.1-14.4-.7-2.7-2.2-5.2-2.9-7.8-.8-3-1.8-3.6-4.1-1.2-7.2,7.3-14.4,14.6-21.8,21.7-10.2,9.8-20.4,19.5-30.9,28.9-15,13.7-30.2,27.1-45.5,40.5a99.89,99.89,0,0,1-13.3,10.2c-3,1.8-6.8,2.1-10.2,3.2-.5.2-.8,1-1.2,1.5l1.7-.3c5.2-.4,10.9.5,15.3-1.5,6.8-3.2,13.5-2.6,20.4-2.7a15,15,0,0,0,10.3-4.1c9.5-8.3,19.6-15.9,28.9-24.2,11.9-10.7,23.1-22.1,35-32.7,4.9-4.4,10.7-7.8,16.3-11.3,1.3-.8,3.3-.2,5-.3-.8,1.5-1.2,3.3-2.4,4.4-7.5,7-15.1,14-22.8,20.9q-18.75,16.8-37.5,33.5c-1.3,1.2-2.7,2.3-4,3.5,2,.1,4,.3,6.1.2,6.2-.2,12.5-.2,18.7-1,11.2-1.4,22.4-3.3,33.6-5.1,1.7-.2,3.3-.9,5-1,1.5,0,4.1.3,4.2.8.4,2.7-.9,4.6-3.8,4.9a8.56,8.56,0,0,0-2.3.5c-.9.3-1.8.7-2.7,1a10.14,10.14,0,0,0,2.8.9c4-.1,6.2.2,2.4,4.6-1,1.1.2,4-.3,5.9-1.9,6.8,1.7,14.7-4.4,20.7-1,1-.7,3.3-.8,5.1-.2,2.3,0,4.8-.6,7-.9,3.1-2.6,4.4-6.5,3.2s-7.7-1.4-8.1-7.1c-.1-1.4-4.3-2.6-6.3-4.1a2.27,2.27,0,0,0,.3-1.2,3.13,3.13,0,0,0-.5,1,94,94,0,0,0-6.9,10.8c-1.2,2.3,1.4,3.4,3.1,4.1s3.4.6,5,1.1a8.69,8.69,0,0,1,2.6,1.6c-.8.7-1.5,1.9-2.5,2.2-7,2.2-14,4.2-21,6.4-3.2,1-5.9,1.3-9-1.1-2.1-1.7-5.3-2.4-8.1-3.1s-2.1-2.6-2.2-4.5c-.3-5.1-.8-10.3-.9-15.5-.1-1.1,1.2-2.4,2.1-3.8,1.2-.2,2.4.1,3.2-.3a52.35,52.35,0,0,0,5.1-3c.1-.1.1-.5.2-.7a41.62,41.62,0,0,0-5,1.6,20,20,0,0,0-3.7,2.2c-8,1.7-16,3-23.7,5.3-9.5,2.8-18.6,6.4-27.9,9.6a1.7,1.7,0,0,1-1,0c-5.7-.6-11,.1-14.8,5.1-2.2,2.8-4.4,5.6-6.9,8.7a2.27,2.27,0,0,0-.3,1.2l.6-.9c3.7-2.6,7.3-5.4,11.2-7.7,2.1-1.3,5.1-3.1,6.6-2.4,3.3,1.5,4,7.4,2.1,10.7-1.1,2.1-2.4,4.3-3.5,6.5a7.77,7.77,0,0,0-.2,1.6c.3-.1.6-.1.7-.2a60.92,60.92,0,0,1,4.8-5.5,15.64,15.64,0,0,1,.9,1.7c2.5-.4,5.2-.4,7.2-1.7.7-.4-.7-3.9-.8-6a35.28,35.28,0,0,1,0-6.5c.1-1,.3-2.6,1-3,5.3-2.8,10-6.8,16.3-7.6,2.8-.3,5.4-1.6,8.2-1.9,3.1-.4,7.5-1.4,9.2.1a9.59,9.59,0,0,1,1,13.6c-2.7,3.3-5.4,6.7-8,10.1-.2.3.4,1.4.7,2.1.3-.3.8-1,1-.9,2.4,1.1,6.6-2.9,7.1,1.4.3,1.9-3.6,4.8-6.2,6.4s-6.1,2.2-9.1,3.4c-.5.3-.8,1.3-1.2,2,.4.2.9.5,1.4.8a9.14,9.14,0,0,1,1.4.7c-.4.3-.7.9-1.1,1-2.2.1-4.4.2-6.6.2a3.45,3.45,0,0,1-1.1-.5,5.78,5.78,0,0,0,1.4-.5c1.1-.7,2.3-1.5,3.4-2.3a8.08,8.08,0,0,1-2.7-1.1c-2.6-1.8-5.1-3.7-7.9-5.8a1.45,1.45,0,0,0-1.2.3m-90.5-24a.49.49,0,0,1,.5.5,2.8,2.8,0,0,1,1.5-.5,17.72,17.72,0,0,0,4.6-.1c3-.8,5.9-1.9,9.4-2.9,1-.4,2-.7,3-1.1.1-.1.1-.5.2-.7-1,.3-2,.4-3,.8-.3.1-.5.6-1.2,1-4.5,1-9,2-14,3a.49.49,0,0,1-.5-.5c-.4.1-.7.3-1.5.5a2.77,2.77,0,0,0-.1.9,2.1,2.1,0,0,1,1.1-.9m185.5-38.5a1.93,1.93,0,0,1-1-1,44.71,44.71,0,0,1-6.3-1.6c-1.3-.6-2.2-1.9-3.3-2.9.5-.2.9-.5,1.4-.7-.5-.1-.9-.4-1.4-.3-4.4.3-9,.1-13.3,1.1-4.9,1.1-9.5,3.2-14.6,4.9-7,.6-13.9,1-20.8,2.1-4.2.7-8.2,2.4-12.2,3.9-1,.4-1.7,1.6-2.5,2.4,1,.2,2.2.7,3.1.5,3.5-.8,6.8-2,10.3-2.9,7.5-2.1,15-4,23.1-6,2.5-.4,5-.8,7.5-1,4.4-.4,8.8-.8,13.1-1a13.51,13.51,0,0,1,2.8.4,14,14,0,0,1-3.3,1.5c-6.5,1.4-13.1,2.5-19.5,4.1-9.4,2.4-18.8,5.2-28.1,8a9.62,9.62,0,0,0-3,2.3c1.4.6,3,1.8,4.2,1.5,9.9-2.4,19.8-5,29.6-7.9,6.5-2,12.8-4.6,19.2-6.4a2.8,2.8,0,0,1,1.5-.5,86.55,86.55,0,0,1,12.5-.5c.3.1.6.3,1,1h.9a2.25,2.25,0,0,1-.9-1m159-7a4.21,4.21,0,0,1-2-1c-2-4.7-4.1-9.3-6-14a8.63,8.63,0,0,1-.5-4.5c4-3.1-1.1-2.7-1.6-3.9-.3-.8-1.1-1.3-1.6-2-.2,1.1-.8,2.2-.5,3.1a163.08,163.08,0,0,0,4.9,15.9c1,2.2,3.5,3.9,5.3,6.4a3.43,3.43,0,0,1,2,1,5,5,0,0,0,.2,1.2,1.85,1.85,0,0,0,.7-.2,7.66,7.66,0,0,1-.9-2m-80.5,88.5c.1.6.3,1.3.5,2.5h.9a2.25,2.25,0,0,1-.9-1,1.84,1.84,0,0,1,.5-1.5v-1a3.07,3.07,0,0,1-1,1m3-26a1.84,1.84,0,0,1-1.5-.5c-2.5-3.2-.2-2.5,1.7-2.3,2.1.2,4.1.2,6.2.3-1.5-4,2.5-4.9,4.2-7,.8-1,3-.9,4.6-1.3,0,1.2.3,2.5-.1,3.5a64.13,64.13,0,0,1-3.5,7.5c-1.8,3.5-1.6,6.6,1.1,9.6a7.23,7.23,0,0,1,1.6,3.8,22.21,22.21,0,0,1-.3,4.4,32.31,32.31,0,0,0,2-4.2,17.49,17.49,0,0,0,.5-3.3c.6-5.7.9-11.5,2.2-17.1.9-3.5.3-5.9-2.6-7.1-3.3-1.4-6.3-.1-8.7,2.8-1,1.2-2.7,2.7-4,2.7-2-.1-5.3-1.1-5.7-2.4a107.13,107.13,0,0,1-3.7-18.4c.1-1.1.4-2.2.4-3.3a7.54,7.54,0,0,0-.8-2.4,21.12,21.12,0,0,1-.2,2.6,4.31,4.31,0,0,1-1.4,2.1c-4.9-2.3-2.5-6.6-2.1-9.8.4-4.1,2.5-8-.4-11.9a5.56,5.56,0,0,1-.5-2.3,11.11,11.11,0,0,0-1.3,2.7c-.3,1.9,0,3.9-.4,5.8-.3,1.3-1.9,2.6-1.7,3.7,1,5.1,2.6,10.2,3.8,15.3,2.1,8.3,4.4,16.6,5.9,25,1,5.5.7,11.3,1.2,17,.1,1.5.9,2.9,1.4,4.4.5-1.4,1.4-2.8,1.5-4.2a75.28,75.28,0,0,0,0-9.5c-.1-1.8-.6-3.5-.4-5.2a5.29,5.29,0,0,1,2-1v-1a3.07,3.07,0,0,1-1,1m-235-16c-1.1,0-2.2.1-3.3.2.2.3.5.8.6.7,1.1-.2,2.1-.6,3.7-.9v-2a4.71,4.71,0,0,1-1,2m296.5-5.5a3.75,3.75,0,0,0-1-.1,2.73,2.73,0,0,1,1,1.1c.3.8.6,1.6,1,3h.9a2.25,2.25,0,0,1-.9-1,15,15,0,0,1-1-3m9-68h.9a2.25,2.25,0,0,1-.9-1l-2.4-2.4a6.42,6.42,0,0,0-.6,1,12.1,12.1,0,0,1,3,2.4m-10.5-8.5c.8,2.7,1.6,5.5,2.5,8.3,0,.2.4.4.6.6.1-.5.4-1,.3-1.3a60.31,60.31,0,0,1-2.4-7.6v-1a3.07,3.07,0,0,1-1,1m-27.5,4.5h.9a2.25,2.25,0,0,1-.9-1c-.5-.5-.9-1.2-1.5-1.4a40.33,40.33,0,0,0-5-1.1l-.4,1.5a22.53,22.53,0,0,0,4.4,1.4,8.24,8.24,0,0,1,2.5.6M572.3,292.9c-3.2,1-6.4,1.9-9.6,3-.3.1-.5.5-.7.7.3.1.6.3.9.2,3.3-1.3,6.6-2.6,10.4-3.9l1.2-.3a1.85,1.85,0,0,0-.2-.7,12.11,12.11,0,0,1-2,1m-186,36h-9.1c.1.3.1.9.2.9,3,0,6,0,9-.1.1,0,.2-.6.8-.8,1-.6,1.9-1.2,2.8-1.8.2-.2.3-.7.5-1-.3-.1-.8-.3-.9-.2a33.9,33.9,0,0,1-3.3,3m369.5-47.5c-.9-1.9-1.7-3.7-2.5-5.5-.2.2-.6.5-.5.6a46.08,46.08,0,0,0,1.5,5.3c.1.2,1,.1,1.5.6,1.2,3.9,2.5,7.8,3.7,11.8.5,1.4.9,2.9,1.5,4.3.2.5.9.9,1.3,1.3a3.92,3.92,0,0,0,.4-1.8c-.3-6.3-2.8-11.5-6.9-16.6m-82-3c1,1.3,2,2.8,3.1,4.1a2.9,2.9,0,0,0,1.8.5c1.9-.3,3.8-.8,5.6-1.1a20.83,20.83,0,0,1,2.5,0c-.4-1-.5-2.4-1.3-3-3.6-2.6-7.6-3.5-11.7-1.5-5.2-2.9-10.3-6.3-16.6-3.5-1.5.7-3,1.6-4.4,2.4,1.4.5,2.8,1.4,4.3,1.5,5.5.2,11.1.1,16.7.6m-8,41a19.83,19.83,0,0,1-1.5,4.5,2.77,2.77,0,0,0-.1.9,2.1,2.1,0,0,1,1.1-.9c1.5-1.6,3.3-2.9,4.4-4.6,6.2-9.1,5.4-11-5.4-12.3-1-.2-3.4,1.6-3.3,2.3.2,3.8-2.4,9.2,4.8,10.1m60-79h.9a2.25,2.25,0,0,1-.9-1c-.4-1.7-.6-3.5-1.1-5.1-2.3-8.1-4.6-16.1-7-24.1a27.56,27.56,0,0,0-1.8-3.9c-.7,1.3-2,2.6-2.1,4-.2,7.8.7,16.1-4.2,22.7-3.3,4.4-5.1,9.4-6.6,14.2-2.3,7.7-3.1,15.8-4.2,23.8-1.8,12.3-3.5,24.6-5,36.9-1.2,9.1-2,18.2-3.1,27.3-1.2,9.8-3.1,19.5-3.7,29.3-.3,4.9,1.6,9.9,2.8,14.7.4,1.7,1.8,3.1,2.7,4.7.8-1.6,2-3.1,2.2-4.7,1.8-16.3,3.4-32.6,5-48.9,1.4-14.1,2.7-28.3,4.1-42.4.5-5.9.5-12,2.2-17.6,3.3-11,4-22.2,4.7-33.5.2-4,1.9-5.1,5.2-3.3a68.13,68.13,0,0,1,9.9,6.9M299.3,282.9c-8.8-3.4-17.7-6.5-26.4-10.1-15.4-6.3-30.8-12.5-45.9-19.4-5.5-2.5-10.2-6.7-15.3-10.1-.5-.3-1.2-.1-1.7-.2a3.88,3.88,0,0,0,.6,1.1c10.1,8.9,19.5,18.9,30.6,26.3,11.4,7.6,24.2,13.2,36.7,18.8,22.1,10,44.5,19.5,66.9,29,4.7,2,9.7,4.5,14.9,1.1,8.2-5.2,17.3-7.1,26.9-6.6a15.58,15.58,0,0,0,4.2-.8,16.68,16.68,0,0,0-3.3-2.1c-10.5-3.1-21.2-5.8-31.7-9.1-18.6-5.8-37-11.9-56.5-17.9m346.5,66.5c0-1.4.3-2.8-.1-4a16.72,16.72,0,0,0-2.4-3.5,17.73,17.73,0,0,0-.5,3.2c-.1,4.7,0,9.4-.1,14.2-.1.8-1.1,1.6-1.6,2.4a16.13,16.13,0,0,1-1.2-3.5,54.19,54.19,0,0,1,0-5.7c0-2.5-.8-5.3.2-7.3,2.7-5.4,3-10.7,1.7-16.5-1.7-7.9-2.2-16.1-4.2-23.9-1.5-6.1-4.5-11.8-6.9-17.6q-9-22.5-18.1-45a14.77,14.77,0,0,0-2.9-3.8c-.3-.3-1.1-.3-1.6-.3a2.06,2.06,0,0,0-.3,1.3c.9,2.9,1.7,5.9,2.8,8.8,3.1,7.5,6.4,15,9.5,22.5a45,45,0,0,1,1.6,4.8c1.5,4.8,2.8,9.6,4.5,14.2,1.2,3.5,3,6.7,4.5,10.1a4.87,4.87,0,0,1,.2,2.1c-.4-.6-.8-1.1-1.1-1.6-.9-1.2-1.7-2.3-2.5-3.4a11.8,11.8,0,0,0-.5,3.7c1.2,6.1,2.9,12.2,3.9,18.3,1.6,9.9,2,20.1,4.3,29.8,1.2,5.2-1.9,12.4,5.6,15.5a1.61,1.61,0,0,0-.4.7c-.7,2.3-1.4,4.7-2,7.1-.3.9-.3,2.5,0,2.7,1.2.4,3,.9,3.7.3,1.5-1.2,2.6-3.1,3.8-4.8a17.6,17.6,0,0,0,.9-2c.4.6,1.2,1.4,1.1,1.9-1.1,4.3,2.9,4.1,4.8,5.8.4-.6,1.3-1.3,1.2-1.7-2.4-8.1-4.9-16.2-7.9-24.8M421.3,338.9c.2-.3.4-.7.7-.7,10.8-3.2,21.6-6.3,32.4-9.5a16.23,16.23,0,0,0,4.1-2.2c2.5-1.6,4.9-3.4,7.3-5.2,1-.7,2.4-1.2,2.9-2.2a27.78,27.78,0,0,1,6.1-8.5A76.12,76.12,0,0,1,485,302c3.8-2.6,7.2-5.8,10.8-8.7.4-.3.5-.7.8-1.1-.5-.1-.9-.4-1.4-.3-4,.3-8,.4-12,1.1-8.8,1.4-17.6,3.2-26.4,4.9-11,2-21.9,4.1-32.9,6.3a12.83,12.83,0,0,0-2.9,1.4,12.29,12.29,0,0,0,3.3.1c7.8-1.2,15.6-2.7,23.4-3.8,12.5-1.8,25-3.3,37.4-4.9a6.6,6.6,0,0,1,1.4.1,3.7,3.7,0,0,0-.5,1.1c-.8,2.1-1.5,3.4-4.6,2.9-3.3-.5-6.5.1-8,5-1.3,4.2-4.4,9.1-8.1,11.3-8.3,4.9-17.4,8.7-26.3,12.4-6.2,2.5-12.7,3.9-19,6.1-2.5.9-2.4,1.2,1.3,3m298.5-85.5c-1-4.1-2-8.2-3.1-12.3a8.75,8.75,0,0,0-1-2.2c-.3.6-.9,1.2-.9,1.8.1,4.8-.6,9.9.8,14.3,4.4,13.4,9.6,26.6,14.7,39.8,3.6,9.5,7.5,18.9,11.2,28.3,1.8,4.5,3.3,9,5.4,13.3.7,1.5,2.9,2.3,4.4,3.4-.2-1.5,0-3.1-.6-4.4-3.9-10-8.1-19.9-11.9-30-6.5-17-12.7-34-19-52m-83,6-4.5-1.5a5,5,0,0,0-1.5-.2c-1.4,2.9,1.6,7.4,4.7,7.1,5.1-.5,10.5-.5,15.2-2.2,3.5-1.2,6.5-1.7,9.9-.7,1,.3,1.9.8,2.9,1.2a11.65,11.65,0,0,1-2.8,1.7c-7.5,2.1-15,4-22.5,6.1a10.05,10.05,0,0,0-2.4,1.8c1,.4,2.1,1.2,3,1.1,4.3-.8,8.6-1.9,12.8-3,4.8-1.2,9.5-2.8,14.3-3.8,2.4-.5,3-.9,1.9-3.3a34,34,0,0,1-2-7.1,13,13,0,0,1-.2-3.4,19.41,19.41,0,0,1-2.9,2.1c-1.9,1-3.9,2.3-5.9,2.5-6.5.6-13,.7-20,1.6m35.4,102.5c-.8-2.9-1.6-5.8-2.5-8.6a30,30,0,0,0-1.8-4.1c-.4,1.6-.8,3.3-1.1,5a3.64,3.64,0,0,0,.2,1.4c1.8,7.8.4,15.4-2.4,22.7-.6,1.5-1.7,5.7-4.9,1.3-.9-1.1-4.1-.6-6.2-.7-.2,0-.5.3-.7.5a46.17,46.17,0,0,0,4.8,2.8c6.3,2.2,13.9-3.1,14.2-9.6.1-3.4.6-6.8.4-10.7m-230.9-55c-7.8,1-15.5,1.9-23.2,3a85,85,0,0,0-11.2,2.1c-1.1.2-2,1.7-2.9,2.6a18.29,18.29,0,0,0,3.3.2,32.93,32.93,0,0,0,4.4-.5c9.9-1.5,19.8-2.6,29.6-4.7,5-1,9.7-2.8,14.8-.9.5.1,1.1-.3,1.7-.4-.3-.5-.6-1.4-.9-1.4-4.9-.1-9.8,0-15.6,0m-23.5,23.5a5.94,5.94,0,0,0-.8.4c-6.4,2.6-12.6,7.6-19.7,1.4-.5-.4-2.8,1.2-4.3,1.9a18.89,18.89,0,0,1,2.5,1.1c.7.4,1.1,1.3,1.8,1.7,4.4,2.3,9,5.6,13.8,2.8,3.6-2.2,6.3-6,9.5-9.2a5.14,5.14,0,0,0-2.8-.1m230,6c.3.3.8.6.9,1,1.5,8.1,2.9,16.2,4.4,24.3a10.6,10.6,0,0,0,1.1,2.1,8,8,0,0,0,.5-2.1c.8-14-4.3-26.9-7.8-40.1a11.1,11.1,0,0,0-1.7-2.7c.2,1.1.3,2.2.5,3.4.6,4.3,1.4,8.7,2.1,14.1m20-41c-.4-.6-.7-1.1-1.1-1.6-2.7-4-3.9-10.1-11-8-.6.2-1.3.3-1.9.5a17.88,17.88,0,0,1,1.3,1.4c1.6,1.9,3.3,3.8,4.8,5.9a2.72,2.72,0,0,1,.2,2.3c-2,2-.8,2.5,1,3a34.13,34.13,0,0,1,4.6,1c1.3.4,2.6,1,4,1.5-.4-1.4-.8-2.9-1.3-4.3a4.62,4.62,0,0,1-.6-1.7m-218,23a4.49,4.49,0,0,0,1.2-.6c1.5-1.5,3-3.1,4.5-4.7-2.3.2-4.8.1-7,.8-4.5,1.6-8.4,5.8-14,3-1.1-.5-2.9-.2-4.3.1a46.08,46.08,0,0,0-5.3,1.5c2.2.3,4.5.7,6.7,1,1.4.1,3.8-.2,4,.3,1.2,4,3.3,2.1,5.6,1.2,2.6-1,5.4-1.4,8.6-2.6m-58,0c-2.4,0-4.8-.4-7.1.1-6.1,1.3-12.1,2.9-18.1,4.3a15.05,15.05,0,0,1-2.8.5,10.9,10.9,0,0,0,2.4,2.4,3.57,3.57,0,0,0,2.5.1c5-1.1,10-2.3,15-3.4a41.93,41.93,0,0,0,5.1-1.1,6.46,6.46,0,0,0,3-2.9m263-64c-4.6-4.3-9.2-7.8-15.8-3.6-2.6,1.6-5.6,2.5-8.4,3.7a9.06,9.06,0,0,0-1.6,1.1,5.54,5.54,0,0,0,1.8.2c7.8-.3,15.6-.6,24-1.4m25,54c0,2.3-.6,4.8.1,6.9a8.41,8.41,0,0,0,4.3,4.4c3.3,1,3.5-1.6,3.6-4.1.4-8.4-1.2-10.1-8-7.2m-192,1a9.43,9.43,0,0,0-1,1,5.24,5.24,0,0,0,1.7.2c4.9-1.9,9.7-3.7,14.6-5.6,2.2-.8,4.4-1.6,6.4-2.5.6-.3.8-1.3,1.1-2a6.64,6.64,0,0,0-2-.6c-8.3-.6-14.8,3.4-20.8,9.5m8.5,3.5c3.6-1.3,7.2-2.6,10.8-4,.6-.2,1.1-1,1.6-1.6-.6.2-1.3.4-1.9.6-4.3,1.1-8.7,2.2-13,3.4s-8.7,2.6-13,4.1a10,10,0,0,0-3.4,2.4c-.4.3-.4,1.1-.5,1.7a5.91,5.91,0,0,1,1.4-.6c5.6-2,11.3-4,18-6m51.5-9.5c2.9-.2,5.9-.2,8.9-.6,1-.1,2-1.1,3.1-1.6-1.3-.8-2.4-2-3.8-2.3-6.3-1.5-10.9,3.3-16.4,4.7a9.15,9.15,0,0,0-2.8,1.7,5.24,5.24,0,0,0-1,1.1c.6.1,1.2.6,1.7.4a94.83,94.83,0,0,0,10.3-3.4m13,0a26.63,26.63,0,0,0,2,5.6c.9,1.5,2.3,2.5,3.5,3.8.5-1.9,1.6-3.8,1.3-5.5a44.44,44.44,0,0,0-2.9-8.7c-.1-.3-1.6-.5-1.8-.3a16.64,16.64,0,0,0-2.1,5.1m192,18a14.41,14.41,0,0,0-.9,4.5c0,.7,1.5,1.3,2.3,2,1.2-2.4,3.4-4.8,3.3-7s-2.6-4.2-4.4-6c-.5-.4-2.1.2-3.2.3a18.11,18.11,0,0,1,1.8,2.1,15.29,15.29,0,0,1,1.1,4.1m-73.5-51.5a12.1,12.1,0,0,0,1.9-.1c1.2-.1,2.3-.2,3.5-.4l-2.2-2.5c-2.8-3-6.2-1-9.2-.8-.9,0-1.7,3-2.5,4.7a18.73,18.73,0,0,1,3.4-.8,38.18,38.18,0,0,1,5.1-.1m-84.1,37c-.1,1.5-.4,3.1-.4,4.7a17,17,0,0,0,.4,2.2c.8-.4,2.1-.7,2.3-1.3a67.06,67.06,0,0,0,3.1-9.6c.2-.5-1.4-2-2.1-1.9a3.53,3.53,0,0,0-2.6,2c-.5.9-.1,2.2-.7,3.9m106.6,60.5c.4,1.8.6,5.1,1.2,5.2,3.1.4,4.9-1.8,5.2-4.7.1-1.3-.4-3.6-1.2-3.9-2.1-.7-4.3-.2-5.2,3.4m-19-121a10.63,10.63,0,0,1,.9-1.1c-4.8-.5-9.6-1-14.4-1.4a11.38,11.38,0,0,0,0,1.9,55.6,55.6,0,0,0,13.5.6m-41.5,31.5a27.25,27.25,0,0,0-2.5,2.3,17.29,17.29,0,0,1,3.1.7,61.37,61.37,0,0,1,5.9,2.5c1.2.7,2.3,1.6,3.5,2.4-.3-1.5-.2-3.3-.9-4.6a6,6,0,0,0-3.4-2.3c-1.7-.4-3.5-.4-5.7-1m79.5,41.5c-.2-.8-.2-2.3-.4-2.3-3.6-.2-7.3-.2-10.9-.2a3.71,3.71,0,0,0,.4,1.5c2.9,4.3,6.7,1.9,10.9,1m32.5-20.5a29.4,29.4,0,0,0,.5,5.9c.5,1.7,1.8,3.2,2.7,4.8.3-2.3.9-4.6.5-6.7-.2-1.4-2.1-2.4-3.7-4m-42-4a3,3,0,0,0,.5.7c1.3,1.9,2.6,3.8,4,5.7-.4-2.2-.5-4.5-1.1-6.6a17.21,17.21,0,0,0-2-3.8,9,9,0,0,0-1.4,4m30-5c-1.1-1-2.2-1.9-3.2-2.9-.1,1-.7,2.5-.3,2.8,2.6,1.8,5.4,3.4,8.1,5,0,0,.6-.7.5-.7a20.08,20.08,0,0,0-5.1-4.2m-315,54c-3.2-.4-6.4-.7-9.6-1-.1,0-.5.8-.3,1,1.1,1.7,8.6,2,9.9,0m309-15a40.48,40.48,0,0,0,4.9-.1c.5-.1,1-.7,1.6-1.1-1.2-1-2.6-2.8-3.6-2.6-1.3.3-2.3,2.1-2.9,3.8m-293.1,17c-.8.6-2,1.1-2.5,2a9,9,0,0,0-.9,3.4,12.88,12.88,0,0,1,1.7-1.6c1.8-1.9,3.7-3.8,5.6-5.7a16.68,16.68,0,0,1,2.6-1.7,17.42,17.42,0,0,0-1.4-1.4,27.25,27.25,0,0,0-2.5,2.3c-.7.7-1.4,1.4-2.6,2.7m280.1-49c3.1-3,1.1-5.5-.9-7.9a16.88,16.88,0,0,0-3.1-2.1,14.65,14.65,0,0,1,1.4,2.8c.8,2.2,1.4,4.4,2.6,7.2M518.8,281.4c.9.6-2.9,2.9.8,2.4a70.76,70.76,0,0,0,8-1.6c-2.6-.4-5.2-.9-7.9-1.3-.1-.1-.3,0-.9.5m136.5-39.5c-1.2.4-2.4.7-3.5,1.1.7.9,1.4,2.4,2.1,2.3a18.44,18.44,0,0,0,4.9-1.2,11.76,11.76,0,0,0-3.5-2.2m73.5,60.5c-1.2,1.4-2.6,2.7-3.3,4.4-.3.8.6,2.2,1.1,3.3,0,.2,1.1.1,1.1,0a38.52,38.52,0,0,0,1.1-7.7m-84.5-12.5c.5-.8,1.7-2,1.4-2.4a50.67,50.67,0,0,0-3.6-4.5,29.67,29.67,0,0,0,.7,4.3,6.58,6.58,0,0,0,1.5,2.6m99.5,12.5,2.7,1.2c.1-1.4.5-2.9.1-4.2-.2-.4-2.3-.3-3.5-.4.2.8.4,1.6.7,3.4m-54-50c.8.8,1.5,1.6,2.4,2.4.8.6,1.6,1.1,2.4,1.7-.1-1.3.2-3-.5-3.6a4.38,4.38,0,0,0-4.3-.5M506.3,326.9a25.41,25.41,0,0,0,3.9-.1c.5-.1.9-1.1,1.3-1.7a14.94,14.94,0,0,0-4-1.1c-.6,0-1.2,1.5-1.2,2.9m200,9a7.77,7.77,0,0,0-1.6-.2c.8,1.6,1.5,3.3,2.4,4.9.1.2,1-.1,1.6-.2-.7-1.3-1.3-2.7-2.4-4.5m83,24c-.4-.7-.7-1.4-1.1-2l-2.1,2.1c-.8.8-1.5,1.6-2.3,2.4.5.2,1.1.6,1.3.4a17.83,17.83,0,0,0,2.6-2.2,2.55,2.55,0,0,1,1.6-.7m-277-52c1.7-.5,3.5-.9,5.3-1.4-.1-.2-.3-.6-.4-.6-2.2.2-4.4.3-6.6.6-.2.1-.4.7-.7,1,.5.1.9.2,2.4.4m194.5-88.5c.2.4.4.8.6,1.3a27.2,27.2,0,0,0,1.3-4.9c.1-.9-.5-1.9-.8-2.9a11.18,11.18,0,0,0-1.1,2.5,25.77,25.77,0,0,0,0,4m59.5,97.5c-1.5.1-3,.3-4.5.4.1.5.2.9.3,1.4a13.33,13.33,0,0,0,4.2-1.8m-7,0c.4-1.3.8-2.5,1.3-3.7-.5-.1-1.3-.3-1.3-.3a5.05,5.05,0,0,0,0,4m-178-39a7.46,7.46,0,0,1,1.2-.7c-1.9.2-3.9.4-5.9.7-.2,0-.4.5-.5.8a22.77,22.77,0,0,0,5.2-.8m-91.5,62.5c.9-.4,1.9-.7,2.9-1.1-.4-.4-1.1-1.4-1.4-1.3a22.13,22.13,0,0,0-3.5,1.6,2.85,2.85,0,0,0,2,.8m306,10c.2.7.4,1.5.6,2.3.8-1,1.6-1.9,2.4-2.9a3.36,3.36,0,0,0-3,.6M683.3,249.9c.5.6.8,1.6,1.5,1.8.5.2,1.3-.7,2-1.1a15,15,0,0,0-3.5-.7m-220,57a10.89,10.89,0,0,1,2.5-1c1.2-.4,2.5-.5,3.7-.8a21.63,21.63,0,0,0-4.4-.2,2.49,2.49,0,0,0-1.8,2m277.5-36.5c2.3,1.2,3.2.4,3-2.1a3.94,3.94,0,0,1,.5-1.4,30.63,30.63,0,0,1-2.1,2.9c-.1.2-.6.1-1.4.6m9,1a20.28,20.28,0,0,0-1.8-1.3c.3,1.1.6,2.2.8,3.3a2.6,2.6,0,0,0,1-2M584.3,286.9a10.7,10.7,0,0,0-1.4,1.6c1.2-.3,2.4-.6,3.7-1-.2-.4-.5-.9-.7-1.3-.2.2-.4.4-1.6.7m128.5-84.5c-.3-.9-.5-1.7-.7-2.5a5.67,5.67,0,0,0-1.3.8,3.77,3.77,0,0,0,2,1.7m-257,149a20.28,20.28,0,0,0-1.8-1.3c-.2.6-.5,1.2-.7,1.8a5.65,5.65,0,0,0,2.5-.5m145.5-68.5a16.44,16.44,0,0,0,1.4-2.2c.1,0-.4-.4-.7-.6a4.46,4.46,0,0,0-.7,2.8m-183,42a20.24,20.24,0,0,0-.4,2.6c.2,0,.6.1.6,0a2.44,2.44,0,0,0-.2-2.6m291-118a14.31,14.31,0,0,0-1.5,1.1,6.47,6.47,0,0,0,.8.9,2.44,2.44,0,0,0,.7-2m-31.5,87.5c-.3-.5-.5-.9-.7-1.3-.4.8-.9,1.6-1.3,2.4a8.41,8.41,0,0,0,2-1.1m-80.5-5.5c.1-.9.2-1.8.3-2.6,0-.1-.4-.1-.6-.2a4.86,4.86,0,0,0,.3,2.8m-133,24,1.2-.3c0-.2-.1-.6-.2-.6-.5.1-1,.2-1,.9M707.8,210.4a5,5,0,0,0,.2,1.2c.2,0,.6-.1.6-.2-.1-.5-.2-1-.8-1M423.3,319.9a9.25,9.25,0,0,0,.5,1c.1-.4.3-.7-.5-1m316.9-59-.3,1.5c0,.1.4.2.6.2a2,2,0,0,0-.3-1.7m5.6,35.5a5,5,0,0,0,.2,1.2c.2,0,.6-.1.6-.2-.1-.5-.2-1-.8-1m-346,20a2.51,2.51,0,0,0-.7-.4c.1.3.1.6.7.4m2,0a2.51,2.51,0,0,0-.7-.4c.1.3.1.6.7.4m132-10a1.76,1.76,0,0,1,.5.4c0-.3,0-.6-.5-.4m25-9a1.76,1.76,0,0,1,.5.4c0-.3,0-.6-.5-.4m109,47a1.76,1.76,0,0,1,.5.4c0-.3,0-.6-.5-.4m-3.5.5a2.09,2.09,0,0,1,.4-.6c-.3,0-.7,0-.4.6M395.8,317.4a6.13,6.13,0,0,1,.6.4c-.1-.3-.1-.6-.6-.4m201-33a1.76,1.76,0,0,1,.5.4c0-.3,0-.6-.5-.4m91.5-31.5a2.09,2.09,0,0,1,.4-.6c-.3,0-.7,0-.4.6m-264.1,71-.3.6c.2-.1.6-.1.3-.6m246.6-71.5a6.13,6.13,0,0,0-.6-.4c0,.3,0,.6.6.4M426.2,323.9l-.3.6c.2-.1.6-.1.3-.6m343.6,2.5a6.13,6.13,0,0,0-.6-.4c0,.3,0,.6.6.4m-83-100a6.13,6.13,0,0,0-.6-.4c0,.3,0,.6.6.4" transform="translate(-55.7)"/><path d="M390.8,400.9c1.7-3.2,4.1-3.9,7.8-3.2,5.4,1,10.2-.4,14.5-4.5,4.5-4.2,9.9-7.4,14.9-11a14.31,14.31,0,0,1,1.5-1.1c-.5-.4-1-1.2-1.5-1.2-1.6-.1-3.7-.6-4.8.2-4.3,3.2-9.2,6.1-12.1,10.3-2.4,3.7-5.6,4.5-8,3.2-6.1-3.1-11.1.1-16.6.9-4.1.6-7.4,1.2-9.5,5.2-.3.6-4-.1-5.7-1a20.56,20.56,0,0,1-5.6-4.6,3.35,3.35,0,0,1-.3-3.2c.6-.6,2.2-.6,3.3-.6,2.6,0,5.4.8,7.8.1,3.8-1,8-2.3,10.9-4.7a20.2,20.2,0,0,0,6.1-9.9c.7-3.8-4.5-5.2-10.5-2.9a15.73,15.73,0,0,1-2-4.8c1.6-.9,3-1.5,4.3-2.4a2.68,2.68,0,0,0-.2-1.9c-.1-.3-1.2-.6-1.3-.4a50.24,50.24,0,0,0-3,4.5c-4.8,3.9-8.8,7.9-9.5,14.8-.2,2-6,5.4-8.5,4.8-6.8-1.7-12.1,0-15.2,5.5-1.6,2.9-3,1-3.4.7-1.1-.8-2.6-2.8-2.3-3.3,3.2-4.8,1.9-12.1,9.1-14.7,2.7-1,4.5-4.2,6.8-6.3,1.7-1.6,3.4-3.6,5.5-4.5,8.7-3.6,17.5-6.8,26.3-10,1.9-.6,4.2-.4,2.8,2.9-.4.9-.1,2-.1,3.1.6-.4,1.4-.6,1.8-1.2.3-.3,0-1-.1-1.6-.1-1.1-.2-2.2-.2-3.3-.3-5.3,3.1-7.7,8.2-6.3,7,2,14.2,3.6,21.5,5.4-.8,2.8-1.1,5.9-5.4,6.4-1.8.2-1.4,9,.4,10.8,1.2,1.3,2.5,2.5,4,4a2.27,2.27,0,0,0,1.2.3,4.05,4.05,0,0,0-.9-.5c5-5.3,10.8-8.5,18.7-7a2.53,2.53,0,0,1,1,1.7,33.72,33.72,0,0,0-14.6,6.3c-.3.2-.7.4-1,.6a5,5,0,0,0,1.3.3c5.6.7,12.1-2.4,14.6-6.9,1.1,0,2.3-.1,3.4,0a25,25,0,0,1,2.6.7c-.6.8-1.1,1.6-1.7,2.3a27.25,27.25,0,0,1-2.3,2.5c1.2.5,2.5.9,3.8,1.5a22.56,22.56,0,0,1,2.2,1.1,9,9,0,0,1-2.5.8c-2.5-.1-5.6-1.4-7.3-.4-5.1,3.3-9.7,7.5-14.6,11.2a52.8,52.8,0,0,1-8.6,5.6,101.17,101.17,0,0,1-14,5.9c-2.8,1-6,.9-8.8,1a6.09,6.09,0,0,0,.3-2.2c-.8.3-1.7.6-2.8,1h-1.7m15.5-33c5.6.1,4.5-3.6,4-7.1a12.1,12.1,0,0,1-.1-1.9,9.24,9.24,0,0,0-1.4,1.4,72.61,72.61,0,0,1-3.5,7.6,2.77,2.77,0,0,0-.1.9,2.1,2.1,0,0,1,1.1-.9m-10.5-.5a3.75,3.75,0,0,0-1-.1,2.73,2.73,0,0,1,1,1.1,48.26,48.26,0,0,0,3,5.5c.6.7,2.2.7,3.3,1-.1-.9.1-2.2-.4-2.6-1.9-1.6-3.9-3-5.9-4.9m6,9c-2,2.5-3.9,5.1-5.7,7.7-.2.3.3,1,.4,1.5a33.58,33.58,0,0,1,4.3-2c2.3-.8,4.6-1.5,6.9-2.3-1,1.8-2.1,3.5-3.1,5.2-.1.1-.3.2-.3.4-.5.9-.9,1.8-1.3,2.7,1-.2,2.2-.1,3-.6,4.4-2.8,8.6-5.8,12.8-8.8.3-.2.3-.9.5-1.3a11.27,11.27,0,0,0-1.8-.3c-5.3.1-11,3-15.7-2.2m-38.5,6.5c.7.3,1.6,1,2,.8a10.86,10.86,0,0,0,2.5-2.3,16.89,16.89,0,0,0-4.5,1.5m-8.5-2.5,2.5.3c.1,0,.1-.4.2-.6a4.54,4.54,0,0,0-2.7.3m33-17a2.51,2.51,0,0,0-.7-.4c.1.3.1.6.7.4m35,14a2.51,2.51,0,0,0-.7-.4c.1.3.1.6.7.4" transform="translate(-55.7)"/><path d="M308.8,339.9c8.8-4.4,17.1-8.8,25.5-13.1,3.5-1.8,6.4-1.1,9.7,1.4,2.5,1.9,6.5,1.7,9.8,2.7,3.7,1,7.3,2.4,11,3.5,2.8.9,5.7,1.7,8.5,2.4a10.11,10.11,0,0,0,2.3.4,9,9,0,0,1-2.2,2.5c-3.4,1.8-6.9,3.4-10.3,5.2-.6.3-.9,1-1.3,1.5a12.66,12.66,0,0,0,1.8-.6c4.1-1.8,8.1-3.6,12.2-5.4.5-.3,1.3-.5,1.6-.3.5.4,1,1.3.8,1.7-1.7,4.6,1.4,2.9,3.4,2.7,3.1-.3,6.2-.6,9.3-.6.9,0,1.9.9,2.8,1.4a8.27,8.27,0,0,1-2.3,1.5c-5.4,1.1-10.8,2.2-16.2,3-2.5.4-5.3-.5-7.7.1-10.7,2.7-21.2,5.8-31.9,8.6-13.2,3.3-26.3,7.5-40.3,6.5-3.3-.3-4.9-.9-4.6-4.5.1-1.8-.6-3.7-1-5.5-1-5.3,2.5-8,6.2-10,3.9-2.2,8.2-3.5,12.9-5.1m4.5,8c2.3-.7,4.7-1.3,7.1-2.1a14.14,14.14,0,0,0,2.4-1.3c-1-.6-2.1-1.7-2.7-1.5-3.5,1.1-6.9,2.5-10.8,3.9-2.2.4-4.3.8-6.4,1.3,1.5.2,3,.4,4.5.7.1,0,.4-.1.4,0,2.2,2.3,3.6.8,5.5-1m15.5,2.5a1.93,1.93,0,0,1-1-1,99.89,99.89,0,0,1-11-1,3.75,3.75,0,0,0-1-.1,2.73,2.73,0,0,1,1,1.1c-.1,4.7-4.3,4.2-7,5-4.6-.2-9.1-.5-13.6-.3-.9,0-1.6,1.8-2.4,2.8.9.3,1.9,1,2.8.9,3.4-.2,7.1-1.7,10-.7,5.3,1.7,8.9-.1,12.6-3.1,1.2-1,3.3-2,4.5-1.6,5.9,2.2,8.1,2,13.2-1.1a36.28,36.28,0,0,1,8.5-3.2c2.4-.6,5.1-.4,7.5-1,1.1-.3,1.9-1.8,2.8-2.7-1.2-.1-2.5-.6-3.6-.3-3.3.8-6.9,3.2-9.8,2.4-3.4-.9-5.2.1-7.6,1.8a16.75,16.75,0,0,1-5.9,2.1m15.5-10.5c2-.7,4-1.4,6.1-2a53.62,53.62,0,0,1,5.4-1.4c-2.1-.6-4.2-1.2-6.3-1.6a4.85,4.85,0,0,0-2.7.5c-4.9,2.9-10.3,3.8-15.8,4.5a15.37,15.37,0,0,0-3.2,1.5c1.2.8,2.6,2.5,3.5,2.3,4-1,8-2.5,13-3.8m-7-7a27.25,27.25,0,0,1,2.5-2.3c-.3-.1-.7-.4-.9-.4-1.7.4-3.3.9-5,1.3a11.49,11.49,0,0,0,3.4,1.4" transform="translate(-55.7)"/><path d="M535,524.9c7-10.2,15.9-19.5,21.2-30.6,6.7-13.9,10.5-29.3,15.6-44,3.3-9.8,6.8-19.5,10.3-29.3,3.2-8.9,4.4-18.2,4.8-27.7.6-14.6,1.8-29.2,2.9-43.7a155.49,155.49,0,0,1,2.1-16.7c.3-2,2-3.8,3-5.7.3.5.8,1,.8,1.5-.3,5.5-.6,11-.9,16.6-.1.8,0,1.6-.1,2.5-.6,20.5-1.3,41.1-2,61.6a9,9,0,0,1-.7,2.7c-7.1,19.1-14.1,38.2-21.3,57.2-3.9,10.5-6.9,21.6-12.3,31.4-4.7,8.5-12,15.7-18.4,23.2-.8,1-3.1.7-5,1" transform="translate(-55.7)"/><path d="M881.5,228.9c.9,6-2.5,10.8-4.8,15.8a275.91,275.91,0,0,1-29.5,49.7c-9,12.2-20.6,22.5-31.1,33.6-4,4.2-8.2,8.3-12.4,12.3-.7.7-2,.6-3.1.9,0-1.2-.5-3,.1-3.7,5.3-5.3,10.8-10.4,16.3-15.6,2.8-2.8,5.9-5.3,8.4-8.3,9.2-11.1,19-21.9,27.2-33.7a267.91,267.91,0,0,0,27.2-49.2,5.73,5.73,0,0,1,1.7-1.8" transform="translate(-55.7)"/><path d="M543.8,272.9c-2.3-.1-4-.1-5.7-.2,1.7-1.3,3.3-3.2,5.2-3.7,4.4-1.1,9.1-1.2,13.6-2.2,10-2.2,20.1-4.5,30-7.1,1.5-.4,3.6-2.6,3.7-4,.4-7,.1-14.1.2-21.1,0-1.2.8-2.3,1.2-3.5a26.06,26.06,0,0,1,1.7,2.8c4.7,8,2.2,16.6,1.5,24.8-.5,5-6.4,5.9-10.3,7-8.7,2.2-17.6,3.5-26.5,5.1-2.8.5-5.7.7-8.6,1.1-1.8.2-3.7.6-6,1" transform="translate(-55.7)"/><path d="M505.8,364.9H502a15.68,15.68,0,0,1,3.5-3.8,2.27,2.27,0,0,0,1.2.3,4.05,4.05,0,0,0-.9-.5,13.11,13.11,0,0,1,2.8-2c5-1.8,10-3.4,15-5.1,2.9-.9,3.2-1.9,2.2-4.7-.1-.5,1-1.5,1.7-2,.3.3.3.8,0,.8a1.1,1.1,0,0,0-.3.9,3.24,3.24,0,0,1,.8-.9,5.77,5.77,0,0,0,.8-1c1.4-.6,2.7-1.6,4.2-1.7a25.18,25.18,0,0,1,5.4.8,39.74,39.74,0,0,0-3,2.8c-7.4,8.2-17.7,10.7-27.4,14.3-.7.3-1.2,1.2-2,1.5a2.27,2.27,0,0,0-1.2-.3,8.79,8.79,0,0,0,1,.6" transform="translate(-55.7)"/><path d="M492.5,367.9c1.1,5.3-3.9,5.5-6.7,7.2-4.4,2.8-9.3,4.9-14,7.2a26.17,26.17,0,0,1-4.8,1.3c.9-1,1.8-2.1,2.6-3.1.5-.6.8-1.3,1.3-1.6a20.28,20.28,0,0,0,6.9-9.6c.6-1.7,2-3,3.1-4.4.1-.2.9,0,1.4,0-.2.5-.2,1.1-.5,1.4-1.6,1.6-3.7,3.3-.9,5.1,3,1.9,6.2-.8,6.6-2.6,1.1-5,3-1.7,5-.9" transform="translate(-55.7)"/><path d="M570.5,336.6c-9.3,3.7-18.4,7.1-27.5,10.4-.8.3-1.8-.1-2.7-.1a7.28,7.28,0,0,1,1.7-1.8c7.2-3.2,14.4-6.3,21.5-9.6,3.1-1.4,5.9-3.3,9-4.8,1.2-.6,2.7-.4,4-.6a22.26,22.26,0,0,1-1.9,2.4l-4.1,4.1" transform="translate(-55.7)"/><path d="M355.5,395.1a2.33,2.33,0,0,0-1.3.7c-.1-.6-.1-1.1-.2-1.7,2.4-.1,4.7-.5,7-.1,1.3.2,2.4,1.6,3.6,2.5a64.69,64.69,0,0,1-5.6,4,5,5,0,0,1-3.2.3,25.49,25.49,0,0,1-3.9-1.3,14.59,14.59,0,0,0,3-1.7c.6-.5.6-1.6.6-2.7" transform="translate(-55.7)"/><path d="M598,323.9c4.2-6.5,11.3-5.2,17.7-6,.6,0,1.3.9,1.9,1.3-.5.6-.9,1.5-1.5,1.6-2.2.5-4.5.7-6.7,1.1-3.7.6-7.4,1.3-11.4,2m13.3-4c-.2.2-.3.4-.5.6.3-.1.7-.1.5-.6" transform="translate(-55.7)"/><path d="M459.5,384.9c-3.6,2.4-7.4,4.6-12.5,4-.1-1.1-3.5-2.8.6-3.2,2.5-.2,4.9-2,7.5-2.5,1.2-.2,2.7,1.1,4.4,1.7" transform="translate(-55.7)"/><path d="M443.8,391.9c-2.7,1.1-5.4,2.4-8.1,3.4-.8.3-2-.3-2.9-.5.6-1,1-2.6,1.9-2.8a32.1,32.1,0,0,1,7.8-.9,11.65,11.65,0,0,0,1.3.8" transform="translate(-55.7)"/><path d="M394.8,401.9c-2.8,1.3-5.4,2.9-8.2,3.8-1,.4-2.5-.8-3.8-1.3,1.1-.8,3-2.5,3.2-2.3,2.3,2,3-.2,4.5-1a4.58,4.58,0,0,1,.6,1.6,11.06,11.06,0,0,1,1.9-1.8,6.07,6.07,0,0,1,1.8,1" transform="translate(-55.7)"/><path d="M669,216.6c-2.4.2-5.1.2-7.8.2a1.5,1.5,0,0,1,.2-1c.6-.7,1.5-2,2-1.8a27.63,27.63,0,0,1,5.6,2.6" transform="translate(-55.7)"/><path d="M380.5,406.6a4.48,4.48,0,0,1-1.9.9c-2.2-.2-4.3-.5-6.5-.8-.2-.1-.2-.9-.3-1.3,2.1.1,4.2.1,6.3.3a4.65,4.65,0,0,1,2.4.9" transform="translate(-55.7)"/><path d="M493,367.9a35.34,35.34,0,0,1,3.5-3.3,2.27,2.27,0,0,0-.3,1.2l.6-.9h4.7c-2.6,1-5.4,2-8.5,3" transform="translate(-55.7)"/><path d="M622.7,330.1a36.54,36.54,0,0,1,1.1,5.2,22.34,22.34,0,0,1-.2,3.6c-.6-1.4-1.6-2.7-1.7-4-.2-1.5.5-3,.8-4.8" transform="translate(-55.7)"/><path d="M382.5,372.9c-.9,1.5-.9,4.7-4.5,3a43.89,43.89,0,0,1,4.5-3" transform="translate(-55.7)"/><path d="M625.8,359.1a16.64,16.64,0,0,1,1.8,2.4,5.64,5.64,0,0,0-1.2.4c-.2-.9-.4-1.7-.6-2.8" transform="translate(-55.7)"/><path d="M442,384.9c-.2,0-.2-.5-.2-.8a5.07,5.07,0,0,1,1.8-.9c-.1.9-.2,1.8-.3,2.6a7.3,7.3,0,0,0-1.3-.9" transform="translate(-55.7)"/><path d="M527.8,346.9a7,7,0,0,0-.8-2,3.18,3.18,0,0,1,1-1,7.22,7.22,0,0,1,.5,2.7.94.94,0,0,1-.7.3" transform="translate(-55.7)"/><path d="M442.8,390.9a13,13,0,0,1,1.5-1,2.89,2.89,0,0,1-.3,1.7,5.69,5.69,0,0,0-1.2-.7" transform="translate(-55.7)"/><path d="M622.8,329.6a12.24,12.24,0,0,1-1-2.3c.2-.1.5-.1.7-.2.1.7.2,1.5.3,2.5" transform="translate(-55.7)"/><path d="M525,345.9a3.56,3.56,0,0,1,1.5-1,4.16,4.16,0,0,1-1.5,1" transform="translate(-55.7)"/><path d="M524.5,345.9a7.3,7.3,0,0,1-1.3.9,1.85,1.85,0,0,1-.2-.7,5.42,5.42,0,0,1,1.5-.2" transform="translate(-55.7)"/><path d="M441.8,383.6a4.65,4.65,0,0,1-2-.3,4.65,4.65,0,0,1,2,.3" transform="translate(-55.7)"/><path d="M524.5,349.6a2,2,0,0,1-.6-1.3c0-.1.4-.2.6-.2a2.5,2.5,0,0,1,0,1.5" transform="translate(-55.7)"/><path d="M425.8,366.9c-.4-.4-.2-.7,0-1,.1.3.3.6,0,1" transform="translate(-55.7)"/><path d="M421.8,361.9c-.4-.4-.2-.7,0-1,.1.3.3.6,0,1" transform="translate(-55.7)"/><path d="M625.8,358.6a1.21,1.21,0,0,1-1-.3,1.43,1.43,0,0,1,1,.3" transform="translate(-55.7)"/><path d="M625,356.1c.3.1.3.4.3.7a.78.78,0,0,1-.3-.7" transform="translate(-55.7)"/><path d="M425.5,355.9c.1.3-.1.6-.3.9a1.1,1.1,0,0,1,.3-.9" transform="translate(-55.7)"/><path d="M420.5,363.6c-.3,0-.3-.3-.4-.6.3.1.4.2.4.6" transform="translate(-55.7)"/><path d="M625.5,352.6c-.3,0-.3-.3-.3-.6.2.1.3.2.3.6" transform="translate(-55.7)"/><path d="M628.8,365.6a1.21,1.21,0,0,1-1-.3,1.43,1.43,0,0,1,1,.3" transform="translate(-55.7)"/><path d="M625,349.1c.3.1.3.4.3.7a.78.78,0,0,1-.3-.7" transform="translate(-55.7)"/><path d="M377.5,375.9c.1.3-.1.6-.3.9a1.1,1.1,0,0,1,.3-.9" transform="translate(-55.7)"/><path d="M486.8,348.9c-.4.1-.7.3-.8.2a1.72,1.72,0,0,1,.8-.2" transform="translate(-55.7)"/><path d="M460,384.9a1.21,1.21,0,0,1,.3-1,1.43,1.43,0,0,1-.3,1" transform="translate(-55.7)"/><path d="M441.5,384.9c.1.3-.1.6-.3.9a1.1,1.1,0,0,1,.3-.9" transform="translate(-55.7)"/><path d="M446.5,388.9c.1.3-.1.6-.3.9a1.1,1.1,0,0,1,.3-.9" transform="translate(-55.7)"/><path d="M521,345.6c0-.3.4-.3.7-.3-.2.2-.3.4-.7.3" transform="translate(-55.7)"/><path d="M431,393.6c0-.3.4-.3.6-.3a.44.44,0,0,1-.6.3" transform="translate(-55.7)"/><path d="M350.5,398.6c-.3,0-.3-.3-.4-.6.3.1.4.2.4.6" transform="translate(-55.7)"/><path d="M563.5,318.6c-.3,0-.3-.3-.3-.6.2.1.3.2.3.6" transform="translate(-55.7)"/><path d="M785.8,418.6a1.21,1.21,0,0,1-1-.3,1.43,1.43,0,0,1,1,.3" transform="translate(-55.7)"/><path d="M534.5,524.9c.1.3-.1.6-.3.9a1.1,1.1,0,0,1,.3-.9" transform="translate(-55.7)"/><path d="M772,291.1c.3.1.3.4.3.7a.78.78,0,0,1-.3-.7" transform="translate(-55.7)"/><path d="M561.5,319.6c-.3,0-.3-.3-.3-.6.2.1.3.2.3.6" transform="translate(-55.7)"/><path d="M624.5,341.9c.1.3-.1.6-.3.9a1.1,1.1,0,0,1,.3-.9" transform="translate(-55.7)"/><path d="M472,342.9a1.21,1.21,0,0,1,.3-1,1.43,1.43,0,0,1-.3,1" transform="translate(-55.7)"/><path d="M625,341.9a1.21,1.21,0,0,1,.3-1,1.43,1.43,0,0,1-.3,1" transform="translate(-55.7)"/><path d="M597.5,323.9c.1.3-.1.6-.3.9a1.1,1.1,0,0,1,.3-.9" transform="translate(-55.7)"/><path d="M882,228.9a1.21,1.21,0,0,1,.3-1,1.43,1.43,0,0,1-.3,1" transform="translate(-55.7)"/><path d="M621.5,325.6c-.3,0-.3-.3-.3-.6.2.1.3.2.3.6" transform="translate(-55.7)"/><path d="M884,223.6c0-.3.4-.3.7-.3-.2.2-.3.4-.7.3" transform="translate(-55.7)"/><path d="M442,367.9a1.21,1.21,0,0,1,.3-1,1.43,1.43,0,0,1-.3,1" transform="translate(-55.7)"/><path d="M633.5,309.1a14.77,14.77,0,0,1,.3,2.7c.1,1.7.4,3.3.6,4.9a25.21,25.21,0,0,1-2.4-4.2,19.12,19.12,0,0,1-.2-4.8c0-.2.5-.4.8-.5a10.14,10.14,0,0,0,.9,1.9" transform="translate(-55.7)"/><path d="M632.5,305.1c0,.3-.4.3-.7.4.2-.2.3-.4.7-.4" transform="translate(-55.7)"/><path d="M654.8,312.1c.3-.1.6.1,1,.5-.4.1-.7-.1-1-.5" transform="translate(-55.7)"/><path d="M660.5,341.9c.3,0,.3.5.3.7a.61.61,0,0,1-.3-.7" transform="translate(-55.7)"/><path d="M566.8,286.6c0,.3-.5.3-.8.3a.69.69,0,0,1,.8-.3" transform="translate(-55.7)"/><path d="M666,318.9a1.21,1.21,0,0,1,.3-1,1.43,1.43,0,0,1-.3,1" transform="translate(-55.7)"/><path d="M730.8,259.6a1.21,1.21,0,0,1-1-.3,1.43,1.43,0,0,1,1,.3" transform="translate(-55.7)"/><path d="M309.5,354.9c.1.3-.1.6-.3.9a1.1,1.1,0,0,1,.3-.9" transform="translate(-55.7)"/><path d="M327.8,351.1c0-.2.5-.2.7-.2a.75.75,0,0,1-.7.2" transform="translate(-55.7)"/><path d="M327.5,349.9c.3,0,.3.5.3.7a.61.61,0,0,1-.3-.7" transform="translate(-55.7)"/><path d="M312.8,347.6a1.21,1.21,0,0,1-1-.3,1.43,1.43,0,0,1,1,.3" transform="translate(-55.7)"/><path d="M309.8,347.1c.3-.1.6.1.9.3a1.1,1.1,0,0,1-.9-.3" transform="translate(-55.7)"/></g><g id="Manchas-2" data-name="Manchas"><path class="cls-7" d="M778.55,403.08l6.69-3.73L796,420.16l-7.06,9.74q-1.46-5-2.92-9.92l-3.75-8.25Q780.4,407.41,778.55,403.08Z" transform="translate(-55.7)"/><path class="cls-7" d="M895.43,484.22l2.36-4.69,17.56,9.12-2.48,4.57Z" transform="translate(-55.7)"/><path class="cls-7" d="M848.33,399.43q.43-1,21.61,6.76l-1,4.5Q847.89,400.48,848.33,399.43Z" transform="translate(-55.7)"/><path class="cls-7" d="M922.36,422.14l14.45,3.52L935,430.37l-13-3.6Z" transform="translate(-55.7)"/><path class="cls-7" d="M1008.36,449.61l7.44-1.41,0,21.66-13,7.5.75-18.75Z" transform="translate(-55.7)"/><path class="cls-7" d="M580.49,180l3.18,4.1,4.31,3.75,4.85-4.37-6-3.72Z" transform="translate(-55.7)"/><path class="cls-7" d="M708.32,193.73l.85,1.65h0l3.63,7L720,202l-2.39-5.18-4.3-3.28" transform="translate(-55.7)"/><path class="cls-7" d="M590.78,222.42l11.75,2.07c-.39-1.44-.78-2.89-1.16-4.33l-4.57-3.06Z" transform="translate(-55.7)"/><path class="cls-7" d="M559.64,433.31l7.62.4-9.91,21.39-6.6,1.2Q555.19,444.81,559.64,433.31Z" transform="translate(-55.7)"/><path class="cls-7" d="M478.2,585.53l3.69,3.31-22.84,28.58L454.44,615Z" transform="translate(-55.7)"/><path class="cls-7" d="M585.09,410l7.16.71q-5.38,14.94-10.76,29.88l-6.23-.32Q580.18,425.1,585.09,410Z" transform="translate(-55.7)"/><path class="cls-7" d="M590.69,340.72c.39.47,1.41,1.17,4.46.51.19-4.32.49-11.09.49-11.09h0l.06-1.44C595.1,329.47,588.45,338.07,590.69,340.72Z" transform="translate(-55.7)"/><path class="cls-7" d="M397.3,336.9a191.78,191.78,0,0,0,30.56,11.27L426,355.9l-40.73-14.43,5.91-7.58C393.16,334.91,395.2,335.92,397.3,336.9Z" transform="translate(-55.7)"/><path class="cls-7" d="M246.49,273.83l18.12,9.44q-1,3.36-2.05,6.72l-21-12.48Z" transform="translate(-55.7)"/><path class="cls-7" d="M144.78,157.53l4.57-1S144,140.94,144,140.94h0l-.62-1.83-3.17,4.24Z" transform="translate(-55.7)"/><path class="cls-7" d="M151.35,176.06l4.89-.68q2.4,4.83,4.81,9.67l10.32,15.55-9.87-2.9Z" transform="translate(-55.7)"/><path class="cls-7" d="M55.8,30.73l6,1.45L60.6,5.6h0L55.86,7.86Z" transform="translate(-55.7)"/><path class="cls-7" d="M57.9,41.94l5.89.41q4.4,17.65,8.8,35.3L68,82,62.23,59.23Q60.07,50.59,57.9,41.94Z" transform="translate(-55.7)"/><path class="cls-7" d="M81.83,110.11l4.48-2.81L98.7,125.55c-1,1.52-2.06,3-3.08,4.55Z" transform="translate(-55.7)"/><path class="cls-7" d="M153.12,197l.78-5.57,27.54,20.47-3.36,6.76Z" transform="translate(-55.7)"/><path class="cls-7" d="M367.44,299,399,307.54l-2.42,4.94-32.41-9.18Z" transform="translate(-55.7)"/><path class="cls-7" d="M272.9,272.8c-.74-2.28-1.47-4.56-2.21-6.84l-26.84-11.61q-.45,3-.92,6Z" transform="translate(-55.7)"/><path class="cls-7" d="M439.48,379.42c1.09-1.15,2.44-.53,6.41-.95,2.92-.31,3.94-.83,4.35-.26.59.8-.62,2.87-2,4a7.4,7.4,0,0,1-5.34,1.41c-1.08-.08-3.54-.24-4.08-1.69A2.65,2.65,0,0,1,439.48,379.42Z" transform="translate(-55.7)"/><path class="cls-7" d="M392.51,366.64c-.18,3.32-.51,4.66-.84,7.45-1.16,9.85.79,11.87-.7,14.91-1.32,2.68-5.11,5.73-16.88,6.05a9.84,9.84,0,0,1,3.1-4.08c2.37-1.78,3.93-1,5.62-2.67s.47-2.93,2.39-6.75c1.37-2.71,2.48-3,3.52-5.91a27.35,27.35,0,0,0,.83-3.79c1.22-5.62,2.4-6.73,2.75-11,.15-1.84.05-3.1.1-3.1A54,54,0,0,1,392.51,366.64Z" transform="translate(-55.7)"/><path class="cls-7" d="M356,376.2c.77-.23,1.9.54,2.39,1.41,2.14,3.71-5,13-7.17,12.18-1.15-.44-1.42-4.11,0-6.42.83-1.35,1.58-1.14,2.67-2.81C355.3,378.34,354.93,376.51,356,376.2Z" transform="translate(-55.7)"/><path class="cls-7" d="M353.7,396.87c.36-.54,1.26-.09,3.52-.28,2.84-.24,3.19-1.12,4.36-.7,1.47.52,1.15,2,3.23,4.36,1.79,2,3.26,2.36,3.1,2.95-.26.93-4,.83-6.89.14a10.79,10.79,0,0,1-5.22-2.54C354.6,399.67,353.16,397.7,353.7,396.87Z" transform="translate(-55.7)"/><path class="cls-7" d="M412.91,400.11" transform="translate(-55.7)"/><path class="cls-8" d="M430.11,376.11a35.27,35.27,0,0,0,7-14.11,34.68,34.68,0,0,0,.89-9.06l4.87-4.21c1.3,1.41,11.15,12.32,7.87,23.63-.51,1.76-1.85,6.4-6,8.25C440.43,382.53,434.6,380.79,430.11,376.11Z" transform="translate(-55.7)"/><path class="cls-9" d="M479.8,327.4c8,1,14.46,6.56,16.31,13.83,2.6,10.22-5.47,17.92-6.38,18.75-7.36,6.8-16.78,5.45-18,5.25-1.76-5.94-1.23-10.25-.37-13.12,1.47-4.93,4.17-6.61,6.37-12A29.64,29.64,0,0,0,479.8,327.4Z" transform="translate(-55.7)"/><path class="cls-10" d="M523.11,343.48A60.26,60.26,0,0,0,522.2,315c3.54,1.32,13.62,5.6,17.41,15.39.82,2.12,2.14,5.55.67,8.57C538.22,343.17,531.36,345.18,523.11,343.48Z" transform="translate(-55.7)"/><path class="cls-11" d="M565.34,298.94c1.43.88,8.41,5.37,10.27,14.17a21.39,21.39,0,0,1-.62,10.94L556.48,333c-1.27-6.55-.19-11,1.1-13.89,1.88-4.25,4.56-6,6.4-11.23A24.92,24.92,0,0,0,565.34,298.94Z" transform="translate(-55.7)"/><path class="cls-7" d="M445.65,386.9a14.14,14.14,0,0,1,7.2-3,14.33,14.33,0,0,1,9.41,2.33l-12.38,4.59Z" transform="translate(-55.7)"/><path class="cls-7" d="M472.58,381.7c3.1-8,6-10.11,8.32-10.3,1.69-.14,3,.76,4.67-.15,2.39-1.33,1.88-4.59,3.84-5.14,1.34-.37,2.87.79,3.59,1.79a5.5,5.5,0,0,1-.6,6.57l-9,3.42Z" transform="translate(-55.7)"/><path class="cls-7" d="M521.7,357.25a6.22,6.22,0,0,1,1.76-3.2c1-.93,1.57-.72,2.42-1.52,1.64-1.51.69-3.28,2-5.07s3.66-2.08,5.15-2.26a11.37,11.37,0,0,1,7.3,1.7l1,1.46a15.73,15.73,0,0,1-3.92,3.14c-3.13,1.74-4.22.85-7.9,2.76a24,24,0,0,1-4.42,2.24A17.87,17.87,0,0,1,521.7,357.25Z" transform="translate(-55.7)"/><path class="cls-7" d="M561.19,341.52c.48-4.36,2.36-6.3,3.26-7,.55-.47,1.4-1,6.3-2.64,2.37-.77,4.36-1.34,5.75-1.73a7.6,7.6,0,0,1-1.56,5.56,7.76,7.76,0,0,1-6.22,2.71Z" transform="translate(-55.7)"/><path class="cls-7" d="M379.86,409.75c1.76-3,3.62-4,4.92-4.44,3.63-1.21,5.41,1.56,10.41.85,3.7-.53,6.11-2.53,7-1.55.48.51.24,1.53,0,2.24l-10.54,2-7.32.81Z" transform="translate(-55.7)"/><path class="cls-7" d="M726.36,241.48a65.73,65.73,0,0,1,19,23.14,70.73,70.73,0,0,1,10.26,11.7,59.78,59.78,0,0,1,7.1,12.93,57.09,57.09,0,0,1,3.81,17.48l-3.73,5.72-9.48-29.34q-6-9.15-13.22-18.85-6.24-8.35-12.38-15.75l-3.14-3.64-1.44-5.61Q724.77,240.3,726.36,241.48Z" transform="translate(-55.7)"/><path class="cls-7" d="M706.54,233.52l-11.7-3.4a86.06,86.06,0,0,0-40.76,7.43L630.6,254.5l5.19.05,11-8,10.41-7,21.09-5.62,13.22-.84,12.94,2.81Z" transform="translate(-55.7)"/><path class="cls-7" d="M770.23,312.34c1,1.48,2.07,3.08,3.1,4.8a81.16,81.16,0,0,1,4.5,8.72l4.22.84q-1.56-4.63-3.1-9.28l-2.8-4.59Z" transform="translate(-55.7)"/><path class="cls-7" d="M765.17,322.48v3.94l-4.22,4.5.56-7.59Z" transform="translate(-55.7)"/><path class="cls-7" d="M788,321.08c-.9.34-1,2.83-.28,6.18l3.66-3.37C791.05,323.49,789,320.67,788,321.08Z" transform="translate(-55.7)"/><path class="cls-7" d="M754.67,328c.12,0,.28,2.05.46,6.16l4.7,2.15-5.52,3.84C754.38,332,754.49,328,754.67,328Z" transform="translate(-55.7)"/><path class="cls-7" d="M812.8,379.9c.34-1,.69-2.09,1-3.14l6.14.83-.57,3.65Z" transform="translate(-55.7)"/><path class="cls-7" d="M675.45,304.2l.56-5.34a6.42,6.42,0,0,1,4.5-.28c.44.15,1.7.64,4.79,4.78,1.06,1.42,1.86,2.63,2.37,3.43l-1.26,20.48a58.82,58.82,0,0,0-10.68-13.51c-1.26-1.15-3.64-3.19-3.37-5.62C672.57,306.29,674.23,305,675.45,304.2Z" transform="translate(-55.7)"/><path class="cls-7" d="M715.11,304.76c.23.67.67,1.91,1.69,2.25,2.28.79,6.77-3.23,5.9-5.9-.63-2-4.27-3.52-6.47-2C714.4,300.43,714.55,303.19,715.11,304.76Z" transform="translate(-55.7)"/><path class="cls-7" d="M714.26,327c.31.2,1.94,1.29,2,2.82,0,1.83-2.23,4-5.69,4l-.39-8.46Z" transform="translate(-55.7)"/><path class="cls-7" d="M727.2,277.48a11,11,0,0,0-1.69,9,10.88,10.88,0,0,0,9.29,7.6Q731,285.79,727.2,277.48Z" transform="translate(-55.7)"/><path class="cls-7" d="M673.76,261.73c1.31-1.29,3.73-2.76,5.07-2,.95.57.4,1.7,1.4,3.94a10.72,10.72,0,0,0,3.94,4.5,11.66,11.66,0,0,0,4.22,1.69c2.53.47,3.8-.2,4.46.61a2.9,2.9,0,0,1-.7,3.68c-2.89,1.61-8.62-8.81-15.57-7.67-2.7.45-4.21,2.41-5.07,1.69S671.61,263.85,673.76,261.73Z" transform="translate(-55.7)"/><path class="cls-7" d="M652.44,318.14c5.73-6.09,7.64-6.21,8.39-5.78s.56,1.66.84,5.62c.45,6.27,1.26,6.76.84,9-.3,1.63-1.34,4.73-5.9,7.88Z" transform="translate(-55.7)"/><path class="cls-7" d="M612.45,280.58q-1.26,7.73-2.53,15.47v12.09l8.08-2.66Z" transform="translate(-55.7)"/><path class="cls-7" d="M622.69,279.06l3.18-4q3.93,9.65,7.85,19.3l-3.27,3.39Q626.57,288.4,622.69,279.06Z" transform="translate(-55.7)"/><path class="cls-7" d="M612.17,320.8l7-8.71,1.11,6.41Z" transform="translate(-55.7)"/><path class="cls-7" d="M350.61,404.33q1.93,2.49,3.86,5c.63.54,1,1,.92,1.18-.38.69-7.28-1.31-7.31-3.65C348.07,406.47,348.25,405.51,350.61,404.33Z" transform="translate(-55.7)"/><path d="M362.15,365.53a214,214,0,0,0-16.52,15c-2.62,2.66-5,5.21-6.27,6.6-4.49,4.85-8.12,9-10.71,12.06a62.48,62.48,0,0,0,18.3,9.32,63.46,63.46,0,0,0,32.91,1.2l-33.75-9.64L348.36,390Z" transform="translate(-55.7)"/><path d="M337.42,394.8l-16.31,8.12-1.35,4,2.28,2.51,19.84-7.58Z" transform="translate(-55.7)"/><path d="M337.6,394.86l-17.9,3.41-2.38,3.5,1.51,3L340,402.87Z" transform="translate(-55.7)"/><path class="cls-12" d="M320.53,404.65l12.59-2.41" transform="translate(-55.7)"/></g></svg>