<?xml version="1.0" encoding="UTF-8"?>
<svg width="11px" height="20px" viewBox="0 0 11 20" version="1.1" xmlns="http://www.w3.org/2000/svg" xmlns:xlink="http://www.w3.org/1999/xlink">
    <!-- Generator: Sketch 58 (84663) - https://sketch.com -->
    <title>logo-de-facebook</title>
    <desc>Created with Sketch.</desc>
    <g id="Page-1" stroke="none" stroke-width="1" fill="none" fill-rule="evenodd">
        <g id="04.-Main" transform="translate(-28.000000, -500.000000)" fill="#FFFFFF" fill-rule="nonzero">
            <g id="Group-2" transform="translate(11.000000, 398.000000)">
                <g id="Group-4" transform="translate(1.000000, 87.000000)">
                    <g id="logo-de-facebook" transform="translate(16.000000, 15.000000)">
                        <path d="M10.0301,0.0163 L7.5371,0.0123 C4.7363,0.0123 2.9263,1.8693 2.9263,4.7435 L2.9263,6.9249 L0.4197,6.9249 C0.2031,6.9249 0.0277,7.1005 0.0277,7.3171 L0.0277,10.4777 C0.0277,10.6943 0.2033,10.8697 0.4197,10.8697 L2.9263,10.8697 L2.9263,18.8449 C2.9263,19.0615 3.1017,19.2369 3.3183,19.2369 L6.5887,19.2369 C6.8053,19.2369 6.9807,19.0613 6.9807,18.8449 L6.9807,10.8697 L9.9115,10.8697 C10.1281,10.8697 10.3035,10.6943 10.3035,10.4777 L10.3047,7.3171 C10.3047,7.2131 10.2633,7.1135 10.1899,7.0399 C10.1165,6.9663 10.0165,6.9249 9.9125,6.9249 L6.9807,6.9249 L6.9807,5.0757 C6.9807,4.1869 7.1925,3.7357 8.3503,3.7357 L10.0297,3.7351 C10.2461,3.7351 10.4215,3.5595 10.4215,3.3431 L10.4215,0.4083 C10.4215,0.1921 10.2463,0.0167 10.0301,0.0163 Z" id="Path"></path>
                    </g>
                </g>
            </g>
        </g>
    </g>
</svg>