<?xml version="1.0" encoding="UTF-8"?>
<svg width="21px" height="20px" viewBox="0 0 21 20" version="1.1" xmlns="http://www.w3.org/2000/svg" xmlns:xlink="http://www.w3.org/1999/xlink">
    <!-- Generator: Sketch 58 (84663) - https://sketch.com -->
    <title>Google__G__Logo</title>
    <desc>Created with Sketch.</desc>
    <g id="Page-1" stroke="none" stroke-width="1" fill="none" fill-rule="evenodd">
        <g id="04.-Main" transform="translate(-27.000000, -559.000000)" fill-rule="nonzero">
            <g id="Group-2" transform="translate(11.000000, 398.000000)">
                <g id="Group" transform="translate(0.000000, 146.000000)">
                    <g id="Google__G__Logo" transform="translate(16.500000, 15.000000)">
                        <path d="M19.5787546,10.2344322 C19.5787546,9.55677656 19.5238095,8.87545788 19.4065934,8.20879121 L10.003663,8.20879121 L10.003663,12.047619 L15.3882784,12.047619 C15.1648352,13.2857143 14.4468864,14.3809524 13.3956044,15.0769231 L13.3956044,17.5677656 L16.6080586,17.5677656 C18.4945055,15.8315018 19.5787546,13.2673993 19.5787546,10.2344322 Z" id="Path" fill="#4285F4"></path>
                        <path d="M10.003663,19.974359 C12.6923077,19.974359 14.959707,19.0915751 16.6117216,17.5677656 L13.3992674,15.0769231 C12.5054945,15.6849817 11.3516484,16.029304 10.007326,16.029304 C7.40659341,16.029304 5.2014652,14.2747253 4.41025641,11.9157509 L1.0952381,11.9157509 L1.0952381,14.4835165 C2.78754579,17.8498168 6.23443223,19.974359 10.003663,19.974359 Z" id="Path" fill="#34A853"></path>
                        <path d="M4.40659341,11.9157509 C3.98901099,10.6776557 3.98901099,9.33699634 4.40659341,8.0989011 L4.40659341,5.53113553 L1.0952381,5.53113553 C-0.318681319,8.34798535 -0.318681319,11.6666667 1.0952381,14.4835165 L4.40659341,11.9157509 Z" id="Path" fill="#FBBC04"></path>
                        <path d="M10.003663,3.98168498 C11.4249084,3.95970696 12.7985348,4.49450549 13.8278388,5.47619048 L13.8278388,5.47619048 L16.6739927,2.63003663 C14.8717949,0.937728938 12.4798535,0.00732600733 10.003663,0.0366300366 C6.23443223,0.0366300366 2.78754579,2.16117216 1.0952381,5.53113553 L4.40659341,8.0989011 C5.19413919,5.73626374 7.4029304,3.98168498 10.003663,3.98168498 Z" id="Path" fill="#EA4335"></path>
                    </g>
                </g>
            </g>
        </g>
    </g>
</svg>