<?xml version="1.0" encoding="UTF-8"?>
<svg width="310px" height="48px" viewBox="0 0 310 48" version="1.1" xmlns="http://www.w3.org/2000/svg" xmlns:xlink="http://www.w3.org/1999/xlink">
    <!-- Generator: Sketch 60.1 (88133) - https://sketch.com -->
    <title>Group 3</title>
    <desc>Created with Sketch.</desc>
    <g id="Page-1" stroke="none" stroke-width="1" fill="none" fill-rule="evenodd">
        <g id="00.-Auth" transform="translate(-54.000000, -199.000000)">
            <g id="Group-3" transform="translate(50.850000, 195.584987)">
                <g id="Group-2">
                    <path d="M15.2354578,8.7090115 C19.3479052,8.29393717 23.4603526,8.0864 27.5728,8.0864 C31.6852456,8.0864 35.7976912,8.29393698 39.9101367,8.70901095 L39.9101372,8.70900674 C43.3600963,9.05721517 46.0883799,11.7854987 46.4365885,15.2354578 C46.8516628,19.3479052 47.0592,23.4603526 47.0592,27.5728 C47.0592,31.6852456 46.851663,35.7976912 46.4365891,39.9101367 L46.4365933,39.9101372 C46.0883848,43.3600963 43.3601013,46.0883799 39.9101422,46.4365885 C35.7976948,46.8516628 31.6852474,47.0592 27.5728,47.0592 C23.4603544,47.0592 19.3479088,46.851663 15.2354633,46.4365891 L15.2354628,46.4365933 C11.7855037,46.0883848 9.05722008,43.3601013 8.7090115,39.9101422 C8.29393717,35.7976948 8.0864,31.6852474 8.0864,27.5728 C8.0864,23.4603544 8.29393698,19.3479088 8.70901095,15.2354633 L8.70900674,15.2354628 C9.05721517,11.7855037 11.7854987,9.05722008 15.2354578,8.7090115 Z" id="Rectangle" fill="#FFFFFF" transform="translate(27.572800, 27.572800) rotate(-45.000000) translate(-27.572800, -27.572800) "></path>
                    <path d="M35.4723472,15.3643154 C35.6403598,15.5445055 35.6343549,15.8245604 35.4615734,15.9974386 L35.4498077,16.0088027 L31.5901099,19.607561 L32.2543889,20.4792879 C32.5452278,20.8609383 32.4768926,21.4037289 32.1041825,21.7018518 L32.0875422,21.7148442 C32.0583923,21.737058 32.0278927,21.7574271 31.9962228,21.7758357 L31.9722536,21.7892728 C31.2407105,22.1845192 30.6583078,22.4991864 30.2250455,22.7332743 L30.4038459,22.7076282 C30.5873872,22.6840263 30.7807427,22.6645864 30.9837126,22.6490592 L31.0380656,22.6450112 C32.3144568,22.5525076 33.8395475,22.6117629 35.6089575,22.7692313 L35.7917332,22.7859049 C36.9955197,22.8984753 37.9053272,23.0394571 38.543682,23.2179741 C38.9163883,23.322202 39.2063186,23.4414558 39.4198812,23.5860761 C39.7026687,23.7775739 39.8737311,24.0306813 39.8737311,24.3407181 C39.8737311,24.9754463 39.2183838,25.6424267 38.2187419,26.1578377 C37.1731142,26.6969588 35.8486913,27.0187162 34.4546237,27.0187162 C33.7525515,27.0187162 33.0604198,26.9817429 32.4078297,26.9089904 C32.8649211,27.1579266 33.3578013,27.4269285 33.8863327,27.7153879 L34.2715861,27.9256498 L34.2864505,27.9341272 C34.3842553,27.9923614 34.4560333,28.0846367 34.4890127,28.191944 L34.506273,28.2749461 L34.7823846,30.7291578 L38.8899229,34.4567913 L38.901841,34.4679956 C39.0769402,34.6385259 39.0867246,34.9184742 38.9211596,35.1009157 C38.7730708,35.2640996 38.5337655,35.2952049 38.3513154,35.1870511 L38.2770352,35.1321524 L34.0419794,31.2888544 L34.0277966,31.2754188 C33.9723265,31.2205704 33.9320856,31.1526356 33.9105089,31.0783276 L33.8952808,31.0021439 L33.6265158,28.6125274 L30.1570755,26.7182399 C30.777262,27.3781221 31.5719676,28.2236935 32.5411922,29.2549543 L32.8371952,29.5699032 L32.8501133,29.5842441 C32.9036158,29.6462269 32.9391906,29.7211824 32.9536341,29.801024 L32.9609152,29.8821947 L32.9609382,34.294713 L36.7383421,39.1917772 L36.7479015,39.2046215 C36.8905144,39.4033119 36.8509589,39.6808075 36.6557921,39.8313533 C36.4813087,39.9659444 36.2402631,39.9544716 36.0796817,39.8159116 L36.0162161,39.7488032 L32.1438521,34.7286873 L32.1326424,34.7135167 C32.0963855,34.6622639 32.071259,34.6042979 32.0585366,34.5433548 L32.0489152,34.4501744 L32.0489382,30.0628506 L29.3188689,27.1582875 L29.3086553,27.1749385 C29.2346912,27.2718622 29.1600656,27.3645409 29.0849572,27.4525665 C29.7076757,28.6659003 30.0705963,30.5959436 30.0705963,32.7643162 C30.0705963,36.4345119 29.0308624,39.4219162 27.4561963,39.4219162 C25.8815301,39.4219162 24.8417963,36.4345119 24.8417963,32.7643162 C24.8417963,30.5953474 25.2049164,28.6648389 25.8269699,27.4484439 C25.7481152,27.3595762 25.6699149,27.2621639 25.5924515,27.1601098 L22.8634543,30.0628506 L22.8634774,34.4501744 C22.8634774,34.5446535 22.8341355,34.6366376 22.7797501,34.7135167 L22.7685404,34.7286873 L18.8961765,39.7488032 C18.742358,39.9482128 18.4560101,39.9851717 18.2566005,39.8313533 C18.0614336,39.6808075 18.0218782,39.4033119 18.1644911,39.2046215 L18.1740504,39.1917772 L21.9514543,34.294713 L21.9514774,29.8821947 C21.9514774,29.7725941 21.9909427,29.6668878 22.0622793,29.5842441 L22.0751974,29.5699032 C23.1991173,28.3740457 24.0927439,27.4232218 24.756077,26.7174314 L21.2858767,28.6125274 L21.0171117,31.0021439 C21.005442,31.1058917 20.9585561,31.2022877 20.884596,31.2754188 L20.8704132,31.2888544 L16.6353574,35.1321524 C16.4488616,35.3013967 16.1604773,35.2874116 15.991233,35.1009157 C15.8256679,34.9184742 15.8354524,34.6385259 16.0105516,34.4679956 L16.0224696,34.4567913 L20.1300079,30.7291578 L20.4061196,28.2749461 C20.4220969,28.1329019 20.5036861,28.0069199 20.6259421,27.9341272 L20.6408064,27.9256498 L22.4511525,26.938409 C21.8840179,26.9916985 21.2911291,27.0187162 20.6909763,27.0187162 C19.2969087,27.0187162 17.9724858,26.6969588 16.9268581,26.1578377 C15.9272162,25.6424267 15.2718689,24.9754463 15.2718689,24.3407181 C15.2718689,24.0306813 15.4429313,23.7775739 15.7257188,23.5860761 C15.9392814,23.4414558 16.2292117,23.322202 16.601918,23.2179741 C17.1919126,23.0529811 18.0137886,22.9200516 19.0853308,22.8119822 L19.4143012,22.7803 L19.6264019,22.7613093 C21.1845513,22.624949 22.5513956,22.5661778 23.7239011,22.6220793 L24.1075344,22.6450112 L24.1618874,22.6490592 C24.3184333,22.6610349 24.46926,22.6753382 24.6142756,22.6920835 C24.2390687,22.4911199 23.7728434,22.2392224 23.2147417,21.9376848 L22.9400528,21.7892728 L22.9160837,21.7758357 L22.869479,21.7467669 L22.8247643,21.7148442 L22.8081239,21.7018518 C22.466473,21.4285725 22.3805815,20.9497044 22.5926589,20.5778228 L22.6579175,20.4792879 L23.3222335,19.607561 L19.4624988,16.0088027 L19.450733,15.9974386 C19.2779516,15.8245604 19.2719467,15.5445055 19.4399592,15.3643154 C19.5902371,15.2031453 19.8299405,15.1752729 20.0109141,15.2858795 L20.0844466,15.3417758 L23.9642478,18.9593717 L23.9798091,18.9742349 C24.2680758,19.2562824 24.3253393,19.694651 24.1303265,20.0384631 L24.0642331,20.1385192 L23.4048607,21.0037722 L25.2160215,21.9819841 C25.2750147,21.8967248 25.3369292,21.8148417 25.4015861,21.736604 C25.0513776,21.3352128 24.8417963,20.8268459 24.8417963,20.2699162 C24.8417963,19.0910261 25.7808672,18.1297314 26.9995072,17.9348319 L27.0001963,15.6752893 C27.0001963,15.4234474 27.2043544,15.2192893 27.4561963,15.2192893 C27.7031001,15.2192893 27.9041718,15.4155197 27.911962,15.6605312 L27.9118911,17.934673 C29.1310145,18.1292085 30.0705963,19.0907055 30.0705963,20.2699162 C30.0705963,20.8266754 29.8611433,21.3349015 29.5117074,21.7367855 C29.5754862,21.8139077 29.6374814,21.8957238 29.6965688,21.9809136 L31.5074827,21.0037722 L30.8480733,20.1385192 C30.5778245,19.783888 30.615404,19.2844872 30.9324974,18.9742349 L30.9480586,18.9593717 L34.8278599,15.3417758 C35.0120543,15.1700297 35.3006011,15.180121 35.4723472,15.3643154 Z M26.2777963,36.7467162 L26.3606391,36.9996223 C26.6822844,37.9237865 27.076548,38.438478 27.3902608,38.5029961 L27.4561963,38.5099162 C27.7791507,38.5099162 28.2071335,37.9897983 28.5517535,36.9996223 C28.5801621,36.9179976 28.6076875,36.8341387 28.6343049,36.7481678 L26.2777963,36.7467162 Z M29.0885768,34.315757 L25.8238158,34.315757 C25.8733186,34.8527139 25.9482235,35.3638635 26.0458168,35.835788 L28.8665758,35.835788 C28.9641691,35.3638635 29.039074,34.8527139 29.0885768,34.315757 Z M29.1363178,31.8824688 L25.7760748,31.8824688 C25.7613497,32.1715476 25.7537963,32.466126 25.7537963,32.7643162 C25.7537963,32.9797676 25.7577396,33.1933336 25.7654821,33.4043019 L29.1469105,33.4043019 C29.154653,33.1933336 29.1585963,32.9797676 29.1585963,32.7643162 C29.1585963,32.466126 29.1510428,32.1715476 29.1363178,31.8824688 Z M28.8136461,29.4503956 L26.0987465,29.4503956 C25.9910487,29.9182698 25.9065476,30.4295346 25.8481386,30.9698744 L29.064254,30.9698744 C29.005845,30.4295346 28.9213439,29.9182698 28.8136461,29.4503956 Z M27.4561963,27.0187162 C27.1332419,27.0187162 26.7052591,27.5388341 26.3606391,28.52901 L26.3572613,28.5387378 L28.5537963,28.5387162 L28.5517535,28.52901 C28.2301081,27.6048458 27.8358446,27.0901544 27.5221317,27.0256363 L27.4561963,27.0187162 Z M27.4561963,21.6075162 C26.7559099,21.6075162 26.1141368,22.1156258 25.7297112,22.9024182 C25.5728937,22.8573955 25.403756,22.8177846 25.2225914,22.7833676 L25.2207165,22.785368 C25.5662368,22.8487471 25.8673333,22.9332963 26.1232452,23.0391481 C26.77911,23.3104309 27.1726037,23.74272 27.1726037,24.3407181 C27.1726037,25.0747303 26.715591,25.6474088 25.9119165,26.074313 L25.9439545,26.0571177 L25.9439545,26.0571177 C25.9824244,26.1227949 26.0243409,26.1887835 26.0677114,26.254419 L26.1867034,26.4283403 L26.2060301,26.4554706 C26.2567055,26.5262046 26.3077526,26.5943071 26.3588236,26.6595528 C26.6835368,26.303291 27.0522669,26.1067162 27.4561963,26.1067162 C27.8601256,26.1067162 28.2288558,26.303291 28.5538662,26.6575407 L28.6014528,26.5975255 L28.6014528,26.5975255 L28.7256891,26.4283403 L28.7471596,26.3978414 C28.8485537,26.2529188 28.9432699,26.1048354 29.0295698,25.9578634 L29.1643252,26.0366286 C28.4037674,25.6139025 27.9729963,25.0533453 27.9729963,24.3407181 C27.9729963,23.74272 28.36649,23.3104309 29.0223548,23.0391481 C29.1191363,22.9991168 29.2223802,22.9621322 29.3319888,22.9280725 L29.2133834,22.9670353 C28.833019,22.1435565 28.1754725,21.6075162 27.4561963,21.6075162 Z M20.1275244,23.6345304 L19.6174862,23.6776411 L19.5594189,23.6828503 C18.4553707,23.7826937 17.6095578,23.9050618 17.0175345,24.0515913 L16.8475368,24.0962766 L16.817174,24.1048709 C16.5466949,24.182366 16.3515179,24.2637325 16.2370881,24.341222 C16.2147064,24.3563785 16.1971,24.3703149 16.184158,24.3825356 L16.1898689,24.3772875 C16.2108842,24.4371259 16.2594123,24.5182924 16.3418835,24.615073 L16.4101613,24.6904063 L16.4260214,24.7067378 C16.6380577,24.922538 16.9552491,25.1463893 17.344799,25.3472395 C18.2612722,25.8197691 19.4424082,26.1067162 20.6909763,26.1067162 C23.8458023,26.1067162 26.2606037,25.354196 26.2606037,24.3407181 C26.2606037,23.9750039 25.4997671,23.660302 24.0416121,23.5546255 C22.9475411,23.4753352 21.6358719,23.5141184 20.1275244,23.6345304 Z M31.1039879,23.5546255 C29.6458329,23.660302 28.8849963,23.9750039 28.8849963,24.3407181 C28.8849963,25.354196 31.2997977,26.1067162 34.4546237,26.1067162 C35.7031918,26.1067162 36.8843278,25.8197691 37.800801,25.3472395 C38.1903509,25.1463893 38.5075423,24.922538 38.7195786,24.7067378 L38.7354387,24.6904063 C38.8600427,24.5605709 38.9301074,24.4506363 38.9531492,24.3830842 L38.9548689,24.3772875 L38.9385168,24.3629797 C38.9296998,24.3560735 38.9197027,24.3488002 38.9085119,24.341222 C38.7940821,24.2637325 38.5989051,24.182366 38.328426,24.1048709 L38.2980632,24.0962766 C37.7026224,23.9297606 36.8006341,23.792678 35.5861811,23.6828503 L35.5281138,23.6776411 C33.8038965,23.5241946 32.3196223,23.4665252 31.1039879,23.5546255 Z M27.4561963,18.8107162 C26.5046525,18.8107162 25.7537963,19.4769689 25.7537963,20.2699162 C25.7537963,20.5855704 25.8727811,20.881148 26.0760452,21.1226127 C26.4879992,20.8494641 26.9553976,20.6955162 27.4561963,20.6955162 C27.9571893,20.6955162 28.4247561,20.8495836 28.8349456,21.1214436 C29.0108211,20.915257 29.1230934,20.6683669 29.1514892,20.4031554 L29.1585963,20.2699162 C29.1585963,19.4769689 28.4077401,18.8107162 27.4561963,18.8107162 Z" id="Combined-Shape" fill="#000000" fill-rule="nonzero"></path>
                </g>
                <path d="M225.845525,37.192576 L227.421461,31.51264 L233.758037,31.51264 L235.465301,37.192576 L240.849749,37.192576 L233.987861,15.063808 L227.421461,15.063808 L220.658069,37.192576 L225.845525,37.192576 Z M233.035733,27.769792 L228.143765,27.769792 L229.457045,23.074816 C229.818197,21.794368 230.146517,20.119936 230.474837,18.806656 L230.540501,18.806656 C230.868821,20.119936 231.262805,21.761536 231.656789,23.074816 L233.035733,27.769792 Z M257.495573,37.192576 L257.495573,32.99008 L248.696597,32.99008 L248.696597,15.063808 L243.673301,15.063808 L243.673301,37.192576 L257.495573,37.192576 Z M274.436885,37.192576 L274.436885,33.088576 L265.342421,33.088576 L265.342421,27.835456 L273.484757,27.835456 L273.484757,23.764288 L265.342421,23.764288 L265.342421,19.167808 L273.977237,19.167808 L273.977237,15.063808 L260.319125,15.063808 L260.319125,37.192576 L274.436885,37.192576 Z M282.677717,37.192576 L282.677717,28.492096 L284.187989,28.492096 C286.223573,28.524928 287.175701,29.280064 287.766677,32.037952 C288.423317,34.763008 288.948629,36.535936 289.309781,37.192576 L294.431573,37.192576 C294.004757,36.338944 293.315285,33.449728 292.625813,30.954496 C292.067669,28.918912 291.214037,27.441472 289.670933,26.817664 L289.670933,26.719168 C291.575189,26.029696 293.577941,24.092608 293.577941,21.269056 C293.577941,19.233472 292.855637,17.690368 291.542357,16.639744 C289.966421,15.392128 287.668181,14.899648 284.384981,14.899648 C281.725589,14.899648 279.328853,15.09664 277.720085,15.359296 L277.720085,37.192576 L282.677717,37.192576 Z M284.647637,24.880576 L282.677717,24.880576 L282.677717,18.773824 C283.038869,18.70816 283.728341,18.609664 284.943125,18.609664 C287.241365,18.642496 288.620309,19.660288 288.620309,21.695872 C288.620309,23.63296 287.142869,24.880576 284.647637,24.880576 Z M306.349589,37.192576 L306.349589,19.266304 L312.390677,19.266304 L312.390677,15.063808 L295.383701,15.063808 L295.383701,19.266304 L301.326293,19.266304 L301.326293,37.192576 L306.349589,37.192576 Z" id="MOSQUITOALERT" fill="#FFFFFF" fill-rule="nonzero"></path>
                <g id="Group" transform="translate(61.422869, 14.702656)" fill="#FFFFFF" fill-rule="nonzero">
                    <path d="M2.725056,22.48992 L3.316032,13.001472 C3.513024,9.68544 3.677184,5.975424 3.742848,3.217536 L3.808512,3.217536 C4.43232,5.844096 5.318784,8.70048 6.369408,11.81952 L9.948096,22.358592 L12.115008,22.358592 L16.022016,11.622528 C17.138304,8.601984 18.0576,5.811264 18.812736,3.217536 L18.911232,3.217536 C18.8784,5.975424 19.075392,9.68544 19.239552,12.771648 L19.797696,22.48992 L22.588416,22.48992 L21.209472,0.361152 L17.56512,0.361152 L13.62528,11.064384 C12.64032,13.855104 11.852352,16.284672 11.294208,18.517248 L11.195712,18.517248 C10.637568,16.219008 9.882432,13.78944 8.963136,11.064384 L5.187456,0.361152 L1.543104,0.361152 L1.38243195e-14,22.48992 L2.725056,22.48992 Z" id="Path"></path>
                    <path d="M35.819712,3.61310981e-14 C41.8608,3.61310981e-14 45.767808,4.629312 45.767808,11.195712 C45.767808,18.812736 41.138496,22.851072 35.491392,22.851072 C29.647296,22.851072 25.543296,18.320256 25.543296,11.622528 C25.543296,4.59648 29.909952,3.61310981e-14 35.819712,3.61310981e-14 Z M35.688384,2.331072 C30.960576,2.331072 28.596672,6.697728 28.596672,11.556864 C28.596672,16.284672 31.157568,20.52 35.655552,20.52 C40.186368,20.52 42.747264,16.350336 42.747264,11.32704 C42.747264,6.927552 40.449024,2.331072 35.688384,2.331072 Z" id="Combined-Shape"></path>
                    <path d="M53.877312,22.851072 C59.0976,22.851072 61.625664,19.86336 61.625664,16.448832 C61.625664,13.198464 59.721408,11.392704 55.97856,9.948096 C52.925184,8.766144 51.579072,7.748352 51.579072,5.679936 C51.579072,4.169664 52.728192,2.363904 55.748736,2.363904 C57.751488,2.363904 59.228928,3.020544 59.951232,3.414528 L60.7392,1.083456 C59.75424,0.525312 58.11264,3.45607987e-15 55.847232,3.45607987e-15 C51.54624,3.45607987e-15 48.689856,2.560896 48.689856,6.008256 C48.689856,9.127296 50.922432,10.99872 54.533952,12.279168 C57.521664,13.428288 58.703616,14.61024 58.703616,16.678656 C58.703616,18.911232 56.996352,20.454336 54.074304,20.454336 C52.104384,20.454336 50.23296,19.797696 48.952512,19.009728 L48.230208,21.406464 C49.41216,22.194432 51.743232,22.851072 53.877312,22.851072 Z" id="Path"></path>
                    <path d="M74.397312,-1.04883213e-13 C80.405568,-1.04883213e-13 84.312576,4.662144 84.312576,11.195712 C84.312576,16.875648 81.686016,20.52 78.008832,21.800448 L78.008832,21.800448 L78.008832,21.931776 C80.208576,22.48992 82.605312,23.015232 84.476736,23.343552 L84.476736,23.343552 L83.655936,25.740288 C80.668224,24.95232 77.746176,24.065856 75.18528,23.179392 C74.725632,23.015232 74.265984,22.851072 73.839168,22.851072 C68.586048,22.65408 64.088064,18.779904 64.088064,11.65536 C64.088064,4.563648 68.421888,-1.04883213e-13 74.397312,-1.04883213e-13 Z M74.298816,2.331072 C69.472512,2.331072 67.108608,6.796224 67.14144,11.589696 C67.108608,16.284672 69.702336,20.52 74.167488,20.52 L74.167488,20.52 L74.20032,20.52 C78.731136,20.52 81.292032,16.383168 81.292032,11.32704 C81.292032,6.89472 78.993792,2.331072 74.298816,2.331072 Z" id="Combined-Shape"></path>
                    <path d="M95.803776,22.851072 C100.597248,22.851072 104.175936,20.060352 104.175936,13.264128 L104.175936,0.361152 L101.28672,0.361152 L101.28672,13.46112 C101.28672,18.353088 99.185472,20.52 95.902272,20.52 C92.947392,20.52 90.747648,18.418752 90.747648,13.46112 L90.747648,0.361152 L87.858432,0.361152 L87.858432,13.395456 C87.858432,20.257344 91.27296,22.851072 95.803776,22.851072 Z" id="Path"></path>
                    <polygon id="Path" points="111.858624 22.48992 111.858624 0.361152 109.00224 0.361152 109.00224 22.48992"></polygon>
                    <polygon id="Path" points="123.809472 22.48992 123.809472 2.79072 130.572864 2.79072 130.572864 0.361152 114.189696 0.361152 114.189696 2.79072 120.920256 2.79072 120.920256 22.48992"></polygon>
                    <path d="M140.980608,3.96838118e-14 C147.021696,3.96838118e-14 150.928704,4.629312 150.928704,11.195712 C150.928704,18.812736 146.299392,22.851072 140.652288,22.851072 C134.808192,22.851072 130.704192,18.320256 130.704192,11.622528 C130.704192,4.59648 135.070848,3.96838118e-14 140.980608,3.96838118e-14 Z M140.84928,2.331072 C136.121472,2.331072 133.757568,6.697728 133.757568,11.556864 C133.757568,16.284672 136.318464,20.52 140.816448,20.52 C145.347264,20.52 147.90816,16.350336 147.90816,11.32704 C147.90816,6.927552 145.60992,2.331072 140.84928,2.331072 Z" id="Combined-Shape"></path>
                </g>
            </g>
        </g>
    </g>
</svg>