<?xml version="1.0" encoding="UTF-8"?>
<svg width="163px" height="26px" viewBox="0 0 163 26" version="1.1" xmlns="http://www.w3.org/2000/svg" xmlns:xlink="http://www.w3.org/1999/xlink">
    <!-- Generator: Sketch 60.1 (88133) - https://sketch.com -->
    <title>Group 3</title>
    <desc>Created with Sketch.</desc>
    <defs>
        <linearGradient x1="50%" y1="0%" x2="36.5256585%" y2="93.7353149%" id="linearGradient-1">
            <stop stop-color="#FFDD18" offset="0%"></stop>
            <stop stop-color="#FFC418" offset="43.6285895%"></stop>
            <stop stop-color="#FEE44B" offset="81.2051309%"></stop>
            <stop stop-color="#FFDD18" offset="100%"></stop>
        </linearGradient>
    </defs>
    <g id="Page-1" stroke="none" stroke-width="1" fill="none" fill-rule="evenodd">
        <g id="05.-Main-Screen" transform="translate(-127.000000, -53.000000)">
            <g id="Group-3" transform="translate(125.100000, 51.200000)">
                <g id="Group-2">
                    <path d="M8.0186649,4.58368997 C10.1831099,4.36522999 12.347555,4.256 14.512,4.256 C16.6764499,4.256 18.8408998,4.36523048 21.0053497,4.58369144 L21.0053486,4.58370266 C22.8211098,4.76696999 24.2570431,6.20290359 24.44031,8.0186649 C24.65877,10.1831099 24.768,12.347555 24.768,14.512 C24.768,16.6764499 24.6587695,18.8408998 24.4403086,21.0053497 L24.4402973,21.0053486 C24.25703,22.8211098 22.8210964,24.2570431 21.0053351,24.44031 C18.8408901,24.65877 16.676445,24.768 14.512,24.768 C12.3475501,24.768 10.1831002,24.6587695 8.01865031,24.4403086 L8.01865144,24.4402973 C6.20289017,24.25703 4.76695689,22.8210964 4.58368997,21.0053351 C4.36522999,18.8408901 4.256,16.676445 4.256,14.512 C4.256,12.3475501 4.36523048,10.1831002 4.58369144,8.01865031 L4.58370266,8.01865144 C4.76696999,6.20289017 6.20290359,4.76695689 8.0186649,4.58368997 Z" id="Rectangle" fill="url(#linearGradient-1)" transform="translate(14.512000, 14.512000) rotate(-45.000000) translate(-14.512000, -14.512000) "></path>
                    <path d="M18.6696564,8.08648177 C18.7580841,8.18131871 18.7549236,8.328716 18.663986,8.41970451 L18.6577935,8.42568565 L16.6263736,10.3197689 L16.9759942,10.7785726 C17.1290673,10.9794412 17.0931014,11.2651205 16.8969382,11.4220272 L16.8881801,11.4288654 C16.872838,11.4405569 16.8567856,11.4512774 16.8401172,11.4609662 L16.8275019,11.4680383 C16.442003,11.67632 16.1351934,11.8420866 15.907073,11.9653381 C16.0320345,11.9459356 16.1651511,11.9314255 16.3072171,11.9205575 L16.335824,11.9184269 C17.0076088,11.8697409 17.8102882,11.9009279 18.7415566,11.9838059 L18.8377543,11.9925815 C19.4713262,12.0518291 19.9501722,12.12603 20.2861484,12.2199863 C20.4823096,12.2748432 20.6349045,12.3376083 20.7473059,12.4137242 C20.8961414,12.5145126 20.9861743,12.647727 20.9861743,12.8109042 C20.9861743,13.1449717 20.6412546,13.496014 20.1151273,13.767283 C19.564797,14.0510309 18.8677323,14.2203769 18.1340125,14.2203769 C17.763659,14.2203769 17.3985612,14.2008285 17.0544054,14.1623645 C17.2688974,14.2781294 17.4993583,14.4039093 17.7448739,14.5379058 L18.0376769,14.6977104 C18.0918034,14.7297907 18.1294897,14.7751081 18.1484975,14.8273012 L18.1611963,14.8815506 L18.3065182,16.1732409 L20.4683805,18.1351533 C20.5668106,18.2308031 20.5719603,18.3781443 20.4848208,18.4741662 C20.4105909,18.5559626 20.2928156,18.5747068 20.1988161,18.5271342 L20.145808,18.4906065 L17.9168313,16.4678181 C17.8859039,16.4374438 17.8646273,16.4047703 17.8520595,16.3701839 L17.8396215,16.3169179 L17.6981662,15.0592249 L15.8715747,14.0616247 C16.1858114,14.3959745 16.5852307,14.820959 17.0698326,15.3365782 L17.2827343,15.5631069 L17.2895333,15.5706548 C17.3145637,15.5996526 17.3321388,15.6340451 17.3410744,15.6708432 L17.3478501,15.7274709 L17.3478622,18.0498489 L19.3359695,20.6272512 C19.4160602,20.7385852 19.3952415,20.8846355 19.2925222,20.9638701 C19.2050618,21.0313344 19.0858257,21.02907 19.0016597,20.9657049 L18.9559032,20.9204227 L16.9178169,18.2782565 L16.9119171,18.2702719 C16.8928345,18.2432968 16.87961,18.2127884 16.872914,18.180713 L16.8678501,18.1316707 L16.8678622,15.8225529 L15.4308257,14.2941513 L15.3970594,14.3395282 C15.3676966,14.3770157 15.3381504,14.4132131 15.3084606,14.4480295 C15.6353696,15.0859909 15.8266296,16.1023838 15.8266296,17.2443769 C15.8266296,19.1760589 15.2794013,20.7483769 14.4506296,20.7483769 C13.621858,20.7483769 13.0746296,19.1760589 13.0746296,17.2443769 C13.0746296,16.102983 13.2656891,15.0870574 13.592997,14.446833 C13.5519324,14.4001369 13.5107227,14.3488159 13.4699017,14.2950454 L12.033397,15.8225529 L12.0334092,18.1316707 C12.0334092,18.1813966 12.0179661,18.2298092 11.9893422,18.2702719 L11.9834423,18.2782565 L9.94535605,20.9204227 C9.86439896,21.0253752 9.71368952,21.0448272 9.60873709,20.9638701 C9.5060177,20.8846355 9.48519906,20.7385852 9.56025845,20.6340113 L9.5652897,20.6272512 L11.553397,18.0498489 L11.5534092,15.7274709 C11.5534092,15.6697864 11.5741803,15.6141515 11.6117259,15.5706548 L11.6185249,15.5631069 C12.2100192,14.9337535 12.6803238,14.4333466 13.0294389,14.0618862 L11.203093,15.0592249 L11.0616378,16.3169179 C11.0554958,16.3715219 11.030819,16.4222567 10.9918926,16.4607467 L10.984428,16.4678181 L8.75545127,18.4906065 C8.65729558,18.5796825 8.50551435,18.5723219 8.41643841,18.4741662 C8.32929891,18.3781443 8.33444862,18.2308031 8.42660608,18.1410503 L8.43287876,18.1351533 L10.594741,16.1732409 L10.7400629,14.8815506 C10.7484721,14.8067905 10.7914137,14.7404842 10.855759,14.7021722 L10.8635823,14.6977104 L11.8166612,14.1780851 C11.518089,14.2061487 11.2059509,14.2203769 10.8899875,14.2203769 C10.1562677,14.2203769 9.45920303,14.0510309 8.90887269,13.767283 C8.38274538,13.496014 8.03782574,13.1449717 8.03782574,12.8109042 C8.03782574,12.647727 8.12785858,12.5145126 8.27669411,12.4137242 C8.3890955,12.3376083 8.54169036,12.2748432 8.73785158,12.2199863 C9.03673041,12.1364044 9.44867051,12.068456 9.98201824,12.0127607 L10.2180533,11.9896316 L10.3296852,11.9796365 C11.1107125,11.9112855 11.8004137,11.8799742 12.3974098,11.9025629 L12.688176,11.9184269 L12.7167829,11.9205575 C12.7993805,11.9268762 12.8789529,11.934426 12.9554516,11.9432676 C12.7715984,11.8451003 12.5458304,11.7231198 12.2779754,11.5784 L12.073712,11.4680383 L12.0610967,11.4609662 L12.0365679,11.4456668 L12.0130338,11.4288654 L12.0042757,11.4220272 C11.832633,11.2847338 11.7836412,11.048849 11.8766222,10.8574567 L11.9252198,10.7785726 L12.2748597,10.3197689 L10.2434204,8.42568565 C10.1462903,8.328716 10.1431298,8.18131871 10.2315575,8.08648177 C10.3068847,8.00569475 10.4249023,7.98854191 10.5182512,8.03737897 L10.5707614,8.07461885 L12.612762,9.97861669 L12.6209521,9.98643943 C12.766982,10.1293188 12.8003788,10.3484175 12.7111591,10.5259993 L12.6653859,10.5992206 L12.3183477,11.0546169 L13.2721867,11.5700546 C13.3032335,11.5249761 13.3358469,11.4816873 13.36993,11.4403322 C13.1851955,11.2296894 13.0746296,10.961843 13.0746296,10.6683769 C13.0746296,10.0481238 13.5685345,9.54231511 14.2095992,9.43949214 L14.2106296,8.25015225 C14.2106296,8.11760391 14.3180813,8.01015225 14.4506296,8.01015225 C14.580579,8.01015225 14.6864062,8.11343143 14.6905063,8.24238485 L14.6906681,9.43933338 C15.3322152,9.54179341 15.8266296,10.047804 15.8266296,10.6683769 C15.8266296,10.9613688 15.7164208,11.2288237 15.5325516,11.4403282 C15.5660066,11.4809323 15.5989191,11.5243752 15.6302738,11.5696242 L16.5828856,11.0546169 L16.2358281,10.5992206 C16.0935919,10.4125726 16.1133705,10.1497301 16.2802618,9.98643943 L16.2884519,9.97861669 L18.3304526,8.07461885 C18.427397,7.98422614 18.5792637,7.98953735 18.6696564,8.08648177 Z M13.8316296,19.3403769 L13.8740206,19.4734854 C14.0372616,19.9425161 14.2360415,20.2111537 14.3980776,20.2601909 L14.4506296,20.2683769 C14.6206056,20.2683769 14.8458597,19.9946307 15.0272387,19.4734854 C15.0419829,19.4311217 15.0562751,19.3876146 15.0701028,19.3430256 L13.8316296,19.3403769 Z M15.3096857,18.061917 L13.5915735,18.061917 C13.6176878,18.3448063 13.6571994,18.6140746 13.7086754,18.8626363 L15.1925838,18.8626363 C15.2440598,18.6140746 15.2835715,18.3448063 15.3096857,18.061917 Z M15.3348932,16.7800332 L13.566366,16.7800332 C13.5586088,16.9322484 13.5546296,17.0873613 13.5546296,17.2443769 C13.5546296,17.357758 13.5567045,17.470147 13.5607785,17.5811691 L15.3404807,17.5811691 C15.3445547,17.470147 15.3466296,17.357758 15.3466296,17.2443769 C15.3466296,17.0873613 15.3426504,16.9322484 15.3348932,16.7800332 Z M15.1651487,15.5005201 L13.7361106,15.5005201 C13.6794229,15.7468539 13.6349511,16.0160337 13.6042202,16.300519 L15.297039,16.300519 C15.2663082,16.0160337 15.2218364,15.7468539 15.1651487,15.5005201 Z M14.4506296,14.2203769 C14.2806536,14.2203769 14.0553995,14.4941232 13.8740206,15.0152684 C13.8733554,15.0171796 13.8726912,15.0190931 13.8720279,15.0210089 L15.0286296,15.0203769 C14.8639976,14.5462377 14.6652177,14.2776002 14.5031816,14.228563 L14.4506296,14.2203769 Z M15.3997579,12.0796606 L15.3756594,12.0883345 C15.1754973,11.6546862 14.8293187,11.3723769 14.4506296,11.3723769 C14.0817574,11.3723769 13.7437318,11.6402393 13.5414586,12.0549174 L13.477821,12.0370673 C13.5769065,12.0623996 13.6673674,12.0920704 13.7490764,12.1258674 C14.0942684,12.2686478 14.3013704,12.4961684 14.3013704,12.8109042 C14.3013704,13.1979307 14.0599595,13.4997349 13.6355356,13.7245507 L13.6552399,13.7139866 L13.6552399,13.7139866 C13.6650813,13.732689 13.6773489,13.7523413 13.6898734,13.7719629 L13.7824755,13.9096528 L13.7926474,13.9239319 C13.8193187,13.9611603 13.8461856,13.9970037 13.8730651,14.0313436 C14.0446021,13.8434989 14.2383832,13.7403769 14.4506296,13.7403769 C14.662876,13.7403769 14.8566571,13.8434989 15.0275104,14.0293696 L15.1187837,13.9096528 L15.130084,13.8936007 C15.1837196,13.8169394 15.2338048,13.7385975 15.2794108,13.6608581 L15.3490183,13.7031403 C14.9491147,13.4806934 14.7226296,13.1857755 14.7226296,12.8109042 C14.7226296,12.4961684 14.9297316,12.2686478 15.2749236,12.1258674 L15.3999469,12.0795794 L15.3999469,12.0795794 L15.5369844,12.0391112 C15.4891673,12.0517008 15.4434299,12.0652093 15.3997579,12.0796606 Z M10.6593496,12.4340452 L10.3249928,12.4619163 L10.294431,12.4646581 C9.73514344,12.5152366 9.3017668,12.5767978 8.99221477,12.6501098 L8.86712463,12.6822509 L8.85114419,12.6867741 C8.7087868,12.727561 8.60606208,12.7703855 8.54583587,12.8111695 L8.53004378,12.8226209 L8.53004378,12.8226209 L8.52082574,12.8291513 L8.53569077,12.8626649 C8.54851467,12.8868489 8.56732362,12.9146697 8.59306156,12.9458487 L8.63692701,12.9949507 L8.64527444,13.0035462 C8.75687249,13.1171252 8.92381534,13.2349417 9.12884159,13.3406524 C9.61119589,13.5893522 10.2328464,13.7403769 10.8899875,13.7403769 C12.5504223,13.7403769 13.8213704,13.3443137 13.8213704,12.8109042 C13.8213704,12.6184231 13.42093,12.4527905 12.6534801,12.3971713 C12.0936484,12.3565988 11.4255655,12.3747657 10.6593496,12.4340452 Z M16.3705199,12.3971713 C15.60307,12.4527905 15.2026296,12.6184231 15.2026296,12.8109042 C15.2026296,13.3443137 16.4735777,13.7403769 18.1340125,13.7403769 C18.7911536,13.7403769 19.4128041,13.5893522 19.8951584,13.3406524 C20.1001847,13.2349417 20.2671275,13.1171252 20.3787256,13.0035462 L20.387073,12.9949507 C20.4526541,12.9266163 20.4895302,12.868756 20.5016575,12.8332022 L20.5027183,12.8298809 L20.5060221,12.8329134 C20.4992105,12.8264815 20.489944,12.8191466 20.4781641,12.8111695 C20.4179379,12.7703855 20.3152132,12.727561 20.1728558,12.6867741 L20.1568754,12.6822509 C19.8434855,12.5946109 19.3687548,12.5224621 18.729569,12.4646581 L18.6990072,12.4619163 C17.7915245,12.3811551 17.0103275,12.3508027 16.3705199,12.3971713 Z M14.4506296,9.90037694 C13.9498171,9.90037694 13.5546296,10.2510363 13.5546296,10.6683769 C13.5546296,10.8351825 13.6177607,10.9913358 13.7255342,11.1187048 C13.9416693,10.973199 14.187382,10.8923769 14.4506296,10.8923769 C14.7142113,10.8923769 14.9602134,10.9734042 15.1760443,11.1163883 C15.2616029,11.0170916 15.318978,10.8976686 15.3388738,10.7691784 L15.3466296,10.6683769 C15.3466296,10.2510363 14.9514421,9.90037694 14.4506296,9.90037694 Z" id="Combined-Shape" fill="#281901" fill-rule="nonzero"></path>
                </g>
                <path d="M118.866066,19.57504 L119.695506,16.5856 L123.030546,16.5856 L123.929106,19.57504 L126.763026,19.57504 L123.151506,7.92832 L119.695506,7.92832 L116.135826,19.57504 L118.866066,19.57504 Z M122.650386,14.61568 L120.075666,14.61568 L120.766866,12.14464 C120.956946,11.47072 121.129746,10.58944 121.302546,9.89824 L121.337106,9.89824 C121.509906,10.58944 121.717266,11.45344 121.924626,12.14464 L122.650386,14.61568 Z M135.523986,19.57504 L135.523986,17.3632 L130.892946,17.3632 L130.892946,7.92832 L128.249106,7.92832 L128.249106,19.57504 L135.523986,19.57504 Z M144.440466,19.57504 L144.440466,17.41504 L139.653906,17.41504 L139.653906,14.65024 L143.939346,14.65024 L143.939346,12.50752 L139.653906,12.50752 L139.653906,10.08832 L144.198546,10.08832 L144.198546,7.92832 L137.010066,7.92832 L137.010066,19.57504 L144.440466,19.57504 Z M148.777746,19.57504 L148.777746,14.99584 L149.572626,14.99584 C150.643986,15.01312 151.145106,15.41056 151.456146,16.86208 C151.801746,18.29632 152.078226,19.22944 152.268306,19.57504 L154.963986,19.57504 C154.739346,19.12576 154.376466,17.60512 154.013586,16.29184 C153.719826,15.22048 153.270546,14.44288 152.458386,14.11456 L152.458386,14.06272 C153.460626,13.69984 154.514706,12.68032 154.514706,11.19424 C154.514706,10.12288 154.134546,9.31072 153.443346,8.75776 C152.613906,8.10112 151.404306,7.84192 149.676306,7.84192 C148.276626,7.84192 147.015186,7.9456 146.168466,8.08384 L146.168466,19.57504 L148.777746,19.57504 Z M149.814546,13.09504 L148.777746,13.09504 L148.777746,9.88096 C148.967826,9.8464 149.330706,9.79456 149.970066,9.79456 C151.179666,9.81184 151.905426,10.34752 151.905426,11.41888 C151.905426,12.4384 151.127826,13.09504 149.814546,13.09504 Z M161.236626,19.57504 L161.236626,10.14016 L164.416146,10.14016 L164.416146,7.92832 L155.465106,7.92832 L155.465106,10.14016 L158.592786,10.14016 L158.592786,19.57504 L161.236626,19.57504 Z" id="MOSQUITOALERT" fill="#222222" fill-rule="nonzero"></path>
                <g id="Group" transform="translate(32.327826, 7.738240)" fill="#222222" fill-rule="nonzero">
                    <path d="M1.43424,11.8368 L1.74528,6.84288 C1.84896,5.0976 1.93536,3.14496 1.96992,1.69344 L2.00448,1.69344 C2.3328,3.07584 2.79936,4.5792 3.35232,6.2208 L5.23584,11.76768 L6.37632,11.76768 L8.43264,6.11712 C9.02016,4.52736 9.504,3.05856 9.90144,1.69344 L9.95328,1.69344 C9.936,3.14496 10.03968,5.0976 10.12608,6.72192 L10.41984,11.8368 L11.88864,11.8368 L11.16288,0.19008 L9.2448,0.19008 L7.1712,5.82336 C6.6528,7.29216 6.23808,8.57088 5.94432,9.74592 L5.89248,9.74592 C5.59872,8.53632 5.20128,7.2576 4.71744,5.82336 L2.73024,0.19008 L0.81216,0.19008 L7.27595761e-15,11.8368 L1.43424,11.8368 Z" id="Path"></path>
                    <path d="M18.85248,1.70530257e-14 C22.032,1.70530257e-14 24.08832,2.43648 24.08832,5.89248 C24.08832,9.90144 21.65184,12.02688 18.67968,12.02688 C15.60384,12.02688 13.44384,9.64224 13.44384,6.11712 C13.44384,2.4192 15.74208,1.70530257e-14 18.85248,1.70530257e-14 Z M18.78336,1.22688 C16.29504,1.22688 15.05088,3.52512 15.05088,6.08256 C15.05088,8.57088 16.39872,10.8 18.76608,10.8 C21.15072,10.8 22.49856,8.60544 22.49856,5.9616 C22.49856,3.64608 21.28896,1.22688 18.78336,1.22688 Z" id="Combined-Shape"></path>
                    <path d="M28.35648,12.02688 C31.104,12.02688 32.43456,10.4544 32.43456,8.65728 C32.43456,6.94656 31.43232,5.99616 29.4624,5.23584 C27.85536,4.61376 27.14688,4.07808 27.14688,2.98944 C27.14688,2.19456 27.75168,1.24416 29.34144,1.24416 C30.39552,1.24416 31.17312,1.58976 31.55328,1.79712 L31.968,0.57024 C31.4496,0.27648 30.5856,1.8189894e-15 29.39328,1.8189894e-15 C27.1296,1.8189894e-15 25.62624,1.34784 25.62624,3.16224 C25.62624,4.80384 26.80128,5.7888 28.70208,6.46272 C30.27456,7.06752 30.89664,7.6896 30.89664,8.77824 C30.89664,9.95328 29.99808,10.76544 28.46016,10.76544 C27.42336,10.76544 26.4384,10.41984 25.76448,10.00512 L25.38432,11.26656 C26.0064,11.68128 27.23328,12.02688 28.35648,12.02688 Z" id="Path"></path>
                    <path d="M39.15648,-4.93116659e-14 C42.31872,-4.93116659e-14 44.37504,2.45376 44.37504,5.89248 C44.37504,8.88192 42.99264,10.8 41.05728,11.47392 L41.05728,11.47392 L41.05728,11.54304 C42.21504,11.8368 43.47648,12.11328 44.46144,12.28608 L44.46144,12.28608 L44.02944,13.54752 C42.45696,13.1328 40.91904,12.66624 39.5712,12.19968 C39.32928,12.11328 39.08736,12.02688 38.86272,12.02688 C36.09792,11.9232 33.73056,9.88416 33.73056,6.1344 C33.73056,2.40192 36.01152,-4.93116659e-14 39.15648,-4.93116659e-14 Z M39.10464,1.22688 C36.56448,1.22688 35.32032,3.57696 35.3376,6.09984 C35.32032,8.57088 36.68544,10.8 39.03552,10.8 L39.03552,10.8 L39.0528,10.8 C41.43744,10.8 42.78528,8.62272 42.78528,5.9616 C42.78528,3.6288 41.57568,1.22688 39.10464,1.22688 Z" id="Combined-Shape"></path>
                    <path d="M50.42304,12.02688 C52.94592,12.02688 54.82944,10.55808 54.82944,6.98112 L54.82944,0.19008 L53.3088,0.19008 L53.3088,7.0848 C53.3088,9.65952 52.20288,10.8 50.47488,10.8 C48.91968,10.8 47.76192,9.69408 47.76192,7.0848 L47.76192,0.19008 L46.24128,0.19008 L46.24128,7.05024 C46.24128,10.66176 48.0384,12.02688 50.42304,12.02688 Z" id="Path"></path>
                    <polygon id="Path" points="58.87296 11.8368 58.87296 0.19008 57.3696 0.19008 57.3696 11.8368"></polygon>
                    <polygon id="Path" points="65.16288 11.8368 65.16288 1.4688 68.72256 1.4688 68.72256 0.19008 60.09984 0.19008 60.09984 1.4688 63.64224 1.4688 63.64224 11.8368"></polygon>
                    <path d="M74.20032,1.70530257e-14 C77.37984,1.70530257e-14 79.43616,2.43648 79.43616,5.89248 C79.43616,9.90144 76.99968,12.02688 74.02752,12.02688 C70.95168,12.02688 68.79168,9.64224 68.79168,6.11712 C68.79168,2.4192 71.08992,1.70530257e-14 74.20032,1.70530257e-14 Z M74.1312,1.22688 C71.64288,1.22688 70.39872,3.52512 70.39872,6.08256 C70.39872,8.57088 71.74656,10.8 74.11392,10.8 C76.49856,10.8 77.8464,8.60544 77.8464,5.9616 C77.8464,3.64608 76.6368,1.22688 74.1312,1.22688 Z" id="Combined-Shape"></path>
                </g>
            </g>
        </g>
    </g>
</svg>