<svg xmlns="http://www.w3.org/2000/svg" viewBox="0 0 1453 1453"><defs><style>.cls-1{fill:#56af31;}.cls-2{fill:#1d1d1b;}.cls-3{fill:#fff;}</style></defs><g id="circulo"><circle class="cls-1" cx="726.5" cy="726.5" r="726.5"/></g><g id="hoja1"><path class="cls-2" d="M805,1495l-161-1q.5-430,1-860L823,419l578,1q8.51,528,17,1056Z" transform="translate(-472 -312)"/><path class="cls-3" d="M1308,1436c-180.11,23.33-352,23-513,7l-96-1V653L849,473l497,1,5,11v945Q1329.67,1433.2,1308,1436Z" transform="translate(-472 -312)"/><path class="cls-2" d="M779,1604H940l6-754,169-183,421,1q-.49-70-1-140H957L782,739Z" transform="translate(-472 -312)"/><path class="cls-3" d="M832,1549l118,2q5-349.5,10-699l162-174,359-2-3-94H982L833,762Q832.5,1155.49,832,1549Z" transform="translate(-472 -312)"/><path class="cls-2" d="M912,1714q.5-430,1-860l178-218,577-1q.49,540.5,1,1081Z" transform="translate(-472 -312)"/><path class="cls-3" d="M967,1661l649,1V689H1155V905l-189-1Q966.5,1282.49,967,1661Z" transform="translate(-472 -312)"/><path class="cls-3" d="M982,850l117-142q.49,71.5,1,143Z" transform="translate(-472 -312)"/></g><g id="graficos"><rect class="cls-2" x="605.78" y="1196.43" width="92.15" height="117.57"/><rect class="cls-2" x="726.52" y="1091.57" width="92.15" height="222.43"/><rect class="cls-2" x="850.45" y="1139.23" width="92.15" height="174.77"/><rect class="cls-2" x="974.37" y="1062.97" width="92.15" height="251.03"/><rect class="cls-2" x="574" y="634" width="530.65" height="38.13" rx="19.07"/><rect class="cls-2" x="574" y="726.15" width="530.65" height="38.13" rx="19.07"/><rect class="cls-2" x="574" y="821.48" width="289.16" height="38.13" rx="14.07"/><rect class="cls-2" x="653.34" y="538.92" width="451.31" height="38.08" rx="17.57"/><rect class="cls-2" x="653" y="448.92" width="451.65" height="38.08" rx="17.58"/><rect class="cls-2" x="1026.9" y="1324.48" width="262.02" height="30.97" rx="12.28" transform="translate(-1073.25 823.94) rotate(-42.55)"/><rect class="cls-2" x="1321.68" y="1279.27" width="264.61" height="35.6" rx="13.29" transform="translate(-966.26 1012.87) rotate(-42.55)"/><rect class="cls-2" x="1206.11" y="1303.72" width="197.19" height="30.32" rx="10.72" transform="translate(743.19 -846.14) rotate(41.92)"/></g></svg>