<svg xmlns="http://www.w3.org/2000/svg" viewBox="0 0 1703.83 1648.5"><defs><style>.cls-1{fill:#ffd200;}.cls-2{fill:#1d1d1b;}</style></defs><g id="fondo"><circle class="cls-1" cx="726.5" cy="726.5" r="726.5"/></g><g id="Mosquito"><path class="cls-2" d="M356,1391l20-19c7.62-5.48,20.17-14.38,36-25,31-20.8,38.22-23.8,59-39a530.69,530.69,0,0,0,43-35c14.86-13.47,26.87-25.92,36-36q19-19.87,39-40c25.08-25.22,30.69-29.43,52-51,16-16.15,28.63-29.8,37-39l41-37,15-22a187.92,187.92,0,0,0,35-40q3.5-14.5,7-29l3-69q2-33.5,4-67c1.42-10,2.51-21.08,3-33,.39-9.58.34-18.61,0-27l-3-33q4-15.5,8-31l10-20q1-13.5,2-27-1-7-2-14V645l12,5,20,14,26,7,28,1,19,3,67,25,135,47,27,12,17,3h11l11,2,10,6q2.51,9.5,5,19,1,11,2,22,2,7.5,4,15l6,13c-.33,3.33-.67,6.67-1,10l-15-6-60-31-61-25-60-29-51-24-37-11-30-10-23-3-20,3-13,6-7,10q-.5,7.5-1,15,3.5,11.5,7,23,7,18.5,14,37l6,14,24,45,25,47,16,32,6,17q2.5,9.5,5,19l5,14,12,18,16,27,10,22q4,11,8,22,4,13.5,8,27,3.5,13.5,7,27l9,26,8,15,10,18,8,14,3,13v39q-3.49,25-7,50l-3,48q-3.5,33.49-7,67l-3,47q-5,63-10,126l-9,93-6,26-14,35q-9.5,20.51-19,41l-15,19-11,18-9,15-8,13-25,15,7,6,19-1,21-18,25-36,23-46,12-40q5.5-21.49,11-43l9-58,12-92,9-100q4-42,8-84,2-47,4-94,.49-46.5,1-93l-3-19-12-36-24-36-28-56-34-65-40-82-29-65-9-20q-2.5-6.5-5-13l4-9,16,2,45,17,33,13,61,35,38,19,30,16,31,10,28,14,27,13,21,10,19,2,25,1,22-1,18-1,9,1,6,8q-2.51,6.5-5,13l-17,16-18,2h-23l-15,1a38.63,38.63,0,0,0-13,6,42.19,42.19,0,0,0-11,12,55.56,55.56,0,0,0-7,15v64q2,9.49,4,19l11,26,6,20q2,10.5,4,21,4,9.49,8,19l25,49,34,72,29,62q7,14,14,28,8.51,24.49,17,49l15,39q8.51,24.49,17,49,7,21,14,42l13,43q8,24,16,48,8.51,26,17,52,8,27,16,54l7,25q5,24,10,48,4,15.49,8,31,.49,7,1,14,1,8,2,16l11,3c6.33-5.85,7-10.65,7-13,0-3.6-1.64-5.75-6-14-2.73-5.17-4.77-9.4-6-12l-6-72-9-22-14-47-24-76q-11-33-22-66l-19-67-10-24-12-33-18-49-24-61-19-46-25-47-17-36-21-47q-3.49-12-7-24l-19-40q-2-8-4-16-2-9-4-18-1-21-2-42a136,136,0,0,1,6-22c3.21-8.76,5.22-11.38,8-13,4.84-2.83,10.41-1.72,13-1a246.13,246.13,0,0,0,27,2c9,.17,15.82.3,25-1,5.69-.81,11.13-2.2,22-5,8.53-2.19,13.89-3.58,21-6,11.62-4,17.43-5.92,22-10a40.36,40.36,0,0,0,11-17c1.86-5.5,2.51-11.53,3-16,1-9,.29-12.62,3-15s7.46-1.92,11-1h44q-1,7-2,14a82.1,82.1,0,0,0-9,19,87.12,87.12,0,0,0-4,25c-.17,9.42-.33,18.36,4,28,3.86,8.59,6.13,6.26,18,22,9,12,10.94,17.6,19,22a34.38,34.38,0,0,0,14,4l19,1q2.51,5,5,10l12,49,30,132q9.49,46,19,92,7,38,14,76l12,53,6,25a142.25,142.25,0,0,0,7,50,236.44,236.44,0,0,0,16,56l8-11c-.58-8-1.69-19.78-4-34-2.58-15.89-5.28-26.4-8-38-6.51-27.78-6.07-31.93-12-60-6.66-31.56-8.49-32.39-18-72-2.57-10.71-10.34-43.59-18-85-5.91-32-6.08-38.33-13-78-5.19-29.74-9.91-53.75-13-69-3.58-18-6.69-37.33-9-58q-2-18.12-3-35l7-15a123.29,123.29,0,0,0,15-20,126.61,126.61,0,0,0,17-51,102.88,102.88,0,0,0,0-23,92.91,92.91,0,0,0-4-18c-3-9-5.67-17.14-13-24a39.16,39.16,0,0,0-13-8l-28,3v-9c1.57-2.92,3.69-7,6-12,3.79-8.17,6.09-13.12,8-20,2.57-9.25,4.11-14.78,3-22-1.27-8.27-4.82-10.9-3-16s7.49-7.84,10-9c4.53-2.1,7.22-1.7,15-3a108.93,108.93,0,0,0,13-3l38-30,53-42,30-28,8,5v28l-3,86,3,39,3,194q1,14,2,28l6,16a347.71,347.71,0,0,0,18,37c4.19,7.46,12.6,21.78,30,45,8.3,11.08,19.25,25,44,53,25.72,29.12,38.67,43.79,58,63,23,22.91,19.08,16.43,69,63,18.14,16.93,31,29.29,55,51,11.78,10.66,21.54,19.31,28,25a62.31,62.31,0,0,0,19,16c4.37,2.32,9.09,4.07,14,9a36.28,36.28,0,0,1,7,10q1,7,2,14a11.15,11.15,0,0,0,13,2c4.84-2.72,6.89-9.39,4-15a115.67,115.67,0,0,0-7-14,92.2,92.2,0,0,0-14-19,72.81,72.81,0,0,0-27-17,354.78,354.78,0,0,0-64-62l-39-38-47-44-57-58-34-40-25-36a131.55,131.55,0,0,1-15-24,124.72,124.72,0,0,1-8-21,114.85,114.85,0,0,1-4-30l-6-55-3-72q-2.51-52-5-104V679c.18-1.84.93-11.65-6-19-4.86-5.15-10.94-6.38-14-7a31.39,31.39,0,0,0-16,1l-24,10a328.23,328.23,0,0,0-30,18c-9.68,6.55-24,17-24,17-1,.17-5.49.83-9-2-4.09-3.3-5.22-10-2-16a285.12,285.12,0,0,0-15-108c-3.78-21.44-8.37-35.22-12-44-1.16-2.81-4-9.48-7-19a148.51,148.51,0,0,1-5-19c-2-10.83-1.13-14.22-4-21a40.14,40.14,0,0,0-7-11,35.71,35.71,0,0,0-16,6c-6,4.2-8.23,8.82-15,21-11.63,20.91-10.35,16.91-16,28-6.59,12.93-9.88,19.4-13,29-4.26,13.11-7,24-7,24a91.51,91.51,0,0,1-7,18c-2.66,5.19-4.4,7.34-7,8-4.66,1.17-9.19-3.2-10-4-2.89-2.58-7-6.08-12-10-7.52-5.85-13.9-10.81-22-15-9.94-5.14-18.19-6.9-28-9a159.08,159.08,0,0,0-31-4c-8.48-.21-13.72.4-22-2-5-1.44-10-2.89-14-7-5.62-5.73-5.55-12.73-7-23-.15-1-2.61-18-8-32-5.55-14.44-13.78-24.6-23-36-6.45-8-6.19-6.29-16-18a61.8,61.8,0,0,0-11-11c-4.9-3.69-9-6.67-14-6-5.44.72-8.86,5.32-10,7a98.51,98.51,0,0,0-3,18c-1,14,1.8,17.84,0,32-.81,6.37-2,10.23-4,17-2.24,7.46-3.51,9.46-5,11-4.5,4.63-11,5-14,5l-21-8-22-12a211.69,211.69,0,0,0-44-26c-21.15-9.24-35.1-11.13-56-17a382.28,382.28,0,0,1-71-28l-69-25-30-7-31-5-38-4-45,3-34,1a71,71,0,0,0-20,1c-8.36,1.63-16.43,3.21-22,10a24.46,24.46,0,0,0-5,11q1,8,2,16l-10,5a92.1,92.1,0,0,0-40,5,44.26,44.26,0,0,0-10,8c-5.75,6.17-8.23,12.42-10,17a49.87,49.87,0,0,0-4,17c-.22,5.88,1.19,10.92,4,21,2.74,9.8,4.11,14.7,7,19s6.53,7.1,14,13c7.66,6,12.08,9.48,19,12,3.93,1.43,7,2,13,3,10.24,1.77,13.08,1,19,3a37.05,37.05,0,0,1,12,7,28.85,28.85,0,0,1,18,24,83.83,83.83,0,0,0,3,35,87.5,87.5,0,0,0,42,20,93.34,93.34,0,0,1,33,11l6,12q-5,19-10,38l-9,33-6,66q-3.5,39.5-7,79-2,30.5-4,61-2.5,21-5,42-2.5,10.5-5,21c-3,5.84-6.36,11.86-10,18-6.28,10.61-12.69,20.27-19,29-8.74,12.28-18.38,25-29,38-8.42,10.31-16.79,20-25,29l-51,52-37,38-64,61-29,28-38,31-20,12-18,14-33,25-19,13-9,11Z" transform="translate(-339.5 -241.5)"/></g></svg>