<svg xmlns="http://www.w3.org/2000/svg" viewBox="0 0 1463 1453"><defs><style>.cls-1{fill:#005eaa;}.cls-2{fill:#1d1d1b;}.cls-3{fill:#fff;}</style></defs><g id="circulo"><circle class="cls-1" cx="726.5" cy="726.5" r="726.5"/></g><g id="cuadrado1"><path class="cls-2" d="M385,1298.67h0q87.93-355.26,175.85-710.53a35.73,35.73,0,0,1,14.26-20.2,35.34,35.34,0,0,1,20.2-5.94h1024.2a64.68,64.68,0,0,1,48.71,20.2l14.26,64.16,160.41,652.31a42.77,42.77,0,0,1,3.56,24.95,37.09,37.09,0,0,1-9.51,20.2,36.45,36.45,0,0,1-20.19,10.69L434.9,1355.7l-29.7-1.19-16.64-16.63h0" transform="translate(-384 -229)"/><path class="cls-3" d="M475.3,1282,621.45,604.78l985-2.38L1753.77,1282Z" transform="translate(-384 -229)"/><path class="cls-2" d="M505,1255.9q67.13-319,134.26-638.05l947,2.37q68.91,319,137.83,638.05Z" transform="translate(-384 -229)"/><path class="cls-3" d="M671.35,695.08h380.21l8.32-7.13V660.62l-8.32-5.94L676.1,653.49l-5.94,4.76-3.56,10.69q-1.2,7.72-2.38,15.45Z" transform="translate(-384 -229)"/><path class="cls-3" d="M1151.37,655.87l-4.75,10.69v19l5.94,10.7,380.21-1.19,7.13-7.13-2.37-25-8.32-9.51Z" transform="translate(-384 -229)"/><path class="cls-3" d="M1153.75,736.66l-5.94,8.32q-.6,10.69-1.19,21.39,3.56,7.73,7.13,15.45l395.66-1.19q2.37-5.36,4.75-10.7A84.12,84.12,0,0,0,1553,753.3c-1.46-8.45-3.31-11.34-4.75-13.07a19.27,19.27,0,0,0-5.94-4.75Z" transform="translate(-384 -229)"/><path class="cls-3" d="M1154.93,824.59l-5.94,9.5v34.46l9.51,8.32,405.17-1.19q3.55-4.15,7.12-8.32V844.79l-5.94-16.64-7.13-4.75Z" transform="translate(-384 -229)"/><path class="cls-3" d="M1158.5,920.83l-7.13,8.32q-.6,16-1.19,32.08,2.38,6.54,4.75,13.07l428.93-3.57,6-10.69a66.47,66.47,0,0,0-2.38-21.39c-2.6-9.16-5.92-13-7.13-14.25a26.89,26.89,0,0,0-5.94-4.76Z" transform="translate(-384 -229)"/><path class="cls-3" d="M1157.31,1023a45.52,45.52,0,0,0-5.94,11.89,46.44,46.44,0,0,0-1.19,23.76l3.57,19,5.94,5.94,443.18-2.38q2.39-5.34,4.76-10.69a96.67,96.67,0,0,1-3.57-26.14c0-3.41.3-8.14-2.37-13.07a22.11,22.11,0,0,0-8.32-8.32Z" transform="translate(-384 -229)"/><path class="cls-3" d="M1157.31,1134.7a49.91,49.91,0,0,0-4.75,11.88,51.26,51.26,0,0,0,0,25v17.82l10.69,9.5h462.2q2.37-6.52,4.75-13.07a108.18,108.18,0,0,1-4.75-28.51c-.11-4.63.09-10.27-3.56-15.45a20.85,20.85,0,0,0-9.51-7.13Z" transform="translate(-384 -229)"/><path class="cls-3" d="M584.61,1133.51c-3.38,9-6.13,17-8.31,23.77-4.68,14.4-5.93,20.27-4.76,27.33a36.66,36.66,0,0,0,3.57,10.69l466.95,3.56a66.09,66.09,0,0,0,5.94-14.25c.57-2,1.82-6.8,2.38-25,.49-16.26-.32-19.06-2.38-21.38-3.63-4.08-9.43-4.74-13.07-4.76Z" transform="translate(-384 -229)"/><path class="cls-3" d="M608.38,1021.83a72.72,72.72,0,0,0-9.51,15.44c-2.91,6.41-7.32,16.14-5.94,28.52a44,44,0,0,0,4.75,15.44l447.94-1.18q2.39-5.94,4.76-11.89c.39-10.5.77-18.33,1.18-25a28.19,28.19,0,0,0-1.18-11.88,26.16,26.16,0,0,0-6-9.5Z" transform="translate(-384 -229)"/><path class="cls-3" d="M617.88,973.11H1048a48.78,48.78,0,0,0,3.56-9.5c1.53-5.85.77-7.44,1.19-22.58.23-8.1.52-10.65-1.19-14.26a19.48,19.48,0,0,0-5.94-7.13L625,920.83l-5.94,9.51q-1.79,9.49-3.56,19-.6,7.73-1.19,15.44C615.51,967.57,616.69,970.34,617.88,973.11Z" transform="translate(-384 -229)"/><path class="cls-3" d="M646.4,823.4a32.9,32.9,0,0,0-8.32,9.51c-3,5.28-3.61,9.86-4.75,19-.89,7.08-1.3,10.72,0,15.44a27.93,27.93,0,0,0,4.75,9.51l407.54,1.19,9.51-9.51q1.78-8.31,3.56-16.63-.59-10.11-1.19-20.2l-9.5-8.32Z" transform="translate(-384 -229)"/><path class="cls-3" d="M661.84,735.48a29.88,29.88,0,0,0-7.13,8.31c-4.73,8.27-4,16.68-3.56,22.58a55.59,55.59,0,0,0,3.56,15.45l5.95,4.75,390.9-1.19a46,46,0,0,0,5.94-13.07,46.52,46.52,0,0,0,1.19-19L1056.32,739l-7.13-4.75Z" transform="translate(-384 -229)"/></g></svg>