<?xml version="1.0" encoding="UTF-8"?>
<svg width="88px" height="119px" viewBox="0 0 88 119" version="1.1" xmlns="http://www.w3.org/2000/svg" xmlns:xlink="http://www.w3.org/1999/xlink">
    <!-- Generator: Sketch 64 (93537) - https://sketch.com -->
    <title>report_002</title>
    <desc>Created with Sketch.</desc>
    <g id="Page-1" stroke="none" stroke-width="1" fill="none" fill-rule="evenodd">
        <g id="Artboard" transform="translate(-299.000000, -91.000000)">
            <g id="report_002" transform="translate(299.000000, 91.000000)">
                <path d="M43.9023437,7.10542736e-15 C68.1489387,7.10542736e-15 87.8046875,19.6557488 87.8046875,43.9023437 C87.8046875,58.3417808 76.1272385,78.3770666 52.7723405,104.008201 C52.5221024,104.282828 52.2592452,104.545685 51.9846182,104.795923 C47.0858532,109.259641 39.4960612,108.906966 35.0323432,104.008201 L35.0323432,104.008201 L34.3352016,103.240944 C11.4450672,77.9769195 0,58.1973861 0,43.9023437 C0,19.6557488 19.6557488,7.10542736e-15 43.9023437,7.10542736e-15 Z M43.9023438,20.1167963 C31.2200654,20.1167963 20.9390474,30.3978143 20.9390474,43.0800927 C20.9390474,55.762371 31.2200654,66.043389 43.9023438,66.043389 C56.5846221,66.043389 66.8656401,55.762371 66.8656401,43.0800927 C66.8656401,30.3978143 56.5846221,20.1167963 43.9023438,20.1167963 Z" id="Combined-Shape" fill="#FD9A1C"></path>
                <ellipse id="Oval" fill="#000000" opacity="0.262834821" cx="43.9023438" cy="117.216797" rx="15" ry="1.21679688"></ellipse>
            </g>
        </g>
    </g>
</svg>