<svg id="Capa_1" data-name="Capa 1" xmlns="http://www.w3.org/2000/svg" viewBox="0 0 251 252"><defs><style>.cls-1{fill:#fff;fill-rule:evenodd;}</style></defs><ellipse cx="125.5" cy="126" rx="125.5" ry="126"/><path class="cls-1" d="M588,367.19v9.12c0,17.37,7.85,31.46,18.2,41.77s23,17.7,34.94,24.82,23.09,14,30.62,21.46a49.34,49.34,0,0,1,6.07,7.23H616a49.43,49.43,0,0,1,6.08-7.23,97.52,97.52,0,0,1,14.28-11.27l-.92-.56c-6.27-3.74-13-7.7-19.71-12.31a102.65,102.65,0,0,0-9.48,8.24c-10.35,10.31-18.2,24.4-18.2,41.78s7.85,31.46,18.2,41.77,23,17.71,34.94,24.83,23.09,14,30.62,21.45a51.22,51.22,0,0,1,5.5,6.4H616.53a50.51,50.51,0,0,1,5.51-6.4,101.87,101.87,0,0,1,15.59-12.11l-1.51-.92c-6.16-3.68-12.74-7.54-19.26-12a102.37,102.37,0,0,0-10.65,9.14c-10.35,10.3-18.2,24.39-18.2,41.76V613h22.43v-8.84a34.89,34.89,0,0,1,1.3-9.66h70.33a35.28,35.28,0,0,1,1.29,9.66V613H705.8v-8.84c0-17.37-7.85-31.46-18.2-41.76s-23-17.71-34.94-24.83-23.09-14-30.62-21.46a51.88,51.88,0,0,1-5.5-6.39h60.72a51.77,51.77,0,0,1-5.49,6.39,102.36,102.36,0,0,1-15.59,12.11l1.51.92c6.15,3.68,12.74,7.54,19.25,12A103.6,103.6,0,0,0,687.6,532c10.35-10.31,18.2-24.4,18.2-41.77s-7.85-31.47-18.2-41.78-23-17.7-34.94-24.82-23.09-14-30.62-21.46a50.33,50.33,0,0,1-5.7-6.67h61.12a51,51,0,0,1-5.69,6.67,97.39,97.39,0,0,1-14.28,11.27l.92.56c6.27,3.75,13,7.7,19.71,12.31a99.72,99.72,0,0,0,9.48-8.24c10.35-10.31,18.2-24.4,18.2-41.77v-9.12H683.36v9.12a35.12,35.12,0,0,1-1.22,9.39H611.66a35.12,35.12,0,0,1-1.22-9.39v-9.12Zm23.5,114.22H682.3a35.62,35.62,0,0,1,1.06,8.83,34.92,34.92,0,0,1-1.29,9.67H611.74a34.91,34.91,0,0,1-1.3-9.67A35.6,35.6,0,0,1,611.51,481.41Z" transform="translate(-519 -361)"/></svg>