<?xml version="1.0" encoding="UTF-8"?>
<svg width="251px" height="252px" viewBox="0 0 251 252" version="1.1" xmlns="http://www.w3.org/2000/svg" xmlns:xlink="http://www.w3.org/1999/xlink">
    <title>ADN</title>
    <g id="Page-1" stroke="none" stroke-width="1" fill="none" fill-rule="evenodd">
        <g id="ADN" fill="#000000" fill-rule="nonzero">
            <path d="M160.67,231.5 C161.544818,234.644817 161.978959,237.895828 161.96,241.16 L161.960736,246.600159 C150.422231,250.111798 138.180747,252 125.5,252 C112.818886,252 100.577061,250.111688 89.0382633,246.599855 L89.04,241.16 C89.0192038,237.895034 89.4568063,234.643311 90.34,231.5 L160.67,231.5 Z M84.8,55.08 C95.15,65.39 107.8,72.78 119.74,79.9 C131.68,87.02 142.83,93.9 150.36,101.36 C152.609765,103.570454 154.6424,105.991532 156.43,108.59 L94.6,108.59 C96.3912013,105.991423 98.4271631,103.570369 100.68,101.36 C105.07845,97.166601 109.859245,93.3935224 114.96,90.09 L114.04,89.53 C107.77,85.79 101.04,81.83 94.33,77.22 C91.0047598,79.7705766 87.8388344,82.5223935 84.85,85.46 C74.5,95.77 66.65,109.86 66.65,127.24 C66.65,144.62 74.5,158.7 84.85,169.01 C95.2,179.32 107.85,186.72 119.79,193.84 C131.73,200.96 142.88,207.84 150.41,215.29 C152.416247,217.268422 154.255822,219.409018 155.91,221.69 L95.13,221.69 C96.7847902,219.406595 98.6278974,217.265781 100.64,215.29 C105.432368,210.758148 110.653544,206.702444 116.23,203.18 L114.72,202.26 C108.56,198.58 101.98,194.72 95.46,190.26 C91.7050941,193.059451 88.1467342,196.113292 84.81,199.4 C75.225669,208.93803 67.7851313,221.72605 66.736716,237.359081 C27.0366179,216.202251 0,174.271075 0,126 C0,77.7775029 26.9822283,35.8821505 66.6158779,14.7018449 C67.0242727,31.4355429 74.7285024,45.047426 84.8,55.08 Z M184.383124,14.7013115 C224.017319,35.8814471 251,77.777098 251,126 C251,174.267027 223.967917,216.195218 184.274294,237.356777 C183.222968,221.722783 175.783107,208.936811 166.2,199.4 C155.85,189.1 143.2,181.69 131.26,174.57 C119.32,167.45 108.17,160.57 100.64,153.11 C98.636343,151.132742 96.7969374,148.995687 95.14,146.72 L155.86,146.72 C154.206633,148.995608 152.370556,151.132682 150.37,153.11 C145.575629,157.639516 140.354688,161.695038 134.78,165.22 L136.29,166.14 C142.44,169.82 149.03,173.68 155.54,178.14 C159.295954,175.337925 162.857466,172.284246 166.2,169 C176.55,158.69 184.4,144.6 184.4,127.23 C184.4,109.86 176.55,95.76 166.2,85.45 C155.85,75.14 143.2,67.75 131.26,60.63 C119.32,53.51 108.17,46.63 100.64,39.17 C98.549462,37.1168298 96.6422171,34.8850186 94.94,32.5 L156.06,32.5 C154.358307,34.8825392 152.454608,37.114116 150.37,39.17 C145.972049,43.3639736 141.191198,47.1370961 136.09,50.44 L137.01,51 C143.28,54.75 150.01,58.7 156.72,63.31 C160.050015,60.7652744 163.216294,58.0131497 166.2,55.07 C176.156962,45.151519 183.800192,31.7346755 184.366332,15.2646433 Z M160.9,118.41 C161.620826,121.297493 161.976934,124.263942 161.96,127.24 C161.984591,130.507815 161.550354,133.762906 160.67,136.91 L90.34,136.91 C89.4561377,133.763414 89.0185314,130.508296 89.04,127.24 C89.0261251,124.263509 89.3855968,121.297028 90.11,118.41 L160.9,118.41 Z M125.5,0 C138.180747,0 150.422231,1.88820248 161.960736,5.39984075 L161.96,13.3 C161.979082,16.4707221 161.568686,19.6294246 160.74,22.69 L90.26,22.69 C89.4313138,19.6294246 89.020918,16.4707221 89.04,13.3 L89.0382633,5.40014542 C100.577061,1.8883117 112.818886,0 125.5,0 Z" id="Combined-Shape"></path>
        </g>
    </g>
</svg>