<svg id="Capa_1" data-name="Capa 1" xmlns="http://www.w3.org/2000/svg" viewBox="0 0 245.69 339.5"><path d="M1110,940.75A122.84,122.84,0,0,0,987.16,1063.6c0,97.78,122.84,216.65,122.84,216.65s122.84-118.87,122.84-216.65A122.84,122.84,0,0,0,1110,940.75Zm0,212.49a89.65,89.65,0,1,1,89.64-89.65A89.64,89.64,0,0,1,1110,1153.24Z" transform="translate(-987.16 -940.75)"/><polygon points="182.81 74.66 63.18 74.66 123 120.68 182.81 74.66"/><path d="M1110.15,1072.11a4.77,4.77,0,0,1-2.88-1L1044,1022.45v82.73a4.73,4.73,0,0,0,4.73,4.73h122.85a4.73,4.73,0,0,0,4.72-4.73v-82.73L1113,1071.11A4.77,4.77,0,0,1,1110.15,1072.11Z" transform="translate(-987.16 -940.75)"/></svg>