<svg id="Capa_1" data-name="Capa 1" xmlns="http://www.w3.org/2000/svg" viewBox="0 0 263.45 263.45"><path d="M1100,978.78,992.24,1086.55,1134,1228.26l107.78-107.78Zm-4.24,103.53h-87.3l87.3-87.3Zm0,8.48V1095a29.72,29.72,0,0,0,29.69,29.68h4.24V1212l-121.23-121.24Zm42.41,33.93h87.3l-87.3,87.31Zm-12.72-8.48a21.23,21.23,0,0,1-21.21-21.2V995l121.23,121.23Z" transform="translate(-978.27 -978.78)"/><rect x="992.33" y="1195.93" width="81.45" height="8.48" transform="translate(-1524.35 103.23) rotate(-45)"/><rect x="992.89" y="1232.32" width="7.54" height="8.48" transform="translate(-1560.74 88.15) rotate(-45)"/><rect x="967.22" y="1188.34" width="95.96" height="8.48" transform="translate(-1524.21 88.38) rotate(-45)"/><rect x="1036.1" y="1213.78" width="59.97" height="8.48" transform="translate(-1527.29 131.82) rotate(-45)"/><rect x="1031.05" y="1219.58" width="7.58" height="8.48" transform="translate(-1540.55 111.42) rotate(-45)"/><rect x="1036.14" y="1195.77" width="45.03" height="8.48" transform="translate(-1516.74 121.28) rotate(-45)"/><rect x="985.21" y="1162.89" width="59.97" height="8.48" transform="translate(-1506.21 80.92) rotate(-45)"/><rect x="972.49" y="1150.17" width="59.97" height="8.48" transform="translate(-1500.94 68.2) rotate(-45)"/></svg>