<svg id="Capa_1" data-name="Capa 1" xmlns="http://www.w3.org/2000/svg" viewBox="0 0 242.5 223.23"><path d="M1128.94,1212.61c-14.43,0-30.92-5.35-47.1-10.6l-1.45-.47c-26.76-8.68-54.45-17.67-71.6-.5a1.92,1.92,0,1,1-2.67-2.76c18.8-18.8,48.89-9,75.44-.42l1.46.48c27.76,9,54,17.51,69.93,1.55a1.91,1.91,0,1,1,2.67,2.74C1148.33,1209.94,1139.15,1212.61,1128.94,1212.61Z" transform="translate(-986.33 -1052.6)"/><path d="M1081.67,1275.83a1.9,1.9,0,0,1-1.34-3.24c13.86-13.86,10.51-34.35,4.81-54.43-.85-3-1.9-6.27-3.11-10.3-.55-1.84-1.15-3.68-1.78-5.53l-.94-2.8c-8.92-27.61-18.18-56.17-.57-73.78a1.89,1.89,0,0,1,2.67,2.67c-16,16-7.46,42.19,1.55,69.94l.91,2.8c.59,1.85,1.19,3.7,1.78,5.55,1.23,4.07,2.27,7.38,3.12,10.51,5.69,20.18,9.47,42.87-5.77,58.13A2,2,0,0,1,1081.67,1275.83Z" transform="translate(-986.33 -1052.6)"/><path d="M1154.3,1203.2a1.89,1.89,0,0,1-1.91-1.88,1.92,1.92,0,0,1,.56-1.36c17.18-17.17,8-45.58-1-73s-18.24-56.17-.63-73.86a1.89,1.89,0,0,1,2.67,2.67c-16,16-7.46,42.19,1.55,70,9.28,28.56,18.94,58.1,0,76.9A1.85,1.85,0,0,1,1154.3,1203.2Z" transform="translate(-986.33 -1052.6)"/><path d="M1201.56,1140c-14.43,0-30.92-5.36-47.09-10.6-20.42-6.63-41.53-13.49-57.87-9.47a32.73,32.73,0,0,0-8,3.09,31.63,31.63,0,0,0-7.18,5.41,1.89,1.89,0,0,1-2.67-2.67,35.47,35.47,0,0,1,8-6.06,36.61,36.61,0,0,1,8.92-3.44c17.38-4.27,39,2.76,59.93,9.46,27.84,9.09,54,17.65,70,1.63a1.92,1.92,0,0,1,2.67,2.77C1221,1137.32,1211.86,1140,1201.56,1140Z" transform="translate(-986.33 -1052.6)"/><path d="M1208.66,1121.34a1.93,1.93,0,0,1-1.34-.55L1160.54,1074a1.9,1.9,0,0,1,2.69-2.62l46.74,46.7a1.9,1.9,0,0,1,0,2.68,1.92,1.92,0,0,1-1.35.56Z" transform="translate(-986.33 -1052.6)"/><path d="M1187.78,1125.05a1.89,1.89,0,0,1-1.35-.55l-29.6-29.6a1.9,1.9,0,0,1,2.69-2.67l29.62,29.58a1.9,1.9,0,0,1,0,2.68,1.92,1.92,0,0,1-1.36.56Z" transform="translate(-986.33 -1052.6)"/><path d="M1074.5,1255.51a1.93,1.93,0,0,1-1.35-.55l-46.77-46.78a1.9,1.9,0,0,1,.2-2.67,1.92,1.92,0,0,1,2.47,0l46.77,46.78a1.9,1.9,0,0,1-1.34,3.24Z" transform="translate(-986.33 -1052.6)"/><path d="M1078.23,1234.6a1.89,1.89,0,0,1-1.35-.55l-29.6-29.6a1.89,1.89,0,0,1,2.67-2.67l29.6,29.58a1.9,1.9,0,0,1-1.34,3.24Z" transform="translate(-986.33 -1052.6)"/><path d="M1135.3,1194.7a1.87,1.87,0,0,1-1.34-.55l-46.78-46.77a1.89,1.89,0,0,1,2.67-2.67l46.78,46.77a1.9,1.9,0,0,1,0,2.68,1.92,1.92,0,0,1-1.36.56Z" transform="translate(-986.33 -1052.6)"/><path d="M1114.76,1198.07a1.89,1.89,0,0,1-1.35-.55l-29.6-29.54a1.89,1.89,0,0,1,2.67-2.67l29.62,29.52a1.9,1.9,0,0,1,0,2.68A1.92,1.92,0,0,1,1114.76,1198.07Z" transform="translate(-986.33 -1052.6)"/><path d="M1147.12,1182.88a1.87,1.87,0,0,1-1.35-.55L1099,1135.56a1.89,1.89,0,0,1,2.67-2.67l46.77,46.77a1.89,1.89,0,0,1-1.34,3.24Z" transform="translate(-986.33 -1052.6)"/><path d="M1150.49,1162.3a2,2,0,0,1-1.35-.55l-29.59-29.56a1.89,1.89,0,0,1,2.67-2.67l29.61,29.58a1.89,1.89,0,0,1-.06,2.68A1.91,1.91,0,0,1,1150.49,1162.3Z" transform="translate(-986.33 -1052.6)"/><path d="M1050.51,1111l-9.5-17.42c8.34.17,17.6-.64,20.94-3.26,6.2-4.85.5-8.2-1.84-8.2-6,.43-18.78,2.69-26.89,4.21l-4.4-2.63c0-.22.12-.44.16-.67,4.62-1.32,12.94-5.08,13-15.27,6.55-5.47,14.9-12.4,14.9-12.4l-.46-.55-15,12.51-.13.11v.17c0,9.79-7.74,13.42-12.25,14.71,0-.21,0-.41,0-.61,0-3.39-.76-2.76-1.24-2.76l-1,0v-.59c.84-.09,2-.43,2-1.65,0-.64-1.1-1.46-2-1.88l-.91-10.62-.91,10.62c-.89.42-2,1.23-2,1.88,0,1.22,1.13,1.56,2,1.65v.59l-1,0c-.48,0-1.23-.63-1.23,2.76,0,.2,0,.4,0,.6-4.52-1.28-12.25-4.91-12.25-14.7v-.17l-.13-.11c-6.57-5.48-15-12.51-15-12.51l-.45.55,14.9,12.4c.09,10.19,8.41,14,13,15.27,0,.23.1.45.15.67l-4.39,2.63c-8.12-1.51-20.88-3.78-26.9-4.21-2.34,0-8,3.35-1.84,8.2,3.35,2.62,12.61,3.43,21,3.26l-9.5,17.43-15,10.72.41.58,15.07-10.77,9.83-18a70.43,70.43,0,0,0,11.38-1.11l-8.49,13.25-.09.12,4.7,19.29-13.68,30.18.65.3,13.73-30.3,0-.11-4.68-19.23,8.81-13.73.22,0a60.84,60.84,0,0,0-.58,8.86c0,7.35,1,13.31,2.26,13.31s2.26-5.95,2.26-13.31a59.32,59.32,0,0,0-.59-8.86l.23,0,8.81,13.73-4.65,19.11,0,.12,13.77,30.41.65-.3-13.68-30.18,4.7-19.29-8.58-13.37a70.42,70.42,0,0,0,11.37,1.11l9.74,17.86,15.17,10.89.41-.58Zm-18.35-24.47-4.93.94a15.56,15.56,0,0,0,1.4-3Zm-9-2.11a15,15,0,0,0,1.4,3l-4.93-.94Z" transform="translate(-986.33 -1052.6)"/></svg>