<?xml version="1.0"?>
<svg width="66" height="66" xmlns="http://www.w3.org/2000/svg" xmlns:svg="http://www.w3.org/2000/svg" enable-background="new 0 0 66 66" version="1.1" xml:space="preserve">
 <g class="layer">
  <title>Layer 1</title>
  <path d="m5.46,46.94c0.04,0.08 0.09,0.16 0.13,0.25c-0.96,0.85 -1.59,2 -1.71,3.19c-0.25,2.49 1.54,4.95 3.98,5.49c0.35,0.08 0.69,0.12 1.04,0.12c1,0 1.98,-0.32 2.83,-0.86c0.1,0.09 0.2,0.19 0.3,0.28c0.21,0.19 0.44,0.37 0.66,0.55c0.24,0.2 0.47,0.4 0.72,0.6c0.23,0.18 0.46,0.34 0.69,0.51c0.25,0.19 0.5,0.37 0.75,0.55c0.23,0.16 0.47,0.31 0.71,0.47c0.26,0.17 0.52,0.35 0.79,0.51c0.24,0.15 0.48,0.28 0.72,0.42c0.28,0.16 0.55,0.32 0.83,0.47c0.24,0.13 0.49,0.25 0.73,0.37c0.29,0.15 0.58,0.3 0.87,0.43c0.24,0.11 0.49,0.22 0.74,0.33c0.3,0.13 0.6,0.27 0.9,0.39c0.25,0.1 0.5,0.19 0.75,0.29c0.31,0.12 0.62,0.24 0.93,0.34c0.25,0.09 0.5,0.16 0.75,0.24c0.32,0.1 0.63,0.2 0.95,0.3c0.25,0.07 0.51,0.14 0.76,0.2c0.32,0.08 0.64,0.17 0.97,0.24c0.26,0.06 0.52,0.11 0.78,0.16c0.32,0.07 0.64,0.13 0.96,0.19c0.27,0.05 0.53,0.08 0.8,0.12c0.32,0.05 0.64,0.09 0.95,0.13c0.28,0.03 0.55,0.06 0.83,0.08c0.31,0.03 0.62,0.06 0.93,0.08c0.29,0.02 0.58,0.03 0.86,0.04c0.12,0 0.24,0.01 0.35,0.02c0.08,0.01 0.16,0.01 0.23,0.01c0,0 0.01,0 0.01,0l0,0c0.12,0.01 0.24,0.01 0.35,0.01c0.05,0 0.09,-0.01 0.14,-0.01c0.04,0 0.08,0 0.12,0c4.41,0 8.78,-0.92 12.75,-2.84c4.22,-2.08 8.04,-5.24 11.04,-9.15c7.17,-9.33 8.79,-21.38 4.11,-30.71c-0.37,-0.73 -0.75,-1.44 -1.15,-2.13c1.17,-1.5 1.5,-3.66 0.65,-5.42c-0.54,-1.1 -1.67,-2.04 -3.03,-2.5c-1.27,-0.43 -2.59,-0.4 -3.66,0.06c-5.39,-5.22 -12.21,-8.13 -19.66,-8.29c-0.37,-0.01 -0.74,-0.01 -1.11,0l-0.08,0c-0.11,0 -0.22,0.01 -0.33,0.01c-0.02,0 -0.03,0 -0.05,0c-0.43,0.01 -0.87,0.04 -1.3,0.07c-0.17,0.01 -0.34,0.02 -0.51,0.04c-0.38,0.03 -0.76,0.08 -1.15,0.13c-0.22,0.03 -0.44,0.05 -0.66,0.09c-0.35,0.05 -0.7,0.11 -1.04,0.18c-0.25,0.05 -0.5,0.09 -0.75,0.14c-0.31,0.11 -0.63,0.18 -0.96,0.26c-0.27,0.06 -0.54,0.13 -0.8,0.2c-0.31,0.08 -0.62,0.17 -0.92,0.26c-0.28,0.08 -0.55,0.16 -0.83,0.25c-0.3,0.1 -0.6,0.2 -0.89,0.3c-0.28,0.1 -0.55,0.2 -0.83,0.3c-0.29,0.11 -0.58,0.23 -0.87,0.34c-0.27,0.11 -0.54,0.23 -0.82,0.35c-0.28,0.13 -0.57,0.25 -0.85,0.39c-0.27,0.13 -0.53,0.26 -0.79,0.39c-0.28,0.14 -0.56,0.28 -0.83,0.43c-0.26,0.14 -0.51,0.29 -0.76,0.43c-0.27,0.16 -0.55,0.32 -0.82,0.48c-0.25,0.17 -0.49,0.33 -0.74,0.49c-0.27,0.17 -0.53,0.35 -0.8,0.53c-0.24,0.16 -0.47,0.33 -0.7,0.5c-0.26,0.19 -0.52,0.37 -0.77,0.57c-0.23,0.18 -0.45,0.36 -0.67,0.54c-0.25,0.2 -0.5,0.4 -0.74,0.61c-0.22,0.19 -0.44,0.4 -0.66,0.6c-0.23,0.21 -0.46,0.41 -0.68,0.62c-0.24,0.23 -0.47,0.47 -0.7,0.71c-0.19,0.19 -0.38,0.38 -0.57,0.58c-0.41,0.44 -0.81,0.89 -1.19,1.36c-7.58,9.21 -8.67,20.99 -2.98,32.32zm-2.29,-13.25l14.41,-0.02c0.07,3.93 0.56,8.07 1.53,12.32c-2.17,0.53 -4.2,1.22 -6.05,2.03c-0.63,-0.96 -1.5,-1.67 -2.46,-1.99c-1.29,-0.42 -2.7,-0.27 -3.96,0.41c-0.01,-0.03 -0.03,-0.05 -0.04,-0.08c-2.12,-4.21 -3.26,-8.5 -3.43,-12.67zm12.31,-16.26c-2.04,-0.74 -3.92,-1.59 -5.57,-2.57c0.38,-0.43 0.76,-0.86 1.16,-1.27l0.59,-0.59c0.13,-0.12 0.25,-0.24 0.38,-0.36c0.14,-0.13 0.28,-0.26 0.42,-0.39c0.27,-0.25 0.54,-0.48 0.81,-0.71c0.17,-0.15 0.34,-0.29 0.51,-0.43c0.23,-0.18 0.46,-0.37 0.69,-0.55c0.51,-0.39 1.02,-0.77 1.55,-1.13c0.2,-0.13 0.39,-0.27 0.6,-0.39c0.27,-0.18 0.55,-0.36 0.83,-0.52c0.19,-0.11 0.39,-0.23 0.58,-0.34c0.07,-0.04 0.15,-0.08 0.22,-0.12c0.22,-0.13 0.43,-0.24 0.65,-0.36c0.26,-0.14 0.52,-0.27 0.78,-0.41c0.26,-0.13 0.52,-0.26 0.79,-0.39c0.27,-0.13 0.53,-0.25 0.8,-0.37c0.27,-0.11 0.53,-0.23 0.81,-0.34c0.18,-0.08 0.36,-0.15 0.53,-0.22c0.17,-0.06 0.35,-0.13 0.53,-0.2c0.48,-0.18 0.96,-0.34 1.45,-0.5c0.24,-0.08 0.48,-0.15 0.72,-0.22c0.58,-0.17 1.18,-0.32 1.77,-0.46c0.25,-0.06 0.51,-0.12 0.77,-0.17c0.09,-0.02 0.19,-0.03 0.28,-0.05c-0.56,0.39 -1.12,0.85 -1.66,1.37c-2,1.91 -3.82,4.65 -5.28,7.99c-1.11,-0.23 -2.22,-0.12 -3.13,0.34c-1.29,0.64 -2.22,1.86 -2.58,3.36zm30.46,3.79c0.52,2.12 0.85,4.37 1.04,6.68c-0.81,0.08 -1.62,0.36 -2.36,0.84c-1.31,0.85 -2.18,2.2 -2.35,3.62l-8.67,0.01l-0.02,-10.6c0.01,0 0.03,0 0.04,0c3.98,0 7.9,-0.41 11.46,-1.28c0.22,-0.05 0.43,-0.11 0.64,-0.16c0.08,0.29 0.15,0.59 0.22,0.89zm16.86,12.37c0.01,0 0.02,-0.01 0.03,-0.01c-0.27,5.72 -2.35,11.58 -6.11,16.65c-2.49,-1.63 -5.84,-3.16 -9.88,-4.27c0.62,-2.56 1.07,-5.26 1.33,-8.01c1.77,-0.33 3.37,-1.58 3.99,-3.32c0.11,-0.32 0.18,-0.67 0.21,-1.03l10.43,-0.01zm-23.9,26.04c-1.61,1.61 -3.4,2.47 -5.25,2.56l-0.02,-12.33c0.69,-0.1 1.35,-0.33 1.95,-0.71c1.22,-0.77 2.02,-2.08 2.26,-3.49c2.67,0.22 5.15,0.64 7.43,1.19c-1.43,5.38 -3.62,9.99 -6.37,12.78zm-11.43,1.98c-0.44,-0.09 -0.88,-0.18 -1.31,-0.29c-0.22,-0.05 -0.44,-0.12 -0.67,-0.17c-0.24,-0.06 -0.48,-0.13 -0.72,-0.2c-0.24,-0.07 -0.48,-0.14 -0.72,-0.22c-0.22,-0.07 -0.43,-0.14 -0.65,-0.21c-0.25,-0.08 -0.49,-0.17 -0.74,-0.26c-0.21,-0.08 -0.41,-0.16 -0.62,-0.24c-0.44,-0.17 -0.88,-0.36 -1.31,-0.55c-0.19,-0.08 -0.38,-0.17 -0.57,-0.26c-0.25,-0.11 -0.49,-0.24 -0.73,-0.36c-0.19,-0.09 -0.37,-0.19 -0.56,-0.28c-0.24,-0.13 -0.48,-0.25 -0.71,-0.39c-0.18,-0.1 -0.37,-0.21 -0.55,-0.32c-0.23,-0.14 -0.46,-0.27 -0.69,-0.41c-0.21,-0.13 -0.42,-0.27 -0.63,-0.41c-0.35,-0.23 -0.7,-0.47 -1.04,-0.72c-0.19,-0.14 -0.39,-0.28 -0.58,-0.42c-0.2,-0.15 -0.39,-0.3 -0.59,-0.46c-0.19,-0.15 -0.38,-0.31 -0.57,-0.47c-0.18,-0.15 -0.36,-0.3 -0.54,-0.46c-0.09,-0.08 -0.17,-0.15 -0.25,-0.23c0.47,-0.5 0.85,-1.08 1.09,-1.73c0.35,-1.01 0.29,-2.26 -0.16,-3.41c1.76,-0.77 3.7,-1.43 5.76,-1.93c1.7,6.7 4.86,11.92 8.63,14.49c-0.01,0 -0.01,0 -0.02,0c-0.19,-0.02 -0.37,-0.05 -0.55,-0.09zm0.41,-15.85c0.13,0.86 0.47,1.67 1,2.32c0.86,1.05 2.15,1.68 3.48,1.81l0.02,12.26c-0.32,-0.04 -0.64,-0.11 -0.97,-0.2c-4.63,-1.3 -8.72,-7.03 -10.76,-15.01c2.48,-0.56 4.9,-0.94 7.23,-1.18zm4.7,-4.68c0.46,0 0.94,0.08 1.42,0.24c1.05,0.36 1.91,1.05 2.3,1.85c0.8,1.67 0.16,3.92 -1.4,4.9c0,0 0,0 0,0c-1.56,1 -3.86,0.63 -5.03,-0.8c-0.68,-0.83 -0.94,-2.04 -0.68,-3.22c0.25,-1.19 0.96,-2.15 1.95,-2.65c0.41,-0.21 0.91,-0.32 1.44,-0.32zm5.33,3.32c-0.04,-0.61 -0.19,-1.22 -0.46,-1.78c-0.54,-1.1 -1.67,-2.04 -3.03,-2.5c-0.27,-0.09 -0.54,-0.16 -0.81,-0.21l-0.01,-6.28l8.69,-0.01c0.31,2.04 1.89,3.85 3.94,4.31c0.21,0.05 0.41,0.07 0.62,0.09c-0.26,2.61 -0.69,5.18 -1.28,7.61c-2.35,-0.57 -4.92,-1 -7.66,-1.23zm6.87,-25.15c-3.45,0.84 -7.29,1.22 -11.21,1.2l-0.02,-16.66c0.02,0 0.05,0 0.07,0c0.55,0.01 1.11,0.08 1.68,0.25c4.16,1.22 7.7,6.53 10.08,15.06c-0.19,0.05 -0.39,0.1 -0.6,0.15zm-19.83,-2.84c-0.47,-0.97 -1.41,-1.81 -2.55,-2.31c1.38,-3.12 3.08,-5.66 4.96,-7.45c1.22,-1.16 2.92,-2.38 4.92,-2.75l0.03,16.55c-2.36,-0.06 -4.73,-0.28 -7.04,-0.62c0.27,-1.13 0.19,-2.35 -0.32,-3.42zm-8.27,1.43c0.25,-1.19 0.96,-2.15 1.95,-2.65c0.43,-0.21 0.93,-0.32 1.46,-0.32c0.46,0 0.94,0.08 1.42,0.24c1.05,0.36 1.91,1.05 2.3,1.85c0.8,1.67 0.16,3.92 -1.4,4.9c0,0 0,0 0,0c-1.56,1 -3.86,0.63 -5.03,-0.8c-0.7,-0.83 -0.95,-2.03 -0.7,-3.22zm3.71,5.86c0.94,0 1.88,-0.25 2.69,-0.76c0.73,-0.46 1.3,-1.11 1.7,-1.86c2.47,0.38 5,0.6 7.53,0.66l0.02,10.63l-13.5,0.02c0.01,-3.09 0.28,-6.02 0.76,-8.75c0.26,0.04 0.53,0.06 0.8,0.06zm11.93,9.94l0.01,6.18c-0.64,0.03 -1.24,0.18 -1.78,0.45c-1.33,0.67 -2.29,1.95 -2.62,3.52c-0.05,0.24 -0.08,0.47 -0.1,0.71c-2.42,0.23 -4.91,0.63 -7.49,1.21c-0.96,-4.17 -1.43,-8.21 -1.51,-12.05l13.49,-0.02zm12.14,26.45c-0.12,0.05 -0.23,0.09 -0.35,0.14c-0.34,0.14 -0.68,0.27 -1.03,0.39c-0.13,0.04 -0.25,0.09 -0.38,0.13c-0.37,0.12 -0.75,0.24 -1.12,0.35c-0.09,0.03 -0.17,0.05 -0.26,0.08c-0.95,0.26 -1.91,0.48 -2.89,0.64c-0.07,0.01 -0.13,0.02 -0.2,0.03c0.54,-0.38 1.06,-0.82 1.56,-1.33c0.01,0 0.01,0 0.01,0c2.94,-2.98 5.25,-7.77 6.74,-13.33c3.83,1.06 7.03,2.5 9.41,4.05c-0.16,0.2 -0.33,0.41 -0.49,0.61c-0.11,0.12 -0.21,0.25 -0.32,0.37c-0.27,0.31 -0.55,0.62 -0.83,0.91c-0.11,0.12 -0.23,0.25 -0.34,0.37c-0.28,0.29 -0.57,0.57 -0.86,0.85c-0.13,0.12 -0.25,0.24 -0.38,0.36c-0.27,0.25 -0.54,0.48 -0.82,0.72c-0.17,0.14 -0.33,0.29 -0.5,0.43c-0.27,0.22 -0.55,0.43 -0.83,0.65c-0.17,0.13 -0.33,0.26 -0.5,0.38c-0.33,0.24 -0.67,0.47 -1.01,0.7c-0.12,0.08 -0.24,0.17 -0.36,0.24c-0.43,0.28 -0.86,0.54 -1.3,0.79c-0.04,0.03 -0.09,0.05 -0.13,0.08c-0.49,0.28 -0.99,0.54 -1.49,0.79c-0.44,0.22 -0.88,0.42 -1.33,0.6zm18.41,-27.76c-0.02,0 -0.04,-0.01 -0.07,-0.01c0,0 0,0 0,0l-10.48,0.02c-0.09,-0.54 -0.26,-1.09 -0.52,-1.61c-0.63,-1.28 -1.66,-2.23 -2.83,-2.62c-0.23,-0.07 -0.46,-0.13 -0.69,-0.16c-0.2,-2.42 -0.55,-4.78 -1.1,-7.02c-0.08,-0.31 -0.15,-0.62 -0.23,-0.92c1.88,-0.52 3.61,-1.09 5.19,-1.71c0.09,0.14 0.19,0.28 0.29,0.41c0.98,1.19 2.49,1.83 4.01,1.83c0.94,0 1.88,-0.25 2.69,-0.76c0.1,-0.06 0.19,-0.13 0.28,-0.2c0.33,0.58 0.65,1.17 0.95,1.78c1.69,3.37 2.51,7.12 2.51,10.97zm-6.73,-20.63c0.46,0 0.94,0.08 1.42,0.24c1.05,0.36 1.91,1.05 2.3,1.85c0.8,1.67 0.16,3.92 -1.4,4.9c0,0 0,0 0,0c-1.56,1 -3.86,0.63 -5.03,-0.8c-0.68,-0.83 -0.94,-2.04 -0.68,-3.22c0.25,-1.19 0.96,-2.15 1.95,-2.65c0.41,-0.21 0.91,-0.32 1.44,-0.32zm-15.17,-7.05c0.25,0.06 0.51,0.13 0.76,0.21c0.25,0.08 0.51,0.15 0.76,0.23c0.25,0.08 0.5,0.17 0.75,0.25c0.23,0.08 0.45,0.17 0.67,0.25c0.27,0.1 0.54,0.21 0.8,0.32c0.24,0.1 0.48,0.21 0.72,0.32c0.22,0.1 0.43,0.2 0.65,0.31c0.06,0.03 0.12,0.06 0.18,0.09c0.2,0.1 0.4,0.2 0.6,0.31c0.24,0.12 0.46,0.25 0.7,0.38c0.23,0.13 0.46,0.26 0.69,0.4c0.22,0.13 0.43,0.26 0.64,0.39c0.24,0.15 0.47,0.31 0.71,0.47c0.16,0.11 0.32,0.22 0.48,0.33c0.15,0.1 0.29,0.21 0.44,0.32c0.24,0.18 0.48,0.36 0.71,0.55c0.18,0.14 0.36,0.28 0.53,0.43c0.15,0.12 0.3,0.25 0.45,0.38c0.14,0.12 0.28,0.24 0.41,0.37c0.2,0.18 0.39,0.37 0.58,0.55c-0.85,0.72 -1.45,1.73 -1.7,2.91c-0.2,0.93 -0.15,1.87 0.12,2.72c-1.52,0.6 -3.18,1.15 -4.99,1.64c-2.38,-8.56 -5.5,-12.72 -8.31,-14.67c0.11,0.02 0.22,0.03 0.32,0.05c0.78,0.13 1.56,0.3 2.33,0.49zm-31.87,11.2c1.84,1.12 3.94,2.08 6.22,2.89c0,1.16 0.37,2.28 1.07,3.13c0.53,0.65 1.22,1.13 1.98,1.43c-0.5,2.84 -0.79,5.89 -0.8,9.09l-14.43,0.03c0.03,-5.94 2.03,-11.63 5.96,-16.57z" id="svg_1"/>
 </g>
</svg>